<svg width="16" height="12" viewBox="0 0 16 12" fill="none" xmlns="http://www.w3.org/2000/svg">
<path fill-rule="evenodd" clip-rule="evenodd" d="M6.18978 11.1747L15 2.36451L14.2213 1.58578L6.18978 9.61729L2.29952 5.72703L1.5208 6.50575L5.41106 10.396L5.92591 10.9109L6.18978 11.1747Z" fill="#0091FF"/>
<path d="M15 2.36451L15.3536 2.71806L15.7071 2.36451L15.3536 2.01095L15 2.36451ZM6.18978 11.1747L5.83622 11.5283L6.18978 11.8818L6.54333 11.5283L6.18978 11.1747ZM14.2213 1.58578L14.5748 1.23223L14.2213 0.878678L13.8677 1.23223L14.2213 1.58578ZM6.18978 9.61729L5.83622 9.97084L6.18978 10.3244L6.54333 9.97084L6.18978 9.61729ZM2.29952 5.72703L2.65307 5.37348L2.29952 5.01992L1.94597 5.37348L2.29952 5.72703ZM1.5208 6.50575L1.16724 6.1522L0.813691 6.50575L1.16724 6.8593L1.5208 6.50575ZM5.41106 10.396L5.0575 10.7496L5.0575 10.7496L5.41106 10.396ZM5.92591 10.9109L6.27946 10.5573L6.27946 10.5573L5.92591 10.9109ZM14.6464 2.01095L5.83622 10.8212L6.54333 11.5283L15.3536 2.71806L14.6464 2.01095ZM13.8677 1.93934L14.6464 2.71806L15.3536 2.01095L14.5748 1.23223L13.8677 1.93934ZM6.54333 9.97084L14.5748 1.93934L13.8677 1.23223L5.83622 9.26373L6.54333 9.97084ZM1.94597 6.08058L5.83622 9.97084L6.54333 9.26373L2.65307 5.37348L1.94597 6.08058ZM1.87435 6.8593L2.65307 6.08058L1.94597 5.37348L1.16724 6.1522L1.87435 6.8593ZM5.76461 10.0425L1.87435 6.1522L1.16724 6.8593L5.0575 10.7496L5.76461 10.0425ZM6.27946 10.5573L5.76461 10.0425L5.0575 10.7496L5.57236 11.2644L6.27946 10.5573ZM6.54333 10.8212L6.27946 10.5573L5.57236 11.2644L5.83622 11.5283L6.54333 10.8212Z" fill="#0091FF"/>
</svg>
