<?xml version="1.0" encoding="utf-8"?>
<!-- Generator: Adobe Illustrator 23.0.4, SVG Export Plug-In . SVG Version: 6.00 Build 0)  -->
<svg version="1.1" id="Layer_1" xmlns="http://www.w3.org/2000/svg" xmlns:xlink="http://www.w3.org/1999/xlink" x="0px" y="0px"
	 viewBox="0 0 23.7 22" style="enable-background:new 0 0 23.7 22;" xml:space="preserve">
<style type="text/css">
	.st0{fill:#FFFFFF;}
</style>
<g>
	<path class="st0" d="M7.1,9.6C7,9.5,6.9,9.5,6.7,9.4c-0.1,0-0.3,0-0.4,0C6,9.4,5.7,9.5,5.5,9.6C5.2,9.8,5,10,4.8,10.2
		c-0.2,0.3-0.2,0.6-0.2,0.9c0,0.3,0.1,0.6,0.2,0.9c0.2,0.3,0.4,0.5,0.6,0.6c0.3,0.2,0.6,0.2,0.9,0.2c0.3,0,0.6-0.1,0.9-0.2
		c0.3-0.1,0.5-0.3,0.6-0.6C7.9,11.8,8,11.5,8,11.1c0-0.3-0.1-0.6-0.2-0.9C7.6,9.9,7.4,9.7,7.1,9.6z"/>
	<path class="st0" d="M17.3,2.3l-2.6,6.2h0l-2.2,5.2h-1L9.4,8.5h1.1l1.6,3.8l4.2-10.5c-1.3-0.6-2.9-1-4.4-1C6.2,0.7,1.6,5.3,1.6,11
		s4.6,10.3,10.3,10.3S22.1,16.7,22.1,11C22.1,7.4,20.2,4.1,17.3,2.3z M9,13.7H8.2L8,12.9c-0.2,0.3-0.4,0.5-0.7,0.7
		c-0.3,0.2-0.7,0.2-1.1,0.2c-0.5,0-0.9-0.1-1.3-0.3c-0.4-0.2-0.7-0.6-1-1c-0.2-0.4-0.4-0.9-0.4-1.4c0-0.5,0.1-1,0.4-1.4
		c0.2-0.4,0.6-0.7,1-1c0.4-0.2,0.8-0.3,1.3-0.3c0.4,0,0.8,0.1,1.1,0.2C7.6,8.8,7.9,9,8,9.3V8.5h1V13.7z M18.7,13.6
		c-0.4,0.1-0.7,0.2-1.1,0.2c-0.5,0-1-0.1-1.4-0.3c-0.4-0.2-0.7-0.5-1-1c-0.3-0.4-0.4-0.9-0.4-1.4c0-0.5,0.1-1,0.4-1.4
		c0.2-0.4,0.6-0.7,1-1c0.4-0.2,0.9-0.3,1.4-0.3c0.4,0,0.8,0.1,1.1,0.2c0.3,0.1,0.6,0.4,0.9,0.6l-0.7,0.7c-0.2-0.2-0.4-0.3-0.6-0.4
		c-0.3-0.1-0.5-0.2-0.8-0.2c-0.3,0-0.6,0.1-0.9,0.2c-0.2,0.1-0.4,0.3-0.6,0.6c-0.1,0.3-0.2,0.6-0.2,0.9c0,0.3,0.1,0.6,0.2,0.9
		c0.1,0.3,0.3,0.5,0.6,0.6c0.3,0.1,0.5,0.2,0.9,0.2c0.3,0,0.5-0.1,0.8-0.2c0.3-0.1,0.5-0.2,0.6-0.4l0.7,0.7
		C19.4,13.3,19.1,13.5,18.7,13.6z"/>
</g>
</svg>
