<?xml version="1.0" encoding="utf-8"?>
<!-- Generator: Adobe Illustrator 23.0.4, SVG Export Plug-In . SVG Version: 6.00 Build 0)  -->
<svg version="1.1" id="Layer_1" xmlns="http://www.w3.org/2000/svg" xmlns:xlink="http://www.w3.org/1999/xlink" x="0px" y="0px"
	 viewBox="0 0 166 167.5" style="enable-background:new 0 0 166 167.5;" xml:space="preserve">
<style type="text/css">
	.st0{fill:#FFFFFF;}
</style>
<title>Footerlogo</title>
<g>
	<path class="st0" d="M57.3,74.7c-0.7-0.4-1.4-0.6-2.2-0.8c-0.7-0.2-1.5-0.2-2.2-0.2c-1.8,0-3.5,0.5-5.1,1.3c-1.5,0.8-2.8,2-3.6,3.5
		c-1.8,3.2-1.8,7,0,10.2c0.9,1.5,2.2,2.8,3.7,3.6c1.5,0.9,3.2,1.3,5,1.3c1.7,0,3.5-0.4,5-1.3c1.5-0.8,2.6-2,3.4-3.5
		c0.8-1.6,1.2-3.4,1.2-5.3c0-1.9-0.5-3.7-1.4-5.3C60.2,76.7,58.9,75.5,57.3,74.7z"/>
	<path class="st0" d="M116,33.2l-14.8,35.5h0.1l-12.6,30h-5.6l-12.4-30h6.2L86,90.2l24.1-60.4C80.3,15.1,44.3,27.3,29.5,57
		s-2.6,65.8,27.2,80.6c29.8,14.7,65.8,2.6,80.6-27.2C150.9,83,141.7,49.8,116,33.2z M68.4,98.6h-4.8l-1-4.6c-1,1.7-2.5,3-4.3,3.8
		c-1.9,1-4.1,1.4-6.2,1.4c-2.7,0-5.3-0.7-7.7-2c-2.3-1.3-4.2-3.3-5.5-5.6c-1.4-2.5-2-5.3-2-8.1c0-2.9,0.7-5.7,2.1-8.2
		c1.3-2.4,3.2-4.3,5.6-5.6c2.3-1.3,4.9-1.9,7.6-1.9c2.2,0,4.3,0.4,6.2,1.4c1.8,0.8,3.3,2.1,4.2,3.8v-4.8h5.8V98.6z M123.8,97.9
		c-2.1,0.8-4.3,1.3-6.5,1.3c-2.8,0-5.5-0.6-7.9-1.9c-2.4-1.3-4.4-3.2-5.7-5.5c-1.5-2.5-2.3-5.3-2.2-8.2c0-2.8,0.7-5.7,2.2-8.1
		c1.4-2.4,3.4-4.3,5.9-5.6c2.4-1.3,5.1-1.9,7.9-1.8c2.2,0,4.4,0.4,6.4,1.3c2,0.8,3.7,2,5.1,3.6l-4.2,4c-1-1-2.3-1.8-3.6-2.3
		c-1.4-0.6-2.9-0.9-4.4-0.9c-1.7,0-3.4,0.4-4.9,1.2c-1.4,0.8-2.6,2-3.3,3.5c-1.6,3.3-1.6,7.1,0,10.3c0.7,1.5,1.9,2.7,3.3,3.6
		c1.5,0.9,3.2,1.3,4.9,1.3c1.5,0,3-0.3,4.4-0.9c1.4-0.5,2.6-1.3,3.6-2.4l4.2,4C127.6,95.9,125.8,97.2,123.8,97.9z"/>
</g>
</svg>
