<?xml version="1.0" encoding="utf-8"?>
<!-- Generator: Adobe Illustrator 23.0.4, SVG Export Plug-In . SVG Version: 6.00 Build 0)  -->
<svg version="1.1" id="Layer_1" xmlns="http://www.w3.org/2000/svg" xmlns:xlink="http://www.w3.org/1999/xlink" x="0px" y="0px"
	 viewBox="0 0 338 307.9" style="enable-background:new 0 0 338 307.9;" xml:space="preserve">
<style type="text/css">
	.st0{fill:#ED390B;stroke:#ED390B;stroke-width:6;stroke-miterlimit:10;}
</style>
<g>
	<g>
		<g>
			<path class="st0" d="M168.9,71.3c13.4,0,24.3-10.9,24.3-24.3s-10.9-24.3-24.3-24.3S144.5,33.5,144.5,47S155.4,71.3,168.9,71.3z
				 M168.9,34.8c6.7,0,12.2,5.4,12.2,12.2s-5.4,12.2-12.2,12.2c-6.7,0-12.2-5.4-12.2-12.2S162.2,34.8,168.9,34.8z"/>
			<path class="st0" d="M177.7,75.2c-0.1,0-0.2,0-0.3,0h-17c-18.3-0.5-33.6,13.9-34.1,32.2c0,0.1,0,0.2,0,0.3v4.9
				c0,3.3,3.3,5.2,6.7,5.2h71.8c3.3,0,6.7-1.8,6.7-5.2v-4.9C211.1,89.5,196,74.9,177.7,75.2z M139.1,105.7
				c0.6-9.1,10-18.3,21.3-18.3h17c11.3,0,20.7,9.1,21.3,18.3H139.1z"/>
			<path class="st0" d="M70,177.1c3.4,0,6.1-2.7,6.1-6.1c0-28.1,12.7-54.8,34.7-72.4c2.4-2.3,2.5-6.2,0.1-8.6
				c-2-2.1-5.3-2.4-7.7-0.8c-24.8,19.9-39.3,50-39.2,81.8C63.9,174.4,66.7,177.1,70,177.1z"/>
			<path class="st0" d="M198.5,258.9c0,0-0.1,0-0.1,0.1c-19.1,6.4-39.7,6.4-58.7,0c-3.2-1-6.6,0.8-7.6,4c-1.2,3,0.3,6.3,3.3,7.5
				c0.1,0,0.2,0.1,0.4,0.1c21.6,7.3,45,7.3,66.6,0c3.2-1.2,5-4.6,4-7.9C205.2,259.5,201.7,257.8,198.5,258.9z"/>
			<path class="st0" d="M222.4,95.3c24.6,17.3,39.3,45.6,39.2,75.7c0,3.4,2.7,6.1,6.1,6.1c3.4,0,6.1-2.7,6.1-6.1
				c-0.1-34.1-16.6-66-44.4-85.8c-2.8-1.9-6.6-1.3-8.5,1.5C219,89.6,219.6,93.4,222.4,95.3z"/>
			<path class="st0" d="M77.6,238.6c13.4,0,24.3-10.9,24.3-24.3s-10.9-24.3-24.3-24.3s-24.3,10.9-24.3,24.3S64.2,238.6,77.6,238.6z
				 M77.6,202.1c6.7,0,12.2,5.4,12.2,12.2s-5.4,12.2-12.2,12.2c-6.7,0-12.2-5.4-12.2-12.2S70.9,202.1,77.6,202.1z"/>
			<path class="st0" d="M86.5,242.5c-0.1,0-0.2,0-0.3,0h-17C50.8,242,35.5,256.5,35,274.8c0,0.1,0,0.2,0,0.3v4.9
				c0,3.3,3.3,5.2,6.7,5.2h71.8c3.3,0,6.7-1.8,6.7-5.2v-4.9C119.9,256.8,104.8,242.2,86.5,242.5z M47.8,273
				c0.6-9.1,10-18.3,21.3-18.3h17c11.3,0,20.7,9.1,21.3,18.3L47.8,273L47.8,273z"/>
			<path class="st0" d="M235.8,214.3c0,13.4,10.9,24.3,24.3,24.3c13.4,0,24.3-10.9,24.3-24.3s-10.9-24.3-24.3-24.3
				C246.7,189.9,235.8,200.8,235.8,214.3z M272.3,214.3c0,6.7-5.4,12.2-12.2,12.2c-6.7,0-12.2-5.4-12.2-12.2s5.4-12.2,12.2-12.2
				C266.9,202.1,272.3,207.5,272.3,214.3z"/>
			<path class="st0" d="M269,242.5c-0.1,0-0.2,0-0.3,0h-17c-18.3-0.5-33.6,13.9-34.1,32.2c0,0.1,0,0.2,0,0.3v4.9
				c0,3.3,3.3,5.2,6.7,5.2H296c3.3,0,6.7-1.8,6.7-5.2v-4.9C302.4,256.8,287.3,242.2,269,242.5z M230.3,273
				c0.6-9.1,10-18.3,21.3-18.3h17c11.3,0,20.7,9.1,21.3,18.3L230.3,273L230.3,273z"/>
		</g>
	</g>
</g>
</svg>
