<?xml version="1.0" encoding="utf-8"?>
<!-- Generator: Adobe Illustrator 23.0.4, SVG Export Plug-In . SVG Version: 6.00 Build 0)  -->
<svg version="1.1" id="Layer_1" xmlns="http://www.w3.org/2000/svg" xmlns:xlink="http://www.w3.org/1999/xlink" x="0px" y="0px"
	 viewBox="0 0 338 307.9" style="enable-background:new 0 0 338 307.9;" xml:space="preserve">
<style type="text/css">
	.st0{fill:#ED390B;}
	.st1{fill:#ED390B;stroke:#ED390B;stroke-width:6;stroke-miterlimit:10;}
</style>
<g>
	<g>
		<g>
			<path class="st0" d="M117.6,29.9V80H67.5v17.4h58.7c4.8,0,8.7-3.9,8.7-8.7V29.9L117.6,29.9L117.6,29.9z"/>
		</g>
	</g>
	<g>
		<g>
			<path class="st0" d="M225.8,21.3h-99.5c-2.3,0-4.5,0.9-6.1,2.5L61.4,82.5c-1.6,1.6-2.5,3.8-2.5,6.1v144.7c0,4.8,3.9,8.7,8.7,8.7
				h83c4.8,0,8.7-3.9,8.7-8.7s-3.9-8.7-8.7-8.7H76.2V92.3l53.7-53.7h87.3v112.6c0,4.8,3.9,8.7,8.7,8.7s8.7-3.9,8.7-8.7V29.9
				C234.5,25.1,230.6,21.3,225.8,21.3z"/>
		</g>
	</g>
	<g>
		<g>
			<path class="st0" d="M183,117.3h-72.6c-4.8,0-8.7,3.9-8.7,8.7s3.9,8.7,8.7,8.7H183c4.8,0,8.7-3.9,8.7-8.7
				C191.7,121.2,187.8,117.3,183,117.3z"/>
		</g>
	</g>
	<g>
		<g>
			<path class="st0" d="M183,152h-72.6c-4.8,0-8.7,3.9-8.7,8.7c0,4.8,3.9,8.7,8.7,8.7H183c4.8,0,8.7-3.9,8.7-8.7
				C191.7,155.9,187.8,152,183,152z"/>
		</g>
	</g>
	<g>
		<g>
			<path class="st0" d="M221.7,174.3c-27.1,0-49.2,22.1-49.2,49.2s22.1,49.2,49.2,49.2s49.2-22.1,49.2-49.2S248.9,174.3,221.7,174.3
				z M221.7,255.3c-17.5,0-31.8-14.3-31.8-31.8s14.3-31.8,31.8-31.8s31.8,14.3,31.8,31.8C253.6,241.1,239.3,255.3,221.7,255.3z"/>
		</g>
	</g>
	<g>
		<g>
			<path class="st0" d="M285.7,274.9l-28.9-28.6c-3.4-3.4-8.9-3.4-12.3,0.1c-3.4,3.4-3.3,8.9,0.1,12.3l28.9,28.6
				c1.7,1.7,3.9,2.5,6.1,2.5c2.2,0,4.5-0.9,6.2-2.6C289.2,283.8,289.1,278.3,285.7,274.9z"/>
		</g>
	</g>
</g>
</svg>
