<?xml version="1.0" encoding="utf-8"?>
<!-- Generator: Adobe Illustrator 23.0.4, SVG Export Plug-In . SVG Version: 6.00 Build 0)  -->
<svg version="1.1" id="Layer_1" xmlns="http://www.w3.org/2000/svg" xmlns:xlink="http://www.w3.org/1999/xlink" x="0px" y="0px"
	 viewBox="0 0 338 307.9" style="enable-background:new 0 0 338 307.9;" xml:space="preserve">
<style type="text/css">
	.st0{fill:#ED390B;}
</style>
<path class="st0" d="M216.8,18h-95.6c-4.4,0-8,3.6-8,8v58.4c0,4.4,3.6,8,8,8h95.6c4.4,0,8-3.6,8-8V26C224.8,21.6,221.2,18,216.8,18z
	 M208.8,76.4h-79.7V33.9h79.7V76.4z"/>
<path class="st0" d="M216.8,116.8h-95.6c-4.4,0-8,3.6-8,8v58.4c0,4.4,3.6,8,8,8h95.6c4.4,0,8-3.6,8-8v-58.4
	C224.8,120.4,221.2,116.8,216.8,116.8z M208.8,175.2h-79.7v-42.5h79.7V175.2z"/>
<path class="st0" d="M216.8,215.6h-95.6c-4.4,0-8,3.6-8,8V282c0,4.4,3.6,8,8,8h95.6c4.4,0,8-3.6,8-8v-58.4
	C224.8,219.2,221.2,215.6,216.8,215.6z M208.8,274.1h-79.7v-42.5h79.7V274.1z"/>
<path class="st0" d="M275.8,59.4h-31.9c-4.4,0-8,3.6-8,8s3.6,8,8,8h31.9c7.3,0,13.3,6,13.3,13.3v31.9c0,7.3-6,13.3-13.3,13.3h-12.6
	l7.6-7.6c3.1-3.1,3.1-8.2,0-11.3c-3.1-3.1-8.2-3.1-11.3,0l-21.2,21.2c-3.1,3.1-3.1,8.2,0,11.3l21.2,21.2c1.6,1.6,3.6,2.3,5.6,2.3
	s4.1-0.8,5.6-2.3c3.1-3.1,3.1-8.2,0-11.3l-7.6-7.6h12.6c16.1,0,29.2-13.1,29.2-29.2V88.7C305,72.5,291.9,59.4,275.8,59.4z"/>
<path class="st0" d="M62.2,174.2h31.9c4.4,0,8-3.6,8-8s-3.6-8-8-8H62.2c-16.1,0-29.2,13.1-29.2,29.2v31.9
	c0,16.1,13.1,29.2,29.2,29.2h12.6l-7.6,7.6c-3.1,3.1-3.1,8.2,0,11.3c1.6,1.6,3.6,2.3,5.6,2.3s4.1-0.8,5.6-2.3l21.2-21.3
	c3.1-3.1,3.1-8.2,0-11.3l-21.2-21.2c-3.1-3.1-8.2-3.1-11.3,0c-3.1,3.1-3.1,8.2,0,11.3l7.6,7.6H62.2c-7.3,0-13.3-6-13.3-13.3v-31.9
	C48.9,180.1,54.9,174.2,62.2,174.2z"/>
</svg>
