<?xml version="1.0" encoding="utf-8"?>
<!-- Generator: Adobe Illustrator 23.0.4, SVG Export Plug-In . SVG Version: 6.00 Build 0)  -->
<svg version="1.1" id="Layer_1" xmlns="http://www.w3.org/2000/svg" xmlns:xlink="http://www.w3.org/1999/xlink" x="0px" y="0px"
	 viewBox="0 0 338 307.9" style="enable-background:new 0 0 338 307.9;" xml:space="preserve">
<style type="text/css">
	.st0{stroke:#000000;stroke-width:6;stroke-miterlimit:10;}
</style>
<path d="M83.5,71.1c1.1,21.5,10.2,38.7,25.6,47.8c7.2,4.3,15.4,6.4,23.5,6.4c8.1,0,16.2-2.2,23.5-6.4c17.2-10.2,26.6-30.5,25.6-55.5
	c-1-25.8-19.2-40.2-38.5-44.5c-0.2-0.1-2.6-0.5-5.2-0.8c-1.9-0.2-8.4-0.3-11.6,0.1c-1.8,0.2-3.6,0.5-5,0.8
	c-19.2,4.4-37,18.8-37.9,44.3c-0.1,2.4-0.1,4.8,0,7.1C83.5,70.8,83.5,71,83.5,71.1z M149.1,107.3c-10.2,6.1-22.9,6.1-33.1,0
	c-9.6-5.7-15.9-15.9-18.1-29.1c10.1,0.2,20.2-2.9,28.5-9.1c0.9-0.7,1.9-1.4,2.7-2.2c10.7,9.2,24.7,13,38.3,10.6
	C165.2,91,158.9,101.6,149.1,107.3z M146.8,34.1c11.4,4.5,20.6,14.1,21.3,29.4c-10.5,3-21.7,0.5-30.1-6.7
	C142.3,50.4,145.3,42.7,146.8,34.1z M97,63.9c0.8-21.7,18.4-32.1,35.6-32.8c0.4,0,0.7,0,1.1,0.1c-2,11.7-7.4,21.2-15.3,27.1
	c-6.2,4.6-13.8,6.8-21.4,6.4C97,64.5,97,64.2,97,63.9z M276,242.6c0,0.3,0.1,0.8,0.1,1.1c0,3.7-3,6.9-6.8,6.9h-11.9
	c-3.7,0-6.8-3.2-6.8-6.9c0-0.3,0-0.9,0.1-1.2c-3-0.7-5.2-3.4-5.2-6.6c0-3.7,3-6.8,6.8-6.8h4.4l0.1-23.7l-27.6,8.7v73.1h7.1
	c3.7,0,6.8,3,6.8,6.8c0,3.7-3,6.8-6.8,6.8h-14c0,0-0.1,0-0.1,0c0,0-0.1,0-0.1,0h-14c-3.7,0-6.8-3-6.8-6.8c0-3.7,3-6.8,6.8-6.8h7.5
	v-68.9l-27.7,8.6v28h4.2c3.7,0,6.8,3,6.8,6.7c0,3.2-2.2,5.9-5.2,6.6c0,0.3,0.1,0.7,0.1,1c0,3.7-3,6.8-6.8,6.8l-11.9,0
	c-3.7,0-6.8-3-6.8-6.8c0-0.3,0-0.7,0.1-1c-3-0.7-5.2-3.4-5.2-6.6c0-3.7,3-6.7,6.8-6.7h4.5v-33c0-3,1.9-5.6,4.8-6.5l36.4-11.3v-10.6
	c0-3.7,3-6.8,6.8-6.8s6.8,3,6.8,6.8v6.4l32.3-10c0.7-0.2,1.3-0.3,2-0.3c3.3,0,6.2,2.4,6.7,5.7c0.1,0.4,0.1,0.7,0.1,1.1l0,32.7h4.4
	c3.7,0,6.8,3.1,6.8,6.8C281.3,239.1,279,241.9,276,242.6z M107.1,158.7l19.2,47.7c1,2.6,3.5,4.2,6.3,4.2c2.8,0,5.2-1.7,6.3-4.2
	l19.3-47.7c9.3,4.6,16.8,12.1,20.1,23c1.1,3.6,4.8,5.6,8.4,4.6c3.6-1.1,5.6-4.8,4.6-8.4c-3.8-12.8-12.3-23.1-24.7-30
	c-10.9-6-24.3-9-37.8-8.2c-13.1,0.7-25.6,4.8-35.2,11.7c-11,7.8-18.1,18.8-20.6,31.9L56.9,269c-0.4,2,0.2,4,1.4,5.5
	c1.3,1.5,3.2,2.4,5.2,2.4l74.9,0c3.7,0,6.8-3,6.8-6.8c0-3.7-3-6.8-6.8-6.8l-66.8,0L86,185.5C88.5,172.3,97,163.7,107.1,158.7z
	 M129.3,153c5.2-0.3,10.7,0.1,16,1.2l-12.7,31.5l-12.7-31.5C123.1,153.6,126.2,153.1,129.3,153z"/>
</svg>
