<?xml version="1.0" encoding="utf-8"?>
<!-- Generator: Adobe Illustrator 23.0.4, SVG Export Plug-In . SVG Version: 6.00 Build 0)  -->
<svg version="1.1" id="Layer_1" xmlns:serif="http://www.serif.com/"
	 xmlns="http://www.w3.org/2000/svg" xmlns:xlink="http://www.w3.org/1999/xlink" x="0px" y="0px" viewBox="0 0 595.3 167.5"
	 style="enable-background:new 0 0 595.3 167.5;" xml:space="preserve">
<style type="text/css">
	.st0{fill:#FFFFFF;}
	.st1{enable-background:new    ;}
</style>
<g>
	<path class="st0" d="M66.3,74.7c-0.7-0.4-1.5-0.7-2.2-0.8c-0.7-0.1-1.4-0.2-2.2-0.2c-1.9,0-3.5,0.4-5.1,1.3c-1.6,0.8-2.8,2-3.6,3.5
		c-0.9,1.5-1.3,3.2-1.3,5.1c0,1.9,0.4,3.6,1.3,5.1c0.9,1.6,2.2,2.8,3.7,3.6c1.6,0.9,3.2,1.3,5,1.3c1.9,0,3.5-0.4,5-1.3
		c1.5-0.8,2.6-2,3.4-3.5c0.8-1.5,1.2-3.3,1.2-5.3c0-1.9-0.4-3.7-1.4-5.3C69.1,76.7,67.9,75.5,66.3,74.7z"/>
	<path class="st0" d="M125,33.2l-14.8,35.5h0.1l-12.6,30h-5.6l-12.4-30h6.2L95,90.2l24.1-60.4c-7.7-3.7-16.4-5.8-25.5-5.8
		c-32.5,0-58.8,26.3-58.8,58.8c0,32.5,26.3,58.8,58.8,58.8s58.8-26.3,58.8-58.8C152.3,62,141.4,43.6,125,33.2z M77.4,98.6h-4.8
		l-1-4.6c-1,1.6-2.4,2.9-4.3,3.8c-1.9,1-4,1.4-6.2,1.4c-2.8,0-5.4-0.7-7.7-2c-2.3-1.3-4.2-3.2-5.5-5.6c-1.3-2.4-2-5.1-2-8.1
		c0-3,0.7-5.7,2.1-8.2c1.3-2.5,3.2-4.3,5.6-5.6c2.3-1.3,4.8-1.9,7.6-1.9c2.3,0,4.4,0.4,6.2,1.4c1.9,0.9,3.3,2.2,4.2,3.8v-4.8h5.8
		L77.4,98.6L77.4,98.6z M132.9,97.9c-2,0.8-4.2,1.3-6.5,1.3c-2.9,0-5.6-0.7-8-1.9c-2.4-1.3-4.3-3.1-5.7-5.5
		c-1.5-2.4-2.2-5.1-2.2-8.3c0-3,0.7-5.7,2.2-8.1c1.4-2.5,3.3-4.2,5.9-5.6c2.4-1.3,5-1.9,7.9-1.9c2.3,0,4.4,0.4,6.4,1.3
		c2,0.8,3.7,2,5.1,3.6l-4.2,4c-1-1-2.2-1.7-3.6-2.3s-3-0.9-4.4-0.9c-1.9,0-3.5,0.4-4.9,1.2c-1.4,0.8-2.5,2-3.3,3.5
		c-0.8,1.6-1.2,3.3-1.2,5.1c0,1.9,0.4,3.6,1.2,5.2c0.8,1.6,1.9,2.8,3.3,3.6c1.5,0.9,3.1,1.3,4.9,1.3c1.5,0,2.9-0.3,4.4-0.9
		s2.7-1.4,3.6-2.4l4.2,4C136.6,95.9,134.9,97.1,132.9,97.9z"/>
</g>
<g class="st1">
	<path class="st0" d="M189.9,73.7l-3.3,9.2h-5.6l14.1-37.2h5.7l13.8,37.2H209l-3.3-9.2H189.9z M203.9,68.9l-6.1-16.5l-6.2,16.5
		H203.9z"/>
	<path class="st0" d="M215.1,62.6v-4.1h4.9v-3.3c0-2.2,0.3-4.2,1-5.9c0.6-1.7,1.6-3,2.8-3.9c1.3-0.9,2.8-1.4,4.7-1.4
		c0.4,0,0.8,0,1.2,0.1l2.5,0.3l-0.5,4.7l-2-0.3l-0.6-0.1c-0.7,0-1.4,0.2-2,0.6c-0.6,0.4-1,0.9-1.3,1.5c-0.3,0.6-0.5,1.2-0.6,1.8
		c-0.1,0.6-0.2,1.4-0.2,2.2v0.3v3.3h5.8l-0.3,4.1H225l-0.3,20.3h-5l0.3-20.3H215.1z"/>
	<path class="st0" d="M234.8,82.9V57.7h4.6l0.3,5.7c0.6-2,1.4-3.5,2.6-4.5s2.6-1.4,4.4-1.4c2.3,0,3.7,0.2,4.4,0.6l-0.8,4.3
		c-0.5-0.2-1-0.4-1.5-0.5s-1.3-0.1-2.2-0.1c-1.5,0-2.9,0.5-4,1.6c-1.2,1-2,2.5-2.4,4.3c-0.2,0.7-0.3,1.5-0.4,2.3
		c-0.1,0.8-0.1,2.1-0.1,3.8v9.2H234.8z"/>
	<path class="st0" d="M253.7,50.2c0-0.9,0.3-1.7,1-2.3c0.7-0.6,1.5-0.9,2.4-0.9s1.8,0.3,2.4,0.9c0.7,0.6,1,1.4,1,2.3
		c0,0.9-0.3,1.7-1,2.3c-0.7,0.6-1.5,0.9-2.4,0.9c-0.9,0-1.7-0.3-2.4-0.9C254,51.9,253.7,51.1,253.7,50.2z M259.3,57.7h-4.6v25.2h4.8
		L259.3,57.7z"/>
	<path class="st0" d="M264.6,70.2c0-2.5,0.6-4.8,1.8-6.8c1.2-2,2.8-3.6,4.9-4.7c2-1.1,4.2-1.6,6.6-1.6c1.9,0,3.7,0.4,5.4,1.1
		c1.7,0.7,3.1,1.7,4.3,3l-3.5,3.4c-0.8-0.8-1.8-1.4-3.1-1.9c-1.3-0.5-2.5-0.7-3.7-0.7c-1.6,0-2.9,0.3-4.2,1
		c-1.2,0.7-2.1,1.7-2.8,2.9c-0.7,1.3-1,2.7-1,4.3c0,1.6,0.3,3.1,1,4.4c0.7,1.3,1.6,2.3,2.8,3c1.2,0.7,2.6,1.1,4.1,1.1
		c1.2,0,2.5-0.3,3.7-0.8c1.2-0.5,2.3-1.2,3.1-2l3.5,3.4c-1.2,1.3-2.6,2.3-4.3,3c-1.7,0.7-3.5,1.1-5.4,1.1c-2.4,0-4.7-0.5-6.7-1.6
		c-2-1.1-3.6-2.6-4.8-4.6C265.2,75.1,264.6,72.8,264.6,70.2z"/>
	<path class="st0" d="M292.5,63.4c1.2-2,2.7-3.6,4.7-4.7c1.9-1.1,4.1-1.6,6.4-1.6c1.9,0,3.7,0.4,5.3,1.2c1.6,0.8,2.8,1.8,3.6,3.2v-4
		h4.9v25.5h-4.1l-0.8-3.9c-0.8,1.4-2,2.4-3.6,3.2c-1.6,0.8-3.4,1.2-5.2,1.2c-2.4,0-4.5-0.6-6.5-1.7c-2-1.1-3.5-2.7-4.6-4.7
		c-1.1-2-1.7-4.3-1.7-6.8C290.7,67.7,291.3,65.4,292.5,63.4z M296.9,74.5c0.8,1.3,1.8,2.3,3.1,3c1.3,0.7,2.7,1.1,4.2,1.1
		c1.5,0,2.9-0.3,4.2-1c1.2-0.7,2.2-1.7,2.9-2.9c0.7-1.3,1-2.7,1-4.4c0-1.6-0.4-3.1-1.2-4.4c-0.8-1.3-1.9-2.3-3.2-3
		c-0.6-0.3-1.2-0.5-1.8-0.7s-1.2-0.2-1.9-0.2c-1.5,0-3,0.4-4.3,1.1c-1.3,0.7-2.3,1.7-3.1,2.9c-0.8,1.2-1.1,2.7-1.1,4.3
		C295.8,71.8,296.1,73.2,296.9,74.5z"/>
	<path class="st0" d="M324,82.9V57.7h4.6l0.3,3.8c1.1-2.4,3.8-3.5,7.9-3.5c2,0,3.7,0.5,5.2,1.5c1.5,1,2.7,2.3,3.5,3.9
		c0.8,1.6,1.1,3.3,1.1,5l-0.4,14.6l-4.8-0.1l0.3-14.3c0-2.1-0.4-3.7-1.3-4.8c-0.9-1.1-2.2-1.6-4-1.6c-1.1,0-2.1,0.1-3,0.3
		s-1.6,0.6-2.2,1.1c-0.8,0.6-1.4,1.5-1.8,2.5c-0.5,1-0.7,2.1-0.7,3.2l0.3,13.6H324z"/>
	<path class="st0" d="M378.3,82.9h-4.8l-11.3-37.2h5.2l8.4,27.4l8.4-27.4h5.2L378.3,82.9z"/>
	<path class="st0" d="M393.7,63.4c1.1-2,2.7-3.6,4.7-4.7c2-1.1,4.2-1.6,6.6-1.6c2.4,0,4.6,0.5,6.5,1.6c1.9,1.1,3.4,2.6,4.5,4.6
		c1.1,2,1.6,4.3,1.6,6.9c0,0.4-0.1,0.7-0.2,0.9c-0.1,0.2-0.2,0.4-0.2,0.5l-20.2,0.5c0.2,1.4,0.7,2.6,1.4,3.6c0.7,1,1.7,1.8,2.9,2.4
		c1.2,0.6,2.5,0.8,3.9,0.8c1.2,0,2.1-0.1,2.9-0.2c0.8-0.1,1.4-0.4,2-0.8c0.6-0.4,1.1-1,1.6-1.8c0.4,0.2,1.4,0.2,3,0.2h0.9
		c0.7,0,1,0,1.1,0.1c-1.1,2.1-2.6,3.8-4.6,4.9c-2,1.2-4.2,1.7-6.8,1.7c-2.4,0-4.6-0.5-6.7-1.6c-2-1.1-3.6-2.6-4.8-4.6
		c-1.2-1.9-1.8-4.2-1.8-6.7C392,67.7,392.6,65.4,393.7,63.4z M412.6,68.3c-0.2-1.4-0.7-2.6-1.4-3.6c-0.7-1-1.7-1.8-2.8-2.3
		c-1.1-0.5-2.4-0.8-3.7-0.8c-2.1,0-3.8,0.6-5.1,1.8c-1.3,1.2-2.1,2.8-2.4,5H412.6z"/>
	<path class="st0" d="M422.2,82.9V57.7h4.6l0.3,3.8c1.1-2.4,3.8-3.5,7.9-3.5c2,0,3.7,0.5,5.2,1.5c1.5,1,2.7,2.3,3.5,3.9
		c0.8,1.6,1.1,3.3,1.1,5l-0.4,14.6l-4.8-0.1l0.3-14.3c0-2.1-0.4-3.7-1.3-4.8c-0.9-1.1-2.2-1.6-4-1.6c-1.1,0-2.1,0.1-3,0.3
		s-1.6,0.6-2.2,1.1c-0.8,0.6-1.4,1.5-1.8,2.5c-0.5,1-0.7,2.1-0.7,3.2l0.3,13.6H422.2z"/>
	<path class="st0" d="M452.8,82.9V61.5h-4.3v-3.9h4.3v-9.5h4.9v9.5h5.6v3.9h-5.6v21.3H452.8z"/>
	<path class="st0" d="M467,57.7h4.9v14.2c0,1.4,0.2,2.6,0.7,3.7c0.4,1,1.1,1.9,1.9,2.4c0.8,0.6,1.8,0.9,2.9,0.9
		c1.7,0,3.3-0.6,4.9-1.9c0.7-0.6,1.3-1.4,1.6-2.3c0.4-1,0.6-2.1,0.6-3.4V57.7h4.9v25.2h-4.6l-0.3-3.8c-0.7,1.3-1.7,2.4-3.1,3.1
		c-1.5,0.8-3,1.2-4.7,1.2c-3.1,0-5.5-1-7.2-2.9c-1.7-1.9-2.5-4.6-2.5-8.1v-0.2V57.7z"/>
	<path class="st0" d="M496.2,82.9V57.7h4.6l0.3,5.7c0.6-2,1.4-3.5,2.6-4.5c1.2-0.9,2.6-1.4,4.4-1.4c2.3,0,3.7,0.2,4.4,0.6l-0.8,4.3
		c-0.5-0.2-1-0.4-1.5-0.5c-0.5-0.1-1.3-0.1-2.2-0.1c-1.5,0-2.9,0.5-4,1.6c-1.2,1-2,2.5-2.4,4.3c-0.2,0.7-0.3,1.5-0.4,2.3
		c-0.1,0.8-0.1,2.1-0.1,3.8v9.2H496.2z"/>
	<path class="st0" d="M516.1,63.4c1.1-2,2.7-3.6,4.7-4.7c2-1.1,4.2-1.6,6.6-1.6c2.4,0,4.6,0.5,6.5,1.6c1.9,1.1,3.4,2.6,4.5,4.6
		c1.1,2,1.6,4.3,1.6,6.9c0,0.4-0.1,0.7-0.2,0.9c-0.1,0.2-0.2,0.4-0.2,0.5l-20.2,0.5c0.2,1.4,0.7,2.6,1.4,3.6c0.7,1,1.7,1.8,2.9,2.4
		c1.2,0.6,2.5,0.8,3.9,0.8c1.2,0,2.1-0.1,2.9-0.2c0.8-0.1,1.4-0.4,2-0.8c0.6-0.4,1.1-1,1.6-1.8c0.4,0.2,1.4,0.2,3,0.2h0.9
		c0.7,0,1,0,1.1,0.1c-1.1,2.1-2.6,3.8-4.6,4.9c-2,1.2-4.2,1.7-6.8,1.7c-2.4,0-4.6-0.5-6.7-1.6c-2-1.1-3.6-2.6-4.8-4.6
		c-1.2-1.9-1.8-4.2-1.8-6.7C514.4,67.7,514.9,65.4,516.1,63.4z M534.9,68.3c-0.2-1.4-0.7-2.6-1.4-3.6c-0.7-1-1.7-1.8-2.8-2.3
		c-1.1-0.5-2.4-0.8-3.7-0.8c-2.1,0-3.8,0.6-5.1,1.8c-1.3,1.2-2.1,2.8-2.4,5H534.9z"/>
</g>
<g class="st1">
	<path class="st0" d="M184.1,101.7c0.8-2.1,1.8-4,3.2-5.7c1.6-2,3.6-3.6,6.1-4.9c2.4-1.3,5.2-1.9,8.4-1.9c2.5,0,4.8,0.6,6.9,1.7
		c2.1,1.1,4.1,2.8,6,5.1l-4.8,2.3c-1.1-1.2-2-2.1-2.7-2.6c-0.7-0.5-1.4-1-2.2-1.3c-0.9-0.3-2-0.4-3.2-0.4c-2.5,0-4.9,0.6-7,1.9
		c-2.1,1.3-3.8,3-5,5.2c-1.2,2.2-1.8,4.6-1.8,7.2c0,2.6,0.6,5,1.8,7.1c1.2,2.2,2.9,3.9,5,5.1c2.1,1.3,4.4,1.9,7,1.9
		c2.1,0,4-0.3,5.5-1c1.6-0.7,3-1.7,4.2-3.2l4.3,2.7c-1.7,2-3.8,3.6-6.2,4.7c-2.5,1.1-5.1,1.7-7.9,1.7c-2.5,0-4.9-0.5-7.3-1.5
		c-2.3-1-4.4-2.3-6.1-4.1c-1.7-1.7-3.1-3.8-4-6.2c-1-2.4-1.4-4.8-1.4-7.3C183,106,183.4,103.8,184.1,101.7z"/>
	<path class="st0" d="M218.8,118c-0.2-1.1-0.4-2.4-0.4-3.9c0-2.6,0.6-4.9,1.7-6.9c1.1-2,2.7-3.5,4.7-4.6c2-1.1,4.2-1.6,6.6-1.6
		c2.4,0,4.7,0.5,6.6,1.6c2,1.1,3.6,2.6,4.8,4.6c0.6,0.9,1,2,1.2,3.1c0.2,1.1,0.4,2.4,0.4,3.8c0,2.6-0.6,4.9-1.7,6.9
		c-1.1,2-2.7,3.6-4.7,4.7c-2,1.1-4.2,1.6-6.6,1.6s-4.6-0.5-6.6-1.6c-2-1.1-3.6-2.6-4.7-4.6C219.4,120.1,219,119.1,218.8,118z
		 M224.1,118.8c0.7,1.3,1.7,2.3,3,3s2.7,1.1,4.2,1.1c1.5,0,3-0.4,4.2-1.1s2.3-1.7,3-3c0.7-1.3,1.1-2.8,1.1-4.4c0-1.6-0.4-3-1.1-4.3
		c-0.7-1.3-1.7-2.2-3-3c-1.3-0.7-2.7-1-4.2-1c-1.5,0-3,0.3-4.2,1s-2.3,1.7-3,2.9c-0.7,1.3-1.1,2.7-1.1,4.3
		C223,116,223.4,117.5,224.1,118.8z"/>
	<path class="st0" d="M249.6,126.8v-25.2h4.6l0.3,3.8c1.1-2.4,3.8-3.5,7.9-3.5c2,0,3.7,0.5,5.2,1.5c1.5,1,2.7,2.3,3.5,3.9
		c0.8,1.6,1.1,3.3,1.1,5l-0.4,14.6l-4.8-0.1l0.3-14.3c0-2.1-0.4-3.7-1.3-4.8c-0.9-1.1-2.2-1.6-4-1.6c-1.1,0-2.1,0.1-3,0.3
		c-0.9,0.2-1.6,0.6-2.2,1.1c-0.8,0.6-1.4,1.5-1.8,2.5c-0.5,1-0.7,2.1-0.7,3.2l0.3,13.6H249.6z"/>
	<path class="st0" d="M281.2,119.2c0.1,0.6,0.3,1.1,0.7,1.6s0.8,0.9,1.4,1.2c0.5,0.3,1,0.5,1.5,0.7c0.5,0.1,1,0.2,1.6,0.2
		c0.5,0,0.8,0,0.9,0c1.2-0.1,2.2-0.4,2.8-0.9c0.7-0.5,1-1.3,1-2.2c0-0.8-0.3-1.5-0.9-2.1c-0.6-0.6-1.4-1-2.4-1.2l-3.5-0.8
		c-2.3-0.6-4.1-1.5-5.2-2.7c-1.1-1.2-1.6-2.7-1.6-4.5l0.1-1c0.1-1.2,0.6-2.3,1.4-3.2c0.8-1,1.9-1.8,3.2-2.3c1.3-0.6,2.7-0.8,4.2-0.8
		c2.3,0,4.2,0.5,5.8,1.6c0.8,0.5,1.4,1.3,1.8,2.3s0.7,2.2,0.8,3.5l-4.4-0.3c-0.1-0.9-0.5-1.6-1.2-2.1c-0.6-0.5-1.5-0.8-2.5-0.8
		c-1,0-1.8,0.2-2.6,0.6c-0.8,0.4-1.3,1-1.4,1.6c-0.1,0.4-0.2,0.8-0.2,1.3c0,0.3,0.1,0.5,0.2,0.7c0.4,0.8,1.4,1.5,3,1.9l3.7,0.9
		c4.4,1.1,6.5,3.5,6.5,7.4c0,1.5-0.4,2.8-1.3,3.9c-0.9,1.2-2,2-3.5,2.7c-1.5,0.6-3.1,0.9-5,0.9c-1.6,0-3.1-0.3-4.5-0.9
		c-1.4-0.6-2.5-1.6-3.4-2.8c-0.4-0.5-0.7-1.2-0.9-2c-0.2-0.8-0.3-1.7-0.3-2.7L281.2,119.2z"/>
	<path class="st0" d="M300.4,101.6h4.9v14.2c0,1.4,0.2,2.6,0.7,3.7c0.4,1,1.1,1.9,1.9,2.4c0.8,0.6,1.8,0.9,2.9,0.9
		c1.7,0,3.3-0.6,4.9-1.9c0.7-0.6,1.3-1.4,1.6-2.3c0.4-1,0.6-2.1,0.6-3.4v-13.6h4.9v25.2h-4.6L318,123c-0.7,1.3-1.7,2.4-3.1,3.1
		c-1.5,0.8-3,1.2-4.7,1.2c-3.1,0-5.5-1-7.2-2.9c-1.7-1.9-2.5-4.6-2.5-8.1v-0.2V101.6z"/>
	<path class="st0" d="M334.5,88.2v38.6h-4.9V87.9L334.5,88.2z"/>
	<path class="st0" d="M342.9,126.8v-21.3h-4.3v-3.9h4.3v-9.5h4.9v9.5h5.6v3.9h-5.6v21.3H342.9z"/>
</g>
</svg>
