<?xml version="1.0" encoding="utf-8"?>
<!-- Generator: Adobe Illustrator 23.0.4, SVG Export Plug-In . SVG Version: 6.00 Build 0)  -->
<svg version="1.1" id="Layer_1" xmlns="http://www.w3.org/2000/svg" xmlns:xlink="http://www.w3.org/1999/xlink" x="0px" y="0px"
	 viewBox="0 0 338 307.9" style="enable-background:new 0 0 338 307.9;" xml:space="preserve">
<style type="text/css">
	.st0{fill:#ED390B;}
	.st1{fill:#FFFFFF;}
</style>
<g>
	<g>
		<path class="st0" d="M61.7,84.7v142.1c0,3,2.5,5.5,5.5,5.5h203.5c3,0,5.5-2.5,5.5-5.5V84.7c0-3-2.5-5.5-5.5-5.5H67.2
			C64.2,79.2,61.7,81.7,61.7,84.7z M72.7,90.3h192.5v131.1H72.7V90.3z"/>
	</g>
	<g>
		<path class="st0" d="M304,238.3h-9.7V77.9c0-9.1-7.4-16.5-16.5-16.5H133.5c-3,0-5.5,2.5-5.5,5.5c0,3,2.5,5.5,5.5,5.5h144.3
			c3,0,5.5,2.5,5.5,5.5v160.4H54.7V77.9c0-3,2.5-5.5,5.5-5.5h28.3c3,0,5.5-2.5,5.5-5.5c0-3-2.5-5.5-5.5-5.5H60.2
			c-9.1,0-16.5,7.4-16.5,16.5v160.4H34c-3,0-5.5,2.5-5.5,5.5v30.8c0,3,2.5,5.5,5.5,5.5h270c3,0,5.5-2.5,5.5-5.5v-30.8
			C309.5,240.7,307,238.3,304,238.3z M298.5,269.1h-259v-19.8h259V269.1z"/>
	</g>
	<g>
		<path class="st0" d="M198.1,253.7h-64.2c-3,0-5.5,2.5-5.5,5.5s2.5,5.5,5.5,5.5h64.2c3,0,5.5-2.5,5.5-5.5S201.2,253.7,198.1,253.7z
			"/>
	</g>
	<g>
		<path d="M110.7,73c0.4,0,0.8,0,1.3-0.1l0.3-0.1c3-0.7,4.8-3.7,4.1-6.6c-0.7-3-3.7-4.8-6.6-4.1l-0.3,0.1c-3,0.7-4.8,3.7-4.1,6.6
			C106,71.2,108.2,73,110.7,73z"/>
	</g>
	<g>
		<g>
			<path class="st0" d="M79.6,69.2v112.6c0,2.6,2.1,4.6,4.6,4.6H191c2.6,0,4.6-2.1,4.6-4.6V32.5c0-2.6-2.1-4.6-4.6-4.6h-70
				c-1.2,0-2.4,0.5-3.3,1.4L80.9,65.9c0,0,0,0,0,0l0,0C80.1,66.9,79.6,68.2,79.6,69.2z"/>
		</g>
		<g>
			<polygon class="st1" points="116.7,43.3 116.7,64.6 95.4,64.6 			"/>
		</g>
		<g>
			<path class="st1" d="M186.3,177.1H88.9V73.9h32.4c2.6,0,4.6-2.1,4.6-4.6V37.1h60.4L186.3,177.1L186.3,177.1z"/>
		</g>
	</g>
	<g>
		<rect x="100" y="84.1" class="st0" width="75.2" height="7.5"/>
	</g>
	<g>
		<rect x="100" y="98.9" class="st0" width="75.2" height="7.5"/>
	</g>
	<g>
		<rect x="100" y="113.7" class="st0" width="75.2" height="7.5"/>
	</g>
	<g>
		<rect x="100" y="128.6" class="st0" width="75.2" height="7.5"/>
	</g>
	<g>
		<rect x="100" y="143.4" class="st0" width="75.2" height="7.5"/>
	</g>
	<g>
		<rect x="100" y="158.2" class="st0" width="75.2" height="7.5"/>
	</g>
</g>
</svg>
