<?xml version="1.0" encoding="utf-8"?>
<!-- Generator: Adobe Illustrator 23.0.4, SVG Export Plug-In . SVG Version: 6.00 Build 0)  -->
<svg version="1.1" id="Layer_1" xmlns="http://www.w3.org/2000/svg" xmlns:xlink="http://www.w3.org/1999/xlink" x="0px" y="0px"
	 viewBox="0 0 338 307.9" style="enable-background:new 0 0 338 307.9;" xml:space="preserve">
<style type="text/css">
	.st0{fill:#ED390B;}
	.st1{fill:#FFFFFF;}
</style>
<g>
	<g>
		<path class="st0" d="M68,121.5c2.4,0,4.3-1.9,4.3-4.3V30.5h199.5v95.4c0,2.4,1.9,4.3,4.3,4.3c2.4,0,4.3-1.9,4.3-4.3V26.1
			c0-2.4-1.9-4.3-4.3-4.3H68c-2.4,0-4.3,1.9-4.3,4.3v91.1C63.7,119.6,65.6,121.5,68,121.5z"/>
		<path class="st0" d="M276.2,131.2c-2.9,0-5.3-2.4-5.3-5.3V31.4H73.3v85.8c0,2.9-2.4,5.3-5.3,5.3s-5.3-2.4-5.3-5.3V26.1
			c0-2.9,2.4-5.3,5.3-5.3h208.2c2.9,0,5.3,2.4,5.3,5.3v99.8C281.5,128.8,279.1,131.2,276.2,131.2z M71.4,29.5h201.4v96.4
			c0,1.9,1.5,3.4,3.4,3.4s3.4-1.5,3.4-3.4V26.1c0-1.9-1.5-3.4-3.4-3.4H68c-1.9,0-3.4,1.5-3.4,3.4v91.1c0,1.9,1.5,3.4,3.4,3.4
			s3.4-1.5,3.4-3.4V29.5z"/>
	</g>
	<g>
		<path class="st0" d="M137.4,273.4H72.3v-91.1c0-2.4-1.9-4.3-4.3-4.3s-4.3,1.9-4.3,4.3v95.4c0,2.4,1.9,4.3,4.3,4.3h69.4
			c2.4,0,4.3-1.9,4.3-4.3C141.7,275.3,139.8,273.4,137.4,273.4z"/>
		<path class="st0" d="M137.4,283H68c-2.9,0-5.3-2.4-5.3-5.3v-95.4c0-2.9,2.4-5.3,5.3-5.3s5.3,2.4,5.3,5.3v90.1h64.1
			c2.9,0,5.3,2.4,5.3,5.3S140.3,283,137.4,283z M68,178.9c-1.9,0-3.4,1.5-3.4,3.4v95.4c0,1.9,1.5,3.4,3.4,3.4h69.4
			c1.9,0,3.4-1.5,3.4-3.4s-1.5-3.4-3.4-3.4h-66v-92C71.4,180.4,69.9,178.9,68,178.9z"/>
	</g>
	<g>
		<path class="st0" d="M276.2,182.3c-2.4,0-4.3,1.9-4.3,4.3v86.8h-43.4c-2.4,0-4.3,1.9-4.3,4.3c0,2.4,1.9,4.3,4.3,4.3h47.7
			c2.4,0,4.3-1.9,4.3-4.3v-91.1C280.5,184.2,278.6,182.3,276.2,182.3z"/>
		<path class="st0" d="M276.2,283h-47.7c-2.9,0-5.3-2.4-5.3-5.3s2.4-5.3,5.3-5.3h42.4v-85.8c0-2.9,2.4-5.3,5.3-5.3s5.3,2.4,5.3,5.3
			v91.1C281.5,280.6,279.1,283,276.2,283z M228.5,274.3c-1.9,0-3.4,1.5-3.4,3.4s1.5,3.4,3.4,3.4h47.7c1.9,0,3.4-1.5,3.4-3.4v-91.1
			c0-1.9-1.5-3.4-3.4-3.4s-3.4,1.5-3.4,3.4v87.7H228.5z"/>
	</g>
	<g>
		<path class="st0" d="M85.3,65.2c0,12,9.7,21.7,21.7,21.7c12,0,21.7-9.7,21.7-21.7S119,43.5,107,43.5
			C95.1,43.5,85.3,53.2,85.3,65.2z M120,65.2c0,7.2-5.8,13-13,13c-7.2,0-13-5.8-13-13c0-7.2,5.8-13,13-13
			C114.2,52.1,120,58,120,65.2z"/>
		<path class="st0" d="M107,87.8c-12.5,0-22.6-10.2-22.6-22.6S94.5,42.5,107,42.5s22.6,10.2,22.6,22.6S119.5,87.8,107,87.8z
			 M107,44.4c-11.4,0-20.7,9.3-20.7,20.7s9.3,20.7,20.7,20.7s20.7-9.3,20.7-20.7S118.5,44.4,107,44.4z M107,79.1
			c-7.7,0-14-6.3-14-14s6.3-14,14-14c7.7,0,14,6.3,14,14S114.7,79.1,107,79.1z M107,53.1c-6.6,0-12.1,5.4-12.1,12.1
			s5.4,12.1,12.1,12.1s12.1-5.4,12.1-12.1S113.7,53.1,107,53.1z"/>
	</g>
	<g>
		<path class="st0" d="M245.8,47.8h-69.4c-2.4,0-4.3,1.9-4.3,4.3c0,2.4,1.9,4.3,4.3,4.3h69.4c2.4,0,4.3-1.9,4.3-4.3
			C250.2,49.7,248.2,47.8,245.8,47.8z"/>
		<path class="st0" d="M245.8,57.4h-69.4c-2.9,0-5.3-2.4-5.3-5.3s2.4-5.3,5.3-5.3h69.4c2.9,0,5.3,2.4,5.3,5.3S248.8,57.4,245.8,57.4
			z M176.4,48.8c-1.9,0-3.4,1.5-3.4,3.4c0,1.9,1.5,3.4,3.4,3.4h69.4c1.9,0,3.4-1.5,3.4-3.4c0-1.9-1.5-3.4-3.4-3.4H176.4z"/>
	</g>
	<g>
		<path class="st0" d="M215.5,73.8c0-2.4-1.9-4.3-4.3-4.3h-52.1c-2.4,0-4.3,1.9-4.3,4.3c0,2.4,1.9,4.3,4.3,4.3h52.1
			C213.5,78.2,215.5,76.2,215.5,73.8z"/>
		<path class="st0" d="M211.1,79.1h-52.1c-2.9,0-5.3-2.4-5.3-5.3s2.4-5.3,5.3-5.3h52.1c2.9,0,5.3,2.4,5.3,5.3S214.1,79.1,211.1,79.1
			z M159.1,70.4c-1.9,0-3.4,1.5-3.4,3.4s1.5,3.4,3.4,3.4h52.1c1.9,0,3.4-1.5,3.4-3.4s-1.5-3.4-3.4-3.4H159.1z"/>
	</g>
	<g>
		<path class="st0" d="M146.1,91.2c-2.4,0-4.3,1.9-4.3,4.3c0,2.4,1.9,4.3,4.3,4.3h30.4c2.4,0,4.3-1.9,4.3-4.3c0-2.4-1.9-4.3-4.3-4.3
			H146.1z"/>
		<path class="st0" d="M176.4,100.8h-30.4c-2.9,0-5.3-2.4-5.3-5.3s2.4-5.3,5.3-5.3h30.4c2.9,0,5.3,2.4,5.3,5.3
			S179.4,100.8,176.4,100.8z M146.1,92.1c-1.9,0-3.4,1.5-3.4,3.4c0,1.9,1.5,3.4,3.4,3.4h30.4c1.9,0,3.4-1.5,3.4-3.4
			c0-1.9-1.5-3.4-3.4-3.4H146.1z"/>
	</g>
	<g>
		<path class="st0" d="M219.8,99.9h21.7c2.4,0,4.3-1.9,4.3-4.3c0-2.4-1.9-4.3-4.3-4.3h-21.7c-2.4,0-4.3,1.9-4.3,4.3
			C215.5,97.9,217.4,99.9,219.8,99.9z"/>
		<path class="st0" d="M241.5,100.8h-21.7c-2.9,0-5.3-2.4-5.3-5.3s2.4-5.3,5.3-5.3h21.7c2.9,0,5.3,2.4,5.3,5.3
			S244.4,100.8,241.5,100.8z M219.8,92.1c-1.9,0-3.4,1.5-3.4,3.4c0,1.9,1.5,3.4,3.4,3.4h21.7c1.9,0,3.4-1.5,3.4-3.4
			c0-1.9-1.5-3.4-3.4-3.4H219.8z"/>
	</g>
	<g>
		<path class="st0" d="M193.8,91.2c-2.4,0-4.3,1.9-4.3,4.3c0,2.4,1.9,4.3,4.3,4.3h8.7c2.4,0,4.3-1.9,4.3-4.3c0-2.4-1.9-4.3-4.3-4.3
			H193.8z"/>
		<path class="st0" d="M202.5,100.8h-8.7c-2.9,0-5.3-2.4-5.3-5.3s2.4-5.3,5.3-5.3h8.7c2.9,0,5.3,2.4,5.3,5.3
			S205.4,100.8,202.5,100.8z M193.8,92.1c-1.9,0-3.4,1.5-3.4,3.4c0,1.9,1.5,3.4,3.4,3.4h8.7c1.9,0,3.4-1.5,3.4-3.4
			c0-1.9-1.5-3.4-3.4-3.4H193.8z"/>
	</g>
	<g>
		<path class="st0" d="M250.2,73.8c0-2.4-1.9-4.3-4.3-4.3h-17.4c-2.4,0-4.3,1.9-4.3,4.3c0,2.4,1.9,4.3,4.3,4.3h17.4
			C248.2,78.2,250.2,76.2,250.2,73.8z"/>
		<path class="st0" d="M245.8,79.1h-17.4c-2.9,0-5.3-2.4-5.3-5.3s2.4-5.3,5.3-5.3h17.4c2.9,0,5.3,2.4,5.3,5.3S248.8,79.1,245.8,79.1
			z M228.5,70.4c-1.9,0-3.4,1.5-3.4,3.4s1.5,3.4,3.4,3.4h17.4c1.9,0,3.4-1.5,3.4-3.4s-1.5-3.4-3.4-3.4H228.5z"/>
	</g>
	<g>
		<path class="st0" d="M89.7,251.7H107c2.4,0,4.3-1.9,4.3-4.3s-1.9-4.3-4.3-4.3H89.7c-2.4,0-4.3,1.9-4.3,4.3S87.3,251.7,89.7,251.7z
			"/>
		<path class="st0" d="M107,252.6H89.7c-2.9,0-5.3-2.4-5.3-5.3s2.4-5.3,5.3-5.3H107c2.9,0,5.3,2.4,5.3,5.3S109.9,252.6,107,252.6z
			 M89.7,244c-1.9,0-3.4,1.5-3.4,3.4s1.5,3.4,3.4,3.4H107c1.9,0,3.4-1.5,3.4-3.4s-1.5-3.4-3.4-3.4H89.7z"/>
	</g>
	<g>
		<path class="st0" d="M94,230c0,2.4-1.9,4.3-4.3,4.3c-2.4,0-4.3-1.9-4.3-4.3s1.9-4.3,4.3-4.3C92.1,225.6,94,227.6,94,230z"/>
		<path class="st0" d="M89.7,235.3c-2.9,0-5.3-2.4-5.3-5.3s2.4-5.3,5.3-5.3s5.3,2.4,5.3,5.3S92.6,235.3,89.7,235.3z M89.7,226.6
			c-1.9,0-3.4,1.5-3.4,3.4s1.5,3.4,3.4,3.4s3.4-1.5,3.4-3.4S91.5,226.6,89.7,226.6z"/>
	</g>
	<g>
		<path class="st0" d="M254.5,251.7c0,2.4-1.9,4.3-4.3,4.3s-4.3-1.9-4.3-4.3s1.9-4.3,4.3-4.3S254.5,249.3,254.5,251.7z"/>
		<path class="st0" d="M250.2,257c-2.9,0-5.3-2.4-5.3-5.3s2.4-5.3,5.3-5.3s5.3,2.4,5.3,5.3S253.1,257,250.2,257z M250.2,248.3
			c-1.9,0-3.4,1.5-3.4,3.4s1.5,3.4,3.4,3.4s3.4-1.5,3.4-3.4S252,248.3,250.2,248.3z"/>
	</g>
	<g>
		<path class="st0" d="M300.9,131c-0.8-0.8-1.9-1.3-3.1-1.3s-2.3,0.5-3.1,1.3l-42.9,42.9l-24.5-24.6l18.5-18.4
			c1.5-1.7,1.4-4.3-0.2-5.9c-1.6-1.6-4.2-1.7-5.9-0.2l-18.6,18.3L208.9,131l15.2-15.3c1.5-1.7,1.4-4.3-0.2-5.9
			c-1.6-1.6-4.2-1.7-5.9-0.2l-18.4,18.4c-0.8,0.8-1.3,1.9-1.3,3.1c0,1.2,0.5,2.3,1.3,3.1l6.2,6.1l-6.2,6.2
			c-7.3-7.3-18.7-8.4-27.3-2.8l-3.4-3.4c-4.1-4.1-9.6-6.3-15.3-6.3c-2.7,0-5.4,0.5-7.9,1.5l-7.4-7.4l3.1-3c0.8-0.8,1.3-1.9,1.3-3.1
			c0-1.2-0.5-2.3-1.3-3.1l-18.2-18.1c-1.7-1.7-4.4-1.7-6.1,0c-1.7,1.7-1.7,4.4,0,6.1l15.1,15.1l-3.1,3l-21.7,21.5L92.1,131
			c-0.8-0.8-1.9-1.3-3.1-1.3c-1.2,0-2.3,0.5-3.1,1.3c-1.7,1.7-1.7,4.4,0,6.1l15.4,15.4l-6.2,6.1l-5.8,6.4l-39.9-40
			c-0.8-0.8-1.9-1.3-3.1-1.3c-1.2,0-2.3,0.5-3.1,1.3c-1.7,1.7-1.7,4.4,0,6.1l42.9,42.9c0.8,0.8,1.9,1.3,3.1,1.3
			c1.2,0,2.3-0.4,3.1-1.3l6-6.1l6.1,6.1c-8.5,8.5-8.5,22.2,0,30.7l15.9,15.9c-2.4,5-1.3,10.9,2.6,14.8c2.2,2.3,5.3,3.7,8.5,3.8
			c0.4,6.6,5.7,11.9,12.3,12.2c0.4,6.6,5.7,11.9,12.3,12.3c0.1,3.3,1.5,6.4,3.8,8.7c3.9,3.9,9.9,4.9,14.8,2.5l3.6,3.6
			c3.6,3.6,9.1,4.8,13.8,3c4.8-1.8,8.1-6.3,8.4-11.4c6.6-0.4,11.9-5.7,12.3-12.3c6.6-0.4,11.9-5.7,12.3-12.3
			c3.3-0.1,6.4-1.5,8.7-3.8c2.5-2.4,3.8-5.8,3.8-9.2c0-3.5-1.4-6.8-3.8-9.2l-3.1-3l6.2-6.2c7.3-7.3,8.4-18.8,2.7-27.4l6.5-6.5
			l3.1,3.1c1.7,1.7,4.4,1.7,6.1,0l45.9-46C302.6,135.4,302.6,132.7,300.9,131z M104.6,161.7l27.6-27.6l6.1,6.1l-27.6,27.6
			L104.6,161.7z M107,189.3c0-3.5,1.4-6.8,3.8-9.2l33.7-33.7c5.2-4.9,13.2-4.9,18.4,0l27.6,27.6c1.5,1.7,1.4,4.3-0.2,5.9
			c-1.6,1.6-4.2,1.7-5.9,0.2l-20-20c-1.7-1.7-4.5-1.7-6.2,0c-1.7,1.7-1.7,4.5,0,6.2l7.8,7.7l-39.9,39.9l-15.3-15.3
			C108.4,196,107,192.7,107,189.3z M190.5,272.1c-1.7,1.7-4.4,1.7-6.1,0l-3.1-3.1l6.2-6.1l3,3c0.8,0.8,1.3,1.9,1.3,3.1
			C191.8,270.2,191.3,271.3,190.5,272.1z M202.8,259.8c-1.7,1.7-4.4,1.7-6.1,0l-2.9-3.1l6.1-6.1l1,1l2,2.1c0.8,0.8,1.3,1.9,1.3,3
			C204.2,257.9,203.7,259,202.8,259.8z M215,247.6c-1.7,1.7-4.4,1.7-6.1,0l-3.1-3.1l6.1-6.1l3.1,3.1
			C216.7,243.1,216.7,245.9,215,247.6z M227.3,229.2c1.7,1.7,1.7,4.4,0,6.1c-0.8,0.8-1.9,1.3-3.1,1.3s-2.3-0.5-3.1-1.3l-3-3.1l6-6.1
			L227.3,229.2z M230.4,207.5l-9.2,9.5l-3,3.1l-46.1,45.9c-1.7,1.7-4.4,1.7-6.1,0c-1.7-1.7-1.7-4.4,0-6.1l27.8-27.6
			c1.2-1.1,1.8-2.7,1.4-4.3c-0.4-1.6-1.6-2.8-3.2-3.2c-1.6-0.4-3.2,0.2-4.3,1.4L160,253.7c-1.7,1.5-4.3,1.4-5.9-0.2
			c-1.6-1.6-1.7-4.2-0.2-5.9l27.6-27.6c0.8-0.8,1.3-1.9,1.3-3.1s-0.5-2.3-1.3-3.1c-1.7-1.7-4.4-1.7-6.1,0l-27.6,27.6
			c-1.7,1.7-4.4,1.7-6.1,0c-0.8-0.8-1.3-1.9-1.3-3.1c0-1.2,0.5-2.3,1.3-3.1l27.6-27.6c0.8-0.8,1.3-1.9,1.3-3.1s-0.5-2.3-1.3-3.1
			c-1.7-1.7-4.4-1.7-6.1,0l-27.6,27.6c-1.7,1.7-4.4,1.7-6.1,0c-1.7-1.7-1.7-4.4,0-6.1l42.9-42.9l6.1,6.2c2.4,2.5,5.8,3.8,9.2,3.8
			c3.5,0,6.8-1.4,9.2-3.8c5.1-5.1,5.1-13.3,0-18.4L179,149.9c5-2.4,10.9-1.3,14.8,2.6l36.8,36.8c5,5.1,4.9,13.4-0.2,18.4V207.5z
			 M233.4,179.8l-27.6-27.6l6.1-6.1l27.6,27.6L233.4,179.8z"/>
		<path class="st0" d="M187.3,283.2c-3.6,0-7.2-1.4-9.9-4.1l-3.1-3.1c-5.2,2.2-11.3,1-15.3-3c-2.3-2.3-3.7-5.3-4-8.5
			c-6.4-0.7-11.5-5.8-12.3-12.3c-6.4-0.7-11.5-5.8-12.3-12.2c-3.1-0.4-6-1.8-8.3-4c-4-4-5.2-10.1-3-15.2l-15.4-15.4
			c-8.6-8.6-8.8-22.5-0.7-31.3l-4.8-4.8l-5.3,5.4c-1,1-2.3,1.5-3.7,1.5c0,0,0,0-0.1,0c-1.4,0-2.7-0.6-3.7-1.5l-42.9-42.9
			c-2-2.1-2-5.4,0-7.5c1-1,2.4-1.6,3.8-1.6c1.4,0,2.8,0.6,3.8,1.6l39.2,39.3l5.1-5.6l5.5-5.5l-14.7-14.7c-2-2.1-2-5.4,0-7.5
			c1-1,2.3-1.6,3.8-1.6c1.4,0,2.8,0.6,3.8,1.6l14.6,14.7l23.4-23.2l-14.4-14.4c-2-2.1-2-5.4,0-7.5c2.1-2,5.4-2,7.5,0l18.2,18.1
			c1,1,1.6,2.4,1.6,3.8c0,1.4-0.6,2.8-1.6,3.8l-2.4,2.4l6.3,6.3c2.5-0.9,5.1-1.3,7.7-1.3c6,0,11.7,2.4,16,6.6l2.8,2.8
			c8.6-5.2,19.7-4.1,27.1,2.7l4.8-4.8l-5.5-5.4c-1-1-1.6-2.4-1.6-3.8c0-1.4,0.6-2.8,1.6-3.8l18.4-18.4c2.1-1.8,5.3-1.7,7.2,0.2
			c1.9,1.9,2.1,5.1,0.3,7.2L210.3,131l10.9,10.9l17.9-17.7c2.1-1.8,5.3-1.7,7.2,0.2c1.9,1.9,2.1,5.1,0.3,7.2l-17.9,17.8l23.2,23.2
			l42.3-42.3c1-1,2.4-1.6,3.8-1.6c1.4,0,2.8,0.6,3.8,1.6l0,0c2,2.1,2,5.4,0,7.5l-45.9,46c-2.1,2-5.4,2-7.5,0l-2.4-2.4l-5.3,5.3
			c5.5,8.9,4.2,20.5-3.2,27.9l-5.5,5.5l2.4,2.4c2.7,2.6,4.1,6.2,4.1,9.9c0,3.7-1.5,7.3-4.1,9.9c-2.3,2.3-5.3,3.7-8.5,4
			c-0.7,6.4-5.8,11.5-12.3,12.3c-0.7,6.4-5.8,11.5-12.3,12.3c-0.6,5.1-4,9.6-8.9,11.4C190.7,282.9,189,283.2,187.3,283.2z
			 M174.7,273.6l4,4.1c3.4,3.4,8.4,4.4,12.8,2.8c4.4-1.7,7.5-5.9,7.7-10.6l0-0.9l0.9,0c6.1-0.3,11-5.2,11.4-11.4l0-0.9l0.9,0
			c6.1-0.3,11-5.2,11.4-11.4l0-0.9l0.9,0c3-0.1,5.9-1.4,8-3.5c2.3-2.3,3.5-5.3,3.5-8.5c0-3.2-1.3-6.3-3.5-8.5l-3.8-3.7l6.8-6.8
			c7-7,8-18,2.6-26.2l-0.4-0.7l7.8-7.8l3.8,3.8c1.3,1.3,3.5,1.3,4.8,0l45.9-46c1.3-1.3,1.3-3.5,0-4.8l0,0c-1.3-1.3-3.5-1.3-4.8,0
			l-43.6,43.6L226,149.4l19.2-19.1c1.1-1.3,1-3.3-0.2-4.5c-1.2-1.2-3.3-1.3-4.6-0.2l-19.2,19L207.6,131l15.9-16
			c1.1-1.3,1-3.3-0.2-4.5c-1.2-1.2-3.3-1.3-4.6-0.2l-18.4,18.3c-0.6,0.6-1,1.5-1,2.4c0,0.9,0.4,1.8,1,2.4l6.8,6.8l-7.5,7.5l-0.7-0.7
			c-6.9-6.9-17.9-8.1-26.1-2.7l-0.6,0.4l-3.9-3.9c-3.9-3.9-9.1-6.1-14.6-6.1c-2.6,0-5.2,0.5-7.6,1.4l-0.6,0.2l-8.5-8.5l3.8-3.7
			c0.6-0.6,1-1.5,1-2.4c0-0.9-0.4-1.8-1-2.4l-18.2-18.1c-1.3-1.3-3.5-1.3-4.8,0c-1.3,1.3-1.3,3.5,0,4.8l15.8,15.8l-3.8,3.7
			l-22.4,22.1l-16-16c-1.3-1.3-3.5-1.3-4.8,0c-1.3,1.3-1.3,3.5,0,4.8l16,16l-6.8,6.8l-6.5,7.1l-40.6-40.7c-0.6-0.6-1.5-1-2.4-1
			c-0.9,0-1.8,0.4-2.4,1c-1.3,1.3-1.3,3.5,0,4.8l42.9,42.9c0.6,0.6,1.5,1,2.4,1c0,0,0,0,0,0c0.9,0,1.8-0.3,2.4-1l6.6-6.8l7.5,7.5
			l-0.7,0.7c-8.1,8.1-8.1,21.2,0,29.3l16.4,16.4l-0.3,0.6c-2.2,4.6-1.2,10.1,2.4,13.7c2.1,2.1,4.9,3.4,7.8,3.5l0.9,0l0,0.9
			c0.4,6.1,5.2,11,11.4,11.3l0.9,0l0,0.9c0.3,6.1,5.2,11,11.4,11.4l0.9,0l0,0.9c0.1,3,1.4,5.9,3.5,8c3.6,3.6,9.1,4.5,13.7,2.3
			L174.7,273.6z M187.4,274.3c-1.4,0-2.7-0.5-3.7-1.5l-3.8-3.8l7.5-7.5l3.7,3.7c1,1,1.6,2.4,1.6,3.8s-0.6,2.8-1.6,3.8l0,0
			C190.1,273.8,188.8,274.3,187.4,274.3z M182.6,269l2.4,2.4c1.3,1.3,3.5,1.3,4.8,0l0,0c0.6-0.6,1-1.5,1-2.4s-0.4-1.8-1-2.4
			l-2.4-2.4L182.6,269z M169,268.2c-1.4,0-2.7-0.5-3.7-1.5c-2.1-2.1-2.1-5.4,0-7.5l27.8-27.6c1-0.9,1.4-2.2,1.1-3.4
			c-0.3-1.2-1.3-2.2-2.5-2.5c-1.2-0.3-2.5,0.1-3.4,1.1l-27.7,27.6c-2.1,1.8-5.3,1.7-7.2-0.2c-1.9-1.9-2.1-5.1-0.3-7.2l27.6-27.6
			c0.6-0.6,1-1.5,1-2.4c0-0.9-0.4-1.8-1-2.4c-1.3-1.3-3.5-1.3-4.8,0l-27.6,27.6c-2.1,2-5.4,2-7.5,0c-1-1-1.6-2.3-1.6-3.8
			c0-1.4,0.6-2.8,1.6-3.8l27.6-27.6c0.6-0.6,1-1.5,1-2.4c0-0.9-0.4-1.8-1-2.4c-1.3-1.3-3.5-1.3-4.8,0l-27.6,27.6
			c-2.1,2.1-5.4,2-7.5,0c-2.1-2.1-2-5.4,0-7.5l43.6-43.6l6.8,6.8c2.2,2.3,5.4,3.5,8.5,3.5c3.2,0,6.3-1.3,8.5-3.5
			c4.7-4.7,4.7-12.3,0-17l-18.8-18.9l1.2-0.6c5.3-2.5,11.7-1.4,15.9,2.7l36.8,36.8c5.4,5.5,5.3,14.4-0.2,19.7l-1.6,1.6v-0.1
			l-10.6,10.9l-46.1,45.9C171.7,267.6,170.4,268.2,169,268.2z M190.9,223.6c0.4,0,0.8,0,1.3,0.1c1.9,0.5,3.4,2,3.9,3.9
			c0.5,1.9-0.2,4-1.7,5.3l-27.8,27.6c-1.3,1.3-1.3,3.5,0,4.8c1.3,1.3,3.5,1.3,4.8,0l46.1-45.9l3-3.1l10.7-11
			c3.2-4.6,2.8-11.1-1.3-15.3l-36.8-36.8c-3.3-3.3-8.1-4.4-12.4-2.9l16.9,16.9c5.4,5.4,5.4,14.3,0,19.7c-2.6,2.6-6.2,4.1-9.9,4.1
			c-3.7,0-7.3-1.5-9.9-4.1l-5.4-5.5L130,223.7c-1.3,1.3-1.3,3.5,0,4.8c1.3,1.3,3.5,1.3,4.8,0l27.6-27.6c2.1-2,5.4-2,7.5,0
			c1,1,1.6,2.3,1.6,3.8c0,1.4-0.6,2.8-1.6,3.8L142.3,236c-0.6,0.6-1,1.5-1,2.4c0,0.9,0.4,1.8,1,2.4c1.3,1.3,3.5,1.3,4.8,0l27.6-27.6
			c2.1-2,5.4-2,7.5,0c1,1,1.6,2.4,1.6,3.8c0,1.4-0.6,2.8-1.6,3.8l-27.6,27.6c-1.1,1.3-1,3.3,0.2,4.5c1.2,1.2,3.3,1.3,4.6,0.2
			l27.6-27.5C188,224.3,189.4,223.6,190.9,223.6z M199.7,262c-1.4,0-2.7-0.5-3.7-1.5l-3.5-3.8l7.4-7.4l1.7,1.6l2.1,2.1
			c1,1,1.5,2.3,1.5,3.7c-0.1,1.5-0.7,2.8-1.8,3.8C202.4,261.5,201,262,199.7,262z M195.1,256.8l2.2,2.4c1.3,1.3,3.4,1.3,4.7,0l0,0
			c0.7-0.6,1.1-1.5,1.1-2.4c0-0.8-0.4-1.7-1-2.3l-2.4-2.4L195.1,256.8z M212,249.8c-1.4,0-2.7-0.5-3.7-1.5l-3.8-3.8l7.5-7.5l3.8,3.8
			c2,2.1,2,5.4,0,7.5l0,0C214.7,249.3,213.3,249.8,212,249.8z M207.2,244.5l2.4,2.4c1.3,1.3,3.5,1.3,4.8,0c1.3-1.3,1.3-3.5,0-4.8
			l-2.4-2.4L207.2,244.5z M224.2,237.5c-1.4,0-2.8-0.6-3.8-1.6l-3.7-3.8l7.4-7.5l3.9,3.8c2,2.1,2,5.4,0,7.5
			C227,236.9,225.6,237.5,224.2,237.5z M219.5,232.2l2.4,2.4c0.6,0.6,1.5,1,2.4,1c0.9,0,1.8-0.4,2.4-1c1.3-1.3,1.3-3.5,0-4.8
			l-2.5-2.4L219.5,232.2z M126.1,215.2l-16-16c-2.6-2.7-4-6.2-4-9.9l0,0c0-3.7,1.5-7.3,4.1-9.9l33.7-33.7c5.5-5.3,14.2-5.3,19.7,0
			l27.6,27.6c1.8,2.1,1.7,5.3-0.2,7.2c-1.9,1.9-5.1,2.1-7.2,0.3l-20.1-20c-0.7-0.7-1.5-1-2.4-1c0,0,0,0,0,0c-0.9,0-1.8,0.4-2.4,1
			c-0.7,0.6-1,1.5-1,2.4c0,0.9,0.4,1.8,1,2.4l8.4,8.4L126.1,215.2z M153.8,143.6c-3.1,0-6.1,1.1-8.5,3.4l-33.7,33.7
			c-2.3,2.3-3.5,5.4-3.5,8.6v0c0,3.2,1.2,6.2,3.5,8.5l14.6,14.6l38.6-38.5l-7.1-7c-1-1-1.6-2.4-1.6-3.8c0-1.4,0.6-2.8,1.6-3.8
			c1-1,2.3-1.6,3.8-1.6c0,0,0,0,0,0c1.4,0,2.8,0.6,3.8,1.6l20,20c1.3,1.1,3.3,1,4.5-0.2c1.2-1.2,1.3-3.3,0.2-4.6L162.3,147
			C159.9,144.7,156.9,143.6,153.8,143.6z M233.4,181.2l-28.9-28.9l7.5-7.5l29,28.9L233.4,181.2z M207.2,152.3l26.2,26.2l4.8-4.8
			L212,147.5L207.2,152.3z M110.8,169.2l-7.5-7.5l29-28.9l7.5,7.5L110.8,169.2z M106,161.7l4.8,4.8l26.2-26.3l-4.8-4.8L106,161.7z"
			/>
	</g>
</g>
</svg>
