<?xml version="1.0" encoding="utf-8"?>
<!-- Generator: Adobe Illustrator 23.0.4, SVG Export Plug-In . SVG Version: 6.00 Build 0)  -->
<svg version="1.1" id="Layer_1" xmlns="http://www.w3.org/2000/svg" xmlns:xlink="http://www.w3.org/1999/xlink" x="0px" y="0px"
	 viewBox="0 0 338 307.9" style="enable-background:new 0 0 338 307.9;" xml:space="preserve">
<style type="text/css">
	.st0{fill:#ED390B;}
	.st1{fill:#FFFFFF;}
</style>
<g>
	<g>
		<g>
			<g>
				<path class="st0" d="M261.1,47.8H69.7c-16.2,0-29.3,13.1-29.3,29.3v125c0,16.2,13.1,29.3,29.3,29.3h191.4
					c16.2,0,29.3-13.1,29.3-29.3v-125C290.4,60.9,277.2,47.8,261.1,47.8z M270.8,202.1c0,5.4-4.4,9.8-9.8,9.8H69.7
					c-5.4,0-9.8-4.4-9.8-9.8v-83h210.9V202.1z M270.8,89.8H59.9V77.1c0-5.4,4.4-9.8,9.8-9.8h191.4c5.4,0,9.8,4.4,9.8,9.8V89.8z"/>
			</g>
		</g>
	</g>
	<g>
		<g>
			<g>
				<rect x="73.6" y="133.7" class="st0" width="128.9" height="19.5"/>
			</g>
		</g>
	</g>
</g>
<g>
	<circle class="st1" cx="257.1" cy="211.8" r="43.1"/>
	<path class="st0" d="M257.1,263.5c-28.5,0-51.6-23.2-51.6-51.6s23.2-51.6,51.6-51.6s51.6,23.2,51.6,51.6S285.6,263.5,257.1,263.5z
		 M257.1,177.3c-19,0-34.5,15.5-34.5,34.5s15.5,34.5,34.5,34.5s34.5-15.5,34.5-34.5S276.1,177.3,257.1,177.3z"/>
</g>
<g>
	<path class="st0" d="M277.2,197.4c1.4,1.4,1.4,3.6,0,5l-23.8,23.8c-1.4,1.4-3.6,1.4-5,0L237,214.9c-1.4-1.4-1.4-3.6,0-5
		c1.4-1.4,3.6-1.4,5,0l8.8,8.8l21.3-21.3C273.6,196,275.8,196,277.2,197.4z"/>
</g>
</svg>
