<?xml version="1.0" encoding="utf-8"?>
<!-- Generator: Adobe Illustrator 23.0.4, SVG Export Plug-In . SVG Version: 6.00 Build 0)  -->
<svg version="1.1" id="Layer_1" xmlns="http://www.w3.org/2000/svg" xmlns:xlink="http://www.w3.org/1999/xlink" x="0px" y="0px"
	 viewBox="0 0 338 307.9" style="enable-background:new 0 0 338 307.9;" xml:space="preserve">
<style type="text/css">
	.st0{fill:#ED390B;}
	.st1{fill:#FFFFFF;}
</style>
<g>
	<g>
		<g>
			<path class="st0" d="M125.1,84.2c0-16.7-13.6-30.2-30.2-30.2S64.6,67.5,64.6,84.2s13.6,30.2,30.2,30.2S125.1,100.9,125.1,84.2z
				 M94.8,99.3c-8.3,0-15.1-6.8-15.1-15.1s6.8-15.1,15.1-15.1s15.1,6.8,15.1,15.1S103.1,99.3,94.8,99.3z"/>
		</g>
		<g>
			<path class="st0" d="M27.1,65.8c-5,10.1-7.9,21.5-7.9,33.5c0,41.7,33.9,75.6,75.6,75.6c41.9,0,75.6-34.2,75.6-75.6
				c0-41.7-33.9-75.6-75.6-75.6c-24.2,0-45.9,11.5-59.7,29.3C31.9,56.8,27.1,65.8,27.1,65.8z M34.3,99.3c0-33.4,27.1-60.5,60.5-60.5
				s60.5,27.1,60.5,60.5c0,17-7.1,32.4-18.4,43.4c-6.9-16.9-23.3-28.3-42-28.3c-18.7,0-35.2,11.4-42,28.3
				C41.4,131.8,34.3,116.4,34.3,99.3z M65.5,152.2c3.4-13.2,15.2-22.7,29.3-22.7s25.9,9.5,29.3,22.7c-8.7,4.8-18.7,7.6-29.3,7.6
				S74.2,157.1,65.5,152.2z"/>
		</g>
	</g>
	<g>
		<g>
			<path class="st0" d="M274.9,196.5c0-16.7-13.6-30.2-30.2-30.2s-30.2,13.6-30.2,30.2s13.6,30.2,30.2,30.2S274.9,213.1,274.9,196.5
				z M244.6,211.6c-8.3,0-15.1-6.8-15.1-15.1s6.8-15.1,15.1-15.1s15.1,6.8,15.1,15.1S252.9,211.6,244.6,211.6z"/>
		</g>
		<g>
			<path class="st0" d="M176.9,178c-5,10.1-7.9,21.5-7.9,33.5c0,41.7,33.9,75.6,75.6,75.6c41.9,0,75.6-34.2,75.6-75.6
				c0-41.7-33.9-75.6-75.6-75.6c-24.2,0-45.9,11.5-59.7,29.3C181.7,169,176.9,178,176.9,178z M184.1,211.6
				c0-33.4,27.1-60.5,60.5-60.5s60.5,27.1,60.5,60.5c0,17-7.1,32.4-18.4,43.4c-6.9-16.9-23.3-28.3-42-28.3
				c-18.7,0-35.2,11.4-42,28.3C191.2,244,184.1,228.6,184.1,211.6z M215.3,264.5c3.4-13.2,15.2-22.7,29.3-22.7s25.9,9.5,29.3,22.7
				c-8.7,4.8-18.7,7.6-29.3,7.6C234,272.1,224,269.3,215.3,264.5z"/>
		</g>
	</g>
	<g>
		<line class="st0" x1="147.8" y1="143.5" x2="185.6" y2="181.3"/>
		
			<rect x="157.4" y="135.7" transform="matrix(0.7071 -0.7071 0.7071 0.7071 -66.0475 165.4228)" class="st0" width="18.5" height="53.4"/>
	</g>
</g>
</svg>
