<?xml version="1.0" encoding="utf-8"?>
<!-- Generator: Adobe Illustrator 23.0.4, SVG Export Plug-In . SVG Version: 6.00 Build 0)  -->
<svg version="1.1" id="Layer_1" xmlns="http://www.w3.org/2000/svg" xmlns:xlink="http://www.w3.org/1999/xlink" x="0px" y="0px"
	 viewBox="0 0 338 307.9" style="enable-background:new 0 0 338 307.9;" xml:space="preserve">
<style type="text/css">
	.st0{fill:#ED390B;}
	.st1{fill:#FFFFFF;}
</style>
<g>
	<g>
		<g>
			<path class="st0" d="M224.5,124.1c0-27.8-22.6-50.5-50.5-50.5s-50.5,22.6-50.5,50.5s22.6,50.5,50.5,50.5S224.5,151.9,224.5,124.1
				z M174,149.3c-13.9,0-25.2-11.3-25.2-25.2s11.3-25.2,25.2-25.2s25.2,11.3,25.2,25.2S187.9,149.3,174,149.3z"/>
		</g>
		<g>
			<path class="st0" d="M61,93.4c-8.4,16.9-13.1,35.9-13.1,55.9c0,69.5,56.5,126.2,126.2,126.2c70,0,126.2-57,126.2-126.2
				c0-69.6-56.6-126.2-126.2-126.2c-40.5,0-76.5,19.1-99.6,48.8C69.1,78.4,61,93.4,61,93.4z M73.1,149.3
				c0-55.6,45.3-100.9,100.9-100.9S275,93.7,275,149.3c0,28.4-11.8,54.1-30.8,72.5c-11.4-28.2-38.9-47.3-70.2-47.3
				c-31.1,0-58.7,19-70.2,47.3C84.9,203.5,73.1,177.8,73.1,149.3z M125.2,237.6c5.6-22,25.4-37.8,48.9-37.8s43.3,15.8,48.9,37.8
				c-14.5,8.1-31.2,12.6-48.9,12.6S139.6,245.7,125.2,237.6z"/>
		</g>
	</g>
	<g>
		<circle class="st1" cx="84.4" cy="238.2" r="46.5"/>
		<path class="st0" d="M84.4,294c-30.8,0-55.8-25-55.8-55.8s25-55.8,55.8-55.8c30.8,0,55.8,25,55.8,55.8S115.1,294,84.4,294z
			 M84.4,200.9c-20.6,0-37.3,16.7-37.3,37.3c0,20.6,16.7,37.3,37.3,37.3s37.3-16.7,37.3-37.3C121.7,217.6,104.9,200.9,84.4,200.9z"
			/>
	</g>
	<g>
		<g>
			<rect x="78.6" y="217.1" class="st0" width="11.6" height="42.1"/>
		</g>
		<g>
			<rect x="63.3" y="232.4" class="st0" width="42.1" height="11.6"/>
		</g>
	</g>
</g>
</svg>
