<?xml version="1.0" encoding="utf-8"?>
<!-- Generator: Adobe Illustrator 23.0.4, SVG Export Plug-In . SVG Version: 6.00 Build 0)  -->
<svg version="1.1" id="Layer_1" xmlns="http://www.w3.org/2000/svg" xmlns:xlink="http://www.w3.org/1999/xlink" x="0px" y="0px"
	 viewBox="0 0 338 307.9" style="enable-background:new 0 0 338 307.9;" xml:space="preserve">
<style type="text/css">
	.st0{stroke:#000000;stroke-width:6;stroke-miterlimit:10;}
</style>
<g>
	<path class="st0" d="M300,151.5l-19.8-27.3l3.5-33.5c0.2-1.8-0.8-3.6-2.5-4.3l-30.8-13.7l-13.7-30.8c-0.8-1.7-2.5-2.7-4.3-2.5
		l-33.5,3.5L171.5,23c-1.5-1.1-3.5-1.1-5,0l-27.3,19.8l-33.5-3.5c-1.8-0.2-3.6,0.8-4.3,2.5L87.6,72.6L56.8,86.3
		c-1.7,0.7-2.7,2.5-2.5,4.3l3.5,33.5l-19.8,27.3c-1.1,1.5-1.1,3.5,0,5l19.8,27.3l-3.5,33.5c-0.2,1.8,0.8,3.6,2.5,4.3l30.8,13.7
		l13.7,30.8c0.8,1.7,2.5,2.7,4.3,2.5l33.5-3.5l27.3,19.8c1.5,1.1,3.5,1.1,5,0l27.3-19.8l33.5,3.5c1.8,0.2,3.6-0.8,4.3-2.5l13.7-30.8
		l30.8-13.7c1.7-0.7,2.7-2.5,2.5-4.3l-3.5-33.5l19.8-27.3C301,155,301,153,300,151.5z M272.3,180.1c-0.6,0.8-0.9,1.9-0.8,2.9
		l3.3,32.1l-29.5,13.1c-1,0.4-1.7,1.2-2.2,2.2l-13.1,29.5l-32.1-3.4c-1-0.1-2.1,0.2-2.9,0.8L169,276.3l-26.1-18.9
		c-0.7-0.5-1.6-0.8-2.5-0.8c-0.1,0-0.3,0-0.4,0l-32.1,3.4l-13.1-29.5c-0.4-1-1.2-1.7-2.2-2.2l-29.5-13.1l3.3-32.1
		c0.1-1-0.2-2.1-0.8-2.9L46.8,154l18.9-26.1c0.6-0.8,0.9-1.9,0.8-2.9l-3.3-32.1l29.5-13.1c1-0.4,1.7-1.2,2.2-2.2l13.1-29.5l32.1,3.4
		c1,0.1,2.1-0.2,2.9-0.8L169,31.7l26.1,18.9c0.8,0.6,1.9,0.9,2.9,0.8l32.1-3.4l13.1,29.5c0.4,1,1.2,1.7,2.2,2.2l29.5,13.1l-3.3,32.1
		c-0.1,1,0.2,2.1,0.8,2.9l18.9,26.1L272.3,180.1z"/>
	<path class="st0" d="M218.6,105.8c-1.7-1.7-4.3-1.7-6,0l-69.1,69.1l-21.1-21c-1.7-1.7-4.3-1.7-6,0l-12,12c-0.8,0.8-1.2,1.9-1.2,3
		s0.5,2.2,1.2,3l36.1,36.1c1.7,1.7,4.3,1.7,6,0l84.2-84.2c1.7-1.7,1.7-4.3,0-6L218.6,105.8z M143.5,199l-30.1-30.1l6-6l21.1,21
		c1.7,1.7,4.3,1.7,6,0l69.1-69.1l6,6L143.5,199z"/>
</g>
</svg>
