<?xml version="1.0" encoding="utf-8"?>
<!-- Generator: Adobe Illustrator 23.0.4, SVG Export Plug-In . SVG Version: 6.00 Build 0)  -->
<svg version="1.1" id="Layer_1" xmlns="http://www.w3.org/2000/svg" xmlns:xlink="http://www.w3.org/1999/xlink" x="0px" y="0px"
	 viewBox="0 0 883 576" style="enable-background:new 0 0 883 576;" xml:space="preserve">
<style type="text/css">
	.st0{fill:none;stroke:#006837;stroke-miterlimit:10;}
	.st1{fill:#445262;}
	.st2{clip-path:url(#SVGID_2_);fill:#445262;}
	.st3{clip-path:url(#SVGID_4_);fill:#616E7A;}
	.st4{fill:#FFFFFF;}
	.st5{font-family:'GothamRounded-Bold';}
	.st6{font-size:35.6591px;}
	.st7{letter-spacing:-2;}
	.st8{letter-spacing:-5;}
</style>
<g>
	<path class="st1" d="M214.5,256.7c0-7,1.1-13.2,3.3-18.6c2.2-5.4,5.2-9.9,9-13.5c3.8-3.6,8.3-6.4,13.5-8.3
		c5.2-1.9,10.7-2.8,16.8-2.8c6,0,11.6,0.9,16.7,2.8c5.2,1.9,9.7,4.6,13.5,8.3c3.9,3.6,6.9,8.1,9.1,13.5c2.2,5.4,3.3,11.6,3.3,18.6
		c0,7-1.1,13.2-3.2,18.6c-2.2,5.4-5.1,10-8.9,13.6c-3.8,3.6-8.3,6.4-13.5,8.3c-5.2,1.9-10.9,2.8-17,2.8c-6.1,0-11.8-1-17-2.9
		c-5.2-1.9-9.7-4.7-13.5-8.4c-3.8-3.7-6.7-8.2-8.9-13.6C215.6,269.8,214.5,263.7,214.5,256.7 M238.8,256.7c0,8.2,1.7,14.3,5,18.3
		c3.3,4,7.8,6.1,13.3,6.1c5.6,0,10.1-2,13.5-6.1c3.3-4,5-10.1,5-18.3c0-8.1-1.6-14.1-4.9-18.2c-3.3-4-7.7-6.1-13.4-6.1
		c-5.6,0-10,2-13.4,6C240.4,242.5,238.8,248.6,238.8,256.7"/>
	<path class="st1" d="M359,277.6c-1.2,1-2.7,1.8-4.5,2.4c-1.8,0.6-4,0.9-6.4,0.9c-3.2,0-5.9-0.4-8-1.2c-2.1-0.8-3.5-2.2-4.1-4.2
		c-2.5-7.9-4.6-14.3-6.2-19.2c-1.6-4.9-2.9-9.2-3.8-12.8h-0.7c-0.3,5.3-0.5,10.1-0.6,14.5c-0.1,4.4-0.2,8.6-0.3,12.7
		c0,4.1-0.1,8.3-0.3,12.5c-0.1,4.2-0.3,8.9-0.6,14c-1.2,0.4-2.7,0.8-4.6,1.1c-1.9,0.3-3.8,0.5-5.7,0.5c-3.9,0-7-0.6-9.2-1.9
		c-2.2-1.3-3.3-3.5-3.3-6.9l3.9-68.6c0.7-1.2,2.3-2.4,4.7-3.8c2.4-1.3,5.8-2,10.2-2c4.8,0,8.5,0.7,11.2,2.2c2.7,1.5,4.7,3.9,5.9,7.2
		c0.8,2.2,1.7,4.6,2.6,7.4c0.9,2.8,1.9,5.7,2.8,8.6c0.9,3,1.9,5.9,2.8,8.8c0.9,2.9,1.7,5.5,2.4,7.9h0.7c2.2-7.5,4.3-14.8,6.5-21.9
		c2.2-7,4.1-12.9,5.9-17.7c1.3-0.7,3.1-1.3,5.2-1.8c2.1-0.5,4.5-0.7,7.1-0.7c4.4,0,8,0.7,10.8,2c2.8,1.3,4.4,3.2,4.8,5.6
		c0.4,1.8,0.7,4.6,1.1,8.3c0.4,3.7,0.8,7.9,1.3,12.6c0.4,4.7,0.9,9.6,1.3,14.8c0.4,5.2,0.9,10.2,1.3,15c0.4,4.8,0.7,9.2,1,13.2
		c0.3,4,0.4,7.1,0.5,9.2c-1.5,0.9-3.1,1.5-4.8,2c-1.7,0.4-3.8,0.6-6.4,0.6c-3.4,0-6.3-0.6-8.6-1.7c-2.3-1.2-3.6-3.5-3.8-6.9
		c-0.5-9.8-0.9-18.6-1-26.4c-0.1-7.8-0.3-14.3-0.6-19.6h-0.7c-0.9,3.5-2.2,7.9-3.9,13.2C363.5,262.6,361.4,269.3,359,277.6"/>
	<path class="st1" d="M399.8,228.6c0-3.9,1.1-6.9,3.4-9.1c2.2-2.2,5.3-3.4,9.1-3.4h44.4c0.6,1,1.2,2.3,1.7,3.9
		c0.5,1.6,0.7,3.3,0.7,5.1c0,3.4-0.7,5.8-2.2,7.3c-1.5,1.4-3.4,2.2-5.9,2.2h-28.4v12.5h30.3c0.6,1,1.2,2.3,1.7,3.8
		c0.5,1.6,0.7,3.3,0.7,5c0,3.4-0.7,5.8-2.2,7.3c-1.4,1.4-3.4,2.2-5.8,2.2h-24.8v14.1h34.6c0.6,1,1.2,2.3,1.7,3.9
		c0.5,1.6,0.7,3.3,0.7,5.1c0,3.4-0.7,5.9-2.2,7.3c-1.5,1.5-3.4,2.2-5.9,2.2h-39.3c-3.9,0-6.9-1.1-9.1-3.4c-2.2-2.2-3.4-5.3-3.4-9.1
		V228.6z"/>
	<path class="st1" d="M486.8,271.3v25.8c-1,0.3-2.5,0.5-4.6,0.8c-2.1,0.3-4.2,0.4-6.3,0.4c-2.1,0-3.9-0.2-5.4-0.5
		c-1.6-0.3-2.9-0.9-3.9-1.7c-1-0.8-1.8-1.9-2.4-3.4c-0.5-1.4-0.8-3.3-0.8-5.7v-63.4c0-1.9,0.5-3.3,1.5-4.4c1-1,2.4-1.9,4.2-2.5
		c3.1-1.1,6.6-1.9,10.6-2.4c4-0.5,8.3-0.7,12.9-0.7c12.4,0,21.7,2.6,28,7.8c6.3,5.2,9.4,12.2,9.4,21.1c0,5.6-1.4,10.3-4.3,14.3
		c-2.9,3.9-6.3,7-10.2,9.1c3.2,4.4,6.4,8.5,9.6,12.4c3.1,3.9,5.6,7.4,7.4,10.5c-0.9,3.1-2.5,5.5-4.9,7.2c-2.4,1.7-5,2.5-8,2.5
		c-2,0-3.7-0.2-5.1-0.7c-1.4-0.4-2.7-1.1-3.8-1.9c-1.1-0.8-2.1-1.8-3-3c-0.9-1.2-1.7-2.4-2.6-3.8L494,271.3H486.8z M495.3,253.4
		c3.4,0,6.1-0.9,8.1-2.6c2-1.7,3-4.3,3-7.7c0-3.4-1.1-6-3.3-7.7s-5.7-2.6-10.4-2.6c-1.3,0-2.4,0-3.2,0.1c-0.8,0.1-1.7,0.2-2.7,0.4
		v20.2H495.3z"/>
	<path class="st1" d="M558.8,297.1c-1,0.3-2.5,0.5-4.6,0.8c-2.1,0.3-4.2,0.4-6.3,0.4c-2.1,0-3.9-0.2-5.4-0.5c-1.6-0.3-2.9-0.9-4-1.7
		c-1.1-0.8-1.9-1.9-2.4-3.4c-0.5-1.4-0.8-3.3-0.8-5.7v-71c1-0.2,2.6-0.4,4.7-0.7c2.2-0.3,4.2-0.5,6.2-0.5c2.1,0,3.9,0.2,5.4,0.5
		c1.6,0.3,2.9,0.9,4,1.7c1.1,0.8,1.9,1.9,2.4,3.4c0.5,1.4,0.8,3.3,0.8,5.7V297.1z"/>
	<path class="st1" d="M577.9,240.9c-1,1.5-2.2,2.6-3.5,3.4c-1.3,0.7-3,1.1-5.1,1.1c-1.7,0-3.3-0.2-4.7-0.5c-1.4-0.4-2.8-0.9-4.2-1.5
		c0.4-5.5,0.9-10.9,1.3-16.4c0.4-5.5,0.8-10.5,0.9-15.2c1.3-0.7,2.9-1.4,4.9-2c2-0.6,4-0.9,5.9-0.9c1.4,0,2.8,0.1,4.2,0.4
		c1.4,0.3,2.6,0.7,3.7,1.4c1.1,0.7,1.9,1.6,2.6,2.7c0.6,1.1,0.9,2.5,0.9,4.1c0,1.8-0.2,3.8-0.5,5.9c-0.4,2.2-0.9,4.3-1.5,6.5
		c-0.7,2.2-1.4,4.2-2.3,6.2C579.7,237.9,578.8,239.5,577.9,240.9"/>
	<path class="st1" d="M609.4,265.2c-3.9-1.3-7.5-2.7-10.8-4.1c-3.2-1.4-6-3.1-8.3-5c-2.3-2-4.1-4.3-5.4-7.1c-1.3-2.7-2-6.1-2-10
		c0-7.6,2.9-13.7,8.8-18.3c5.9-4.6,14.1-6.9,24.7-6.9c3.9,0,7.4,0.3,10.8,0.8c3.3,0.5,6.2,1.4,8.5,2.5c2.4,1.1,4.2,2.6,5.6,4.3
		c1.3,1.7,2,3.8,2,6.1s-0.5,4.3-1.6,6c-1.1,1.7-2.4,3.1-3.9,4.2c-2-1.3-4.6-2.4-7.9-3.3c-3.3-0.9-7-1.4-10.9-1.4c-4,0-7,0.6-8.9,1.7
		c-1.9,1.1-2.8,2.5-2.8,4.2c0,1.3,0.6,2.4,1.7,3.3c1.2,0.9,2.9,1.6,5.2,2.4l7.1,2.3c8.4,2.7,14.9,6.1,19.4,10.3
		c4.5,4.2,6.8,9.8,6.8,17c0,7.6-3,13.8-9,18.5c-6,4.7-14.8,7.1-26.5,7.1c-4.1,0-8-0.3-11.5-1c-3.5-0.7-6.6-1.7-9.3-3
		c-2.6-1.3-4.7-2.9-6.2-4.8c-1.5-1.9-2.2-4.1-2.2-6.7c0-2.6,0.8-4.8,2.3-6.7c1.5-1.8,3.2-3.3,5-4.2c2.5,2,5.6,3.7,9.2,5.1
		c3.6,1.4,7.6,2.2,11.9,2.2c4.4,0,7.5-0.7,9.3-2c1.8-1.3,2.7-2.9,2.7-4.7c0-1.8-0.7-3.2-2.2-4.1c-1.4-0.9-3.5-1.9-6.1-2.8
		L609.4,265.2z"/>
	<text transform="matrix(1 0 0 1 231.3877 444.3135)"><tspan x="0" y="0" class="st1 st5 st6 st7">N</tspan><tspan x="25.5" y="0" class="st1 st5 st6 st8">A</tspan><tspan x="47.5" y="0" class="st1 st5 st6 st7">T</tspan><tspan x="68" y="0" class="st1 st5 st6 st7">U</tspan><tspan x="92.3" y="0" class="st1 st5 st6 st7">RAL BORN </tspan><tspan x="275.1" y="0" class="st1 st5 st6 st7">G</tspan><tspan x="300.4" y="0" class="st1 st5 st6 st7">RILL</tspan><tspan x="371.7" y="0" class="st1 st5 st6 st7">E</tspan><tspan x="393" y="0" class="st1 st5 st6">R</tspan></text>
	<path class="st1" d="M313.5,388.5c0,3.3-0.6,5.7-1.7,7.3c-1.2,1.6-3,3.1-5.5,4.6c-1.5,0.8-3.3,1.7-5.5,2.4
		c-2.2,0.8-4.6,1.5-7.3,2.1c-2.6,0.6-5.4,1-8.3,1.3c-2.9,0.3-5.8,0.5-8.6,0.5c-7.6,0-14.7-1-21.3-3.1c-6.6-2.1-12.4-5.2-17.3-9.3
		c-4.9-4.2-8.8-9.3-11.6-15.6c-2.8-6.2-4.3-13.4-4.3-21.6c0-8.6,1.6-16.2,4.7-22.6c3.1-6.4,7.2-11.8,12.3-16
		c5.1-4.3,10.9-7.4,17.5-9.5c6.6-2.1,13.3-3.2,20.3-3.2c10,0,17.9,1.6,23.8,4.8c5.8,3.2,8.8,7.4,8.8,12.5c0,2.7-0.7,5.1-2.1,7.1
		c-1.4,2-2.9,3.6-4.7,4.7c-2.6-1.6-5.9-3.1-9.9-4.7c-3.9-1.5-8.4-2.3-13.3-2.3c-8.8,0-15.9,2.5-21.1,7.6c-5.2,5.1-7.8,12.1-7.8,21
		c0,4.8,0.7,9,2.1,12.5c1.4,3.5,3.3,6.4,5.8,8.7c2.4,2.3,5.2,3.9,8.4,5.1c3.2,1.1,6.5,1.7,10.1,1.7c2.3,0,4.4-0.2,6.2-0.6
		c1.8-0.4,3.2-0.9,4.1-1.4v-14.8h-16.9c-0.6-1.2-1.2-2.7-1.8-4.6c-0.6-1.9-0.9-3.9-0.9-6c0-3.8,0.9-6.5,2.6-8.2
		c1.7-1.7,4-2.5,6.7-2.5h26.7c3.2,0,5.6,0.9,7.3,2.6c1.7,1.7,2.6,4.2,2.6,7.3V388.5z"/>
	<path class="st1" d="M347.3,373.2v30.3c-1.2,0.3-3,0.6-5.4,0.9c-2.5,0.3-4.9,0.5-7.3,0.5c-2.4,0-4.6-0.2-6.4-0.6
		c-1.8-0.4-3.4-1-4.6-2c-1.2-0.9-2.1-2.3-2.8-3.9c-0.6-1.7-0.9-3.9-0.9-6.6v-74.4c0-2.2,0.6-3.9,1.8-5.1c1.2-1.2,2.9-2.2,5-2.9
		c3.6-1.3,7.7-2.2,12.5-2.8c4.7-0.6,9.8-0.9,15.2-0.9c14.5,0,25.5,3.1,32.8,9.2c7.4,6.1,11.1,14.4,11.1,24.8
		c0,6.5-1.7,12.1-5.1,16.7c-3.4,4.6-7.4,8.2-12,10.7c3.8,5.2,7.5,10,11.2,14.5c3.7,4.5,6.6,8.6,8.7,12.3c-1.1,3.7-3,6.5-5.8,8.4
		c-2.8,1.9-5.9,2.9-9.4,2.9c-2.3,0-4.3-0.3-6-0.8c-1.7-0.5-3.2-1.3-4.4-2.2c-1.3-0.9-2.4-2.1-3.5-3.5c-1.1-1.4-2.1-2.8-3-4.4
		l-13.3-21.3H347.3z M357.2,352.2c4,0,7.2-1,9.5-3.1c2.3-2.1,3.5-5.1,3.5-9.1c0-4-1.3-7-3.9-9.1c-2.6-2.1-6.7-3.1-12.2-3.1
		c-1.6,0-2.8,0.1-3.8,0.2c-0.9,0.1-2,0.3-3.2,0.5v23.7H357.2z"/>
	<path class="st1" d="M431.7,403.5c-1.2,0.3-3,0.6-5.4,0.9s-4.9,0.5-7.3,0.5c-2.4,0-4.6-0.2-6.4-0.6c-1.8-0.4-3.4-1-4.7-2
		c-1.3-0.9-2.2-2.3-2.8-3.9c-0.6-1.7-0.9-3.9-0.9-6.6v-83.3c1.2-0.2,3-0.5,5.5-0.9c2.5-0.4,4.9-0.6,7.3-0.6c2.4,0,4.5,0.2,6.4,0.6
		c1.8,0.4,3.4,1,4.7,2c1.3,0.9,2.2,2.3,2.8,3.9c0.6,1.7,0.9,3.9,0.9,6.6V403.5z"/>
	<path class="st1" d="M455.1,404.6c-4.5,0-8.1-1.3-10.7-3.9c-2.6-2.6-3.9-6.2-3.9-10.7v-81.6c1.2-0.2,3-0.5,5.5-0.9
		c2.5-0.4,4.9-0.6,7.3-0.6c2.4,0,4.5,0.2,6.4,0.6c1.8,0.4,3.4,1,4.7,2c1.3,0.9,2.2,2.3,2.8,3.9c0.6,1.7,0.9,3.9,0.9,6.6v62.4h36.2
		c0.7,1.2,1.4,2.7,2.1,4.7c0.6,1.9,0.9,4,0.9,6.1c0,4.2-0.9,7.2-2.7,8.9c-1.8,1.7-4.2,2.6-7.1,2.6H455.1z"/>
	<path class="st1" d="M524.2,404.6c-4.5,0-8.1-1.3-10.7-3.9c-2.6-2.6-3.9-6.2-3.9-10.7v-81.6c1.2-0.2,3-0.5,5.5-0.9
		c2.5-0.4,4.9-0.6,7.3-0.6c2.4,0,4.5,0.2,6.4,0.6c1.8,0.4,3.4,1,4.7,2c1.3,0.9,2.2,2.3,2.8,3.9c0.6,1.7,0.9,3.9,0.9,6.6v62.4h36.1
		c0.7,1.2,1.4,2.7,2.1,4.7c0.6,1.9,0.9,4,0.9,6.1c0,4.2-0.9,7.2-2.7,8.9c-1.8,1.7-4.2,2.6-7.1,2.6H524.2z"/>
	<path class="st1" d="M605.8,366.1c-4.6-1.6-8.8-3.2-12.6-4.8c-3.8-1.6-7.1-3.6-9.8-5.9c-2.7-2.3-4.9-5.1-6.4-8.3
		c-1.5-3.2-2.3-7.1-2.3-11.8c0-8.9,3.4-16.1,10.3-21.5c6.9-5.4,16.5-8.1,29-8.1c4.5,0,8.7,0.3,12.6,0.9c3.9,0.6,7.2,1.6,10,2.9
		c2.8,1.3,5,3,6.6,5.1c1.6,2.1,2.4,4.4,2.4,7.2s-0.6,5.1-1.9,7c-1.3,1.9-2.8,3.6-4.6,5c-2.3-1.5-5.4-2.8-9.3-3.9
		c-3.9-1.1-8.2-1.7-12.8-1.7c-4.7,0-8.2,0.7-10.4,2c-2.2,1.3-3.3,3-3.3,5c0,1.6,0.7,2.9,2.1,3.9c1.4,1,3.4,1.9,6.2,2.8l8.4,2.7
		c9.9,3.2,17.5,7.2,22.8,12.1c5.3,4.9,8,11.5,8,20c0,8.9-3.5,16.2-10.6,21.7c-7.1,5.5-17.4,8.3-31.1,8.3c-4.8,0-9.3-0.4-13.5-1.2
		c-4.2-0.8-7.8-1.9-10.9-3.5c-3.1-1.5-5.5-3.4-7.3-5.7c-1.7-2.3-2.6-4.9-2.6-7.8c0-3.1,0.9-5.7,2.7-7.8c1.8-2.2,3.7-3.8,5.8-5
		c2.9,2.3,6.6,4.3,10.8,6c4.3,1.7,8.9,2.5,14,2.5c5.2,0,8.8-0.8,10.9-2.4c2.1-1.6,3.2-3.4,3.2-5.5c0-2.1-0.8-3.7-2.5-4.8
		c-1.7-1.1-4.1-2.2-7.1-3.2L605.8,366.1z"/>
	<path class="st1" d="M643,489.3H175.3V213.7c0-35.8,29.1-65,65-65h133.4v17H240.3c-26.5,0-48,21.5-48,48v258.6H643
		c26.5,0,48-21.5,48-48V165.7H505.4v-17H708v275.6C708,460.2,678.9,489.3,643,489.3"/>
	<path class="st1" d="M655.4,227c0-7.4,5.5-12.6,12.4-12.6c6.8,0,12.4,5.3,12.4,12.6c0,7.4-5.5,12.6-12.4,12.6
		C660.9,239.6,655.4,234.4,655.4,227 M676.7,227c0-5.8-3.7-9.6-9-9.6c-5.2,0-9,3.8-9,9.6c0,5.8,3.7,9.5,9,9.5
		C673,236.6,676.7,232.8,676.7,227 M662.7,220.8h5.6c2.9,0,5.1,1.3,5.1,4.1c0,1.4-0.7,2.7-2.2,3.4l2.6,4.8H670l-1.9-3.7h-1.8v3.7
		h-3.6V220.8z M667.6,226.8c1.3,0,1.9-0.8,1.9-1.7c0-0.9-0.6-1.6-1.9-1.6h-1.3v3.3H667.6z"/>
	<path class="st1" d="M382.1,106.6c0.7-0.9,1.2-1.9,2-2.7c4.3-4.3,8.6-8.6,12.9-12.9c2.4-2.4,3.7-2.7,6.6-0.9
		c3.6,2.4,7.1,4.9,10.4,7.6c3.7,3.1,7.2,6.4,10.8,9.6c2.8,2.5,4.2,5.8,4.2,9.5c0,3-0.5,6-0.7,8.9c0,0.3-0.1,0.5-0.1,0.8
		c-0.4,4.1-0.4,4.1,2.5,7c2.9,2.9,5.8,5.8,8.7,8.7c0.3,0.3,0.5,0.7,0.7,1.1c0.5-0.4,0.7-0.7,1-0.9c7.2-7.2,14.3-14.3,21.5-21.5
		c0.6-0.6,0.7-1,0.4-1.9c-1.1-3.3-0.5-6.4,1.9-8.8c7-7,14-14,21-21c0.1-0.1,0.3-0.2,0.6-0.6c0,2.1,0,4,0,5.9c0,0.3-0.4,0.6-0.7,0.9
		c-5,5-10,10-15,15c-1.3,1.3-1.7,2.8-1.2,4.5c0.5,1.7,1.7,2.7,3.4,2.9c1.5,0.3,2.8-0.3,3.9-1.4c4.9-4.9,9.9-9.9,14.8-14.8
		c0.6-0.6,1.2-0.9,2.1-0.9c1.5,0.1,3,0,4.8,0c-0.4,0.5-0.6,0.7-0.9,1c-6.7,6.7-13.5,13.5-20.2,20.2c-2.8,2.8-6,3.6-9.7,2.3
		c-0.7-0.2-1,0.1-1.4,0.4c-4.3,4.3-8.5,8.5-12.8,12.8c-8.1,8.1-16.1,16.1-24.2,24.2c-0.5,0.5-0.8,1-0.6,1.8c0.3,2-0.5,3.6-1.9,5
		c-6.5,6.5-12.9,12.9-19.4,19.4c-1.1,1.1-2.2,2.2-3.3,3.3c-2.4,2.4-6,2.4-8.3,0c-2.3-2.3-2.2-5.8,0.2-8.2
		c7.6-7.6,15.2-15.3,22.9-22.9c1.4-1.4,3.1-2,5.1-1.7c0.4,0.1,0.9-0.1,1.2-0.3c3.6-3.5,7.2-7.1,10.7-10.7c0.1-0.1,0.1-0.2,0.3-0.4
		c-1.5-1.5-3.1-3-4.6-4.5c-2.3-2.2-4.5-4.5-6.8-6.8c-0.6-0.6-1.3-1-2.1-0.9c-2.4,0.3-4.8,0.6-7.2,0.8c-2.4,0.2-4.9,0.3-7.4,0.1
		c-2.8-0.3-5.4-1.5-7.4-3.6c-5.4-5.6-10.6-11.4-15.1-17.7c-1.4-1.9-2.5-4.1-3.7-6.1V106.6z M419.1,116.4c0.4-0.4,1-0.7,1-1
		c0-0.6-0.1-1.3-0.5-1.7c-5.4-5.4-10.8-10.8-16.2-16.3c-0.6-0.6-1.3-1-2.1-0.3c-0.7,0.7-0.5,1.4,0.2,2.1
		c5.4,5.4,10.9,10.9,16.3,16.3C418.2,115.9,418.6,116.1,419.1,116.4 M413.7,121.9c0.4-0.4,1-0.7,1-1c0.1-0.5-0.1-1.2-0.4-1.5
		c-5.5-5.5-11-11-16.5-16.5c-0.6-0.6-1.3-0.8-2-0.2c-0.7,0.7-0.5,1.4,0.2,2c5.5,5.5,10.9,10.9,16.4,16.4
		C412.8,121.4,413.2,121.6,413.7,121.9 M408.2,127.3c0.4-0.4,1-0.6,1.1-0.9c0-0.6-0.1-1.3-0.5-1.7c-5.4-5.5-10.9-10.9-16.3-16.3
		c-0.7-0.7-1.4-0.9-2.1-0.2c-0.6,0.7-0.4,1.4,0.2,2c5.4,5.4,10.9,10.9,16.3,16.3C407.3,126.8,407.7,127,408.2,127.3 M402.3,187.5
		c1.3,0,2.4-1.1,2.4-2.4c0-1.3-1.1-2.4-2.4-2.4c-1.3,0-2.4,1.1-2.4,2.4C399.9,186.5,400.9,187.5,402.3,187.5"/>
	<path class="st1" d="M443.2,153.9c1.3-1.3,2.6-2.5,3.9-3.8c0.2,0.2,0.5,0.5,0.8,0.7c3,3,5.9,6,9,8.9c0.3,0.3,1,0.5,1.4,0.5
		c1.7-0.1,3.2,0.4,4.4,1.5c7.3,7.3,14.6,14.6,21.9,21.9c2.2,2.2,2.1,5.6,0,7.7c-2.1,2.1-5.5,2.2-7.7,0c-7.3-7.2-14.6-14.5-21.8-21.8
		c-1.2-1.2-1.7-2.7-1.6-4.5c0-0.5-0.2-1.1-0.5-1.5C449.7,160.3,446.4,157.1,443.2,153.9 M478.7,183.3c-1.3,0-2.2,1-2.2,2.2
		c0,1.2,1,2.2,2.2,2.2c1.3,0,2.3-1,2.3-2.3C481,184.2,480,183.3,478.7,183.3"/>
</g>
</svg>
