<?xml version="1.0" encoding="utf-8"?>
<!-- Generator: Adobe Illustrator 23.0.4, SVG Export Plug-In . SVG Version: 6.00 Build 0)  -->
<svg version="1.1" id="Layer_1" xmlns="http://www.w3.org/2000/svg" xmlns:xlink="http://www.w3.org/1999/xlink" x="0px" y="0px"
	 viewBox="0 0 883 576" style="enable-background:new 0 0 883 576;" xml:space="preserve">
<style type="text/css">
	.st0{fill:none;stroke:#006837;stroke-miterlimit:10;}
	.st1{fill:#445262;}
	.st2{font-family:'VisbyCF-Bold';}
	.st3{font-size:218.6524px;}
	.st4{clip-path:url(#SVGID_2_);fill:#445262;}
	.st5{clip-path:url(#SVGID_4_);fill:#616E7A;}
	.st6{fill:#FFFFFF;}
</style>
<g>
	<text transform="matrix(1 0 0 1 307.5898 353.375)" class="st1 st2 st3">Pear</text>
	<g>
		<path class="st1" d="M214,165.4c-3.6,6-8.3,14.2-13.3,22.1c-1,1.6-3.3,1.8-5.3,0.6c-2.4-1.5-2.9-3.7-2-6.1
			c2.8-7.3,5.7-14.7,8.7-21.9c1.4-3.3,4.2-4.8,7.7-3.5C212.8,157.5,214.5,159.6,214,165.4z"/>
		<path class="st1" d="M274.7,304.8c-3.3-36.6-26.4-64.6-46.1-92.3c-18.8-26.6-61.2-18.3-76.8,11.1c-8.3,15.7-17,31.1-25.9,46.4
			c-13.6,23.4-14.7,47.9-2.8,74.4c0,0,12.9,22.6,22.9,28.9c0.4,0.3,0.7,0.5,1.1,0.7v-63.1c-0.3-4.9,0.4-9.8,2.8-14.3
			c1.7-3.2,1.7-3.2,0.6-1.3c9.6-17.6,19.2-35.1,28.7-52.7c3.7-6.8,8.2-11.6,16.4-11.3c8.3,0.2,12.9,5.2,15.8,12.2
			c6.2,14.6,14.3,28.1,23.1,41.3c10.3,15.3,9.4,38.1-1.3,52.4c-12.5,16.6-32.2,23.3-51.5,17.9c-3.9-1.1-7.3-2.9-10.5-4.9v36.2
			c19.9,6.7,40.5,4.9,61.8-6.2C260.3,366.4,277.4,335.1,274.7,304.8z"/>
	</g>
</g>
</svg>
