<?xml version="1.0" encoding="utf-8"?>
<!-- Generator: Adobe Illustrator 23.0.4, SVG Export Plug-In . SVG Version: 6.00 Build 0)  -->
<svg version="1.1" id="Layer_1" xmlns="http://www.w3.org/2000/svg" xmlns:xlink="http://www.w3.org/1999/xlink" x="0px" y="0px"
	 viewBox="0 0 883 576" style="enable-background:new 0 0 883 576;" xml:space="preserve">
<style type="text/css">
	.st0{fill:none;stroke:#006837;stroke-miterlimit:10;}
	.st1{fill:#445262;}
	.st2{clip-path:url(#SVGID_2_);fill:#445262;}
	.st3{clip-path:url(#SVGID_4_);fill:#616E7A;}
	.st4{fill:#FFFFFF;}
</style>
<path class="st1" d="M168.5,259c0-3.6,0.1-7,0-10.4c-0.1-2.8,1.1-3.8,3.8-3.8c8.7,0.1,17.4,0.1,26.2,0c3.1,0,3.9,1.4,3.9,4.2
	c-0.1,38.2-0.1,76.3,0,114.5c0,3.3-1.2,4.3-4.3,4.2c-8.4-0.2-16.8-0.2-25.2,0c-3.2,0.1-4.5-0.9-4.3-4.2c0.2-3.4,0-6.9,0-11.1
	c-1.4,0.9-2.2,1.3-2.8,1.9c-10.5,11.9-24.2,14.4-39,12.9c-36.1-3.6-54.7-37.5-50.3-70c3.4-25.4,16.5-43.2,41.5-50.3
	c17.6-5,34.6-3.6,48,11.3c0.3,0.4,0.8,0.6,1.2,0.8C167.3,259.1,167.5,259,168.5,259z M138.7,335.9c18.6,1.4,30-15.3,29.9-30.1
	c-0.1-17.2-12.8-29.9-29.9-29.9c-16.4,0-29.2,13.2-29.2,30.2C109.4,321.3,121.7,337.2,138.7,335.9z"/>
<path class="st1" d="M540,260.2c0-4.8-0.3-8.4,0.2-11.9c0.2-1.3,2.1-3.4,3.3-3.4c8.9-0.3,17.8-0.1,26.6-0.2c4.2-0.1,3.7,2.8,3.7,5.4
	c0,27.3,0,54.6,0,81.9c0,10.4-0.1,20.7,0.1,31.1c0.1,3.4-1.1,4.6-4.6,4.5c-8.2-0.2-16.5-0.2-24.7,0c-3.8,0.1-4.9-1.4-4.7-4.9
	c0.2-3.2,0-6.4,0-10.2c-4.3,3.5-7.7,7-11.7,9.2c-18.9,10.8-46.4,6.3-62.9-9.8c-24.4-23.9-23.6-70.2,1.7-92.9
	c14.6-13.1,32-17.3,50.9-12.7c6.2,1.5,11.7,6.2,17.4,9.6C536.8,256.8,537.8,258.1,540,260.2z M510.7,336.2
	c19.2-0.1,29.8-14.3,29.6-30.7c-0.1-16.9-11.9-29.5-29.6-29.7c-16.7-0.2-29.6,13.2-29.6,30.4C481.2,322.9,494.3,336.2,510.7,336.2z"
	/>
<path class="st1" d="M599.4,330c2.1,0,4.3,0.1,6.4,0c5.3-0.2,9.6-0.3,12.7,5.9c3.4,6.7,15.6,6.6,20.9,1c3.9-4.1,3.3-10-2-12.9
	c-4.9-2.7-10.2-4.5-15.3-6.6c-6.1-2.4-12.4-4.3-18.4-7.1c-24.5-11.4-27.5-39.1-6.1-55.8c18.9-14.8,50.4-13.2,65.3,4.1
	c4.1,4.7,6,11.5,8.5,17.5c1,2.5-0.5,3.9-3.3,3.9c-8.6-0.1-17.1,0.1-25.7-0.1c-1.3,0-3.1-1.4-3.9-2.7c-3.6-6.1-13-8-18.4-3.4
	c-3.9,3.3-4,8.3,0.5,11.2c4.2,2.7,9.1,4.5,13.8,6.3c6.5,2.4,13.3,3.8,19.6,6.5c24.4,10.3,29.3,38.8,10.2,57.2
	c-18,17.3-53.9,16.9-71.3-0.8c-5.5-5.6-8.5-12.4-10.2-19.9c-0.7-2.9,0-4.4,3.3-4.3C590.5,330.1,594.9,330,599.4,330z"/>
<path class="st1" d="M290.9,275.9c5.6-10.4,10.4-19.7,15.6-28.8c0.7-1.2,2.9-2.2,4.4-2.2c14.5-0.2,29-0.1,43.4-0.1c3,0,4,1.2,4,4.1
	c-0.1,7.7-0.1,15.5,0,23.2c0,2.8-1,4-3.8,3.8c-0.2,0-0.3,0-0.5,0c-3.9,0.2-9.7-1-11.2,1c-2.1,2.8-1.3,8-1.3,12.2
	c0.1,9.3-0.4,18.8,1.2,28c1.9,11.3,10.8,18.1,22.3,18.7c3.2,0.2,4.3,1.2,4.2,4.4c-0.2,7.7-0.2,15.5,0,23.2c0.1,3.7-1.5,4.5-4.7,4.3
	c-34.2-2.1-55.6-20.9-56.7-57.7c-0.3-9.7-0.2-19.4,0.1-29.1c0.1-4-1.4-5.3-5.1-5C299.2,276,295.6,275.9,290.9,275.9z"/>
<path class="st1" d="M260.7,254c7-7.8,15.4-9,24.3-9.2c3.2-0.1,4.4,1,4.3,4.2c-0.1,7.6-0.1,15.1,0,22.7c0,2.4-0.4,3.8-3.4,4.2
	c-17.3,2.3-24,9.9-24.1,27.5c-0.1,19.6-0.1,39.2,0.1,58.7c0,4.4-1.3,5.7-5.6,5.6c-7.7-0.3-15.5-0.2-23.2,0c-3.5,0.1-4.5-1.3-4.5-4.6
	c0.1-37.8,0.1-75.7,0-113.5c0-3.6,1.2-5,4.9-4.9c6.7,0.2,13.5,0.3,20.2,0c4.6-0.2,6.9,1,6.3,5.9C259.8,251.3,260.2,252.1,260.7,254z
	"/>
<path class="st1" d="M775.5,225.9c0,3.9,0.1,7.9,0,11.8c-0.2,3.7,1.2,5.3,5.1,5.2c7.9-0.2,15.8,0.1,23.7-0.1
	c3.3-0.1,4.8,0.9,4.7,4.4c-0.2,6.7-0.2,13.5,0,20.2c0.1,3.5-1.3,4.6-4.6,4.5c-7.7-0.2-15.5,0.1-23.2-0.1c-4.3-0.1-5.8,1.6-5.7,5.8
	c0.2,7.1-0.2,14.2,0.1,21.2c0.2,4.8-1,6.9-6.2,6.5c-5.6-0.5-11.2-0.1-16.8-0.1c-6.4,0-6.4,0-6.4-6.6c0-7.1-0.1-14.2,0-21.2
	c0.1-4-1.4-5.7-5.5-5.6c-7.9,0.2-15.8,0-23.7,0.1c-3.1,0-4.4-1-4.4-4.3c0.2-6.9,0.2-13.8,0-20.7c-0.1-3.3,1.3-4.2,4.4-4.2
	c7.9,0.1,15.8-0.1,23.7,0.1c4.2,0.1,5.5-1.5,5.4-5.5c-0.2-7.4,0.1-14.8-0.1-22.2c-0.2-4.3,0.9-6.3,5.7-6c6.1,0.4,12.2,0.3,18.3,0
	c4-0.2,5.8,1,5.4,5.2C775.3,218.3,775.5,222.2,775.5,225.9z"/>
<path class="st1" d="M416.6,280c0,11.6-1,23.4,0.3,34.9c1.4,13,9.8,20,22.7,21.1c5.1,0.4,4,3.7,3.1,11.9c-0.5,4.6-0.2,9.3,0.5,13.9
	c0.7,4.9-0.5,6.3-3.9,6.1c-29.4-1.7-54.6-16.3-56.3-53.6c-1-21.5-0.2-43.1-0.3-64.6c0-3.8,1.4-4.9,5.2-4.8c7.7,0.3,15.3,0.4,23,0
	c4.2-0.2,5.2,1.3,5.2,5c-0.2,10-0.1,20.1-0.1,30.1C416.1,280,416.4,280,416.6,280z"/>
</svg>
