<?xml version="1.0" encoding="utf-8"?>
<!-- Generator: Adobe Illustrator 23.0.4, SVG Export Plug-In . SVG Version: 6.00 Build 0)  -->
<svg version="1.1" id="Layer_1" xmlns="http://www.w3.org/2000/svg" xmlns:xlink="http://www.w3.org/1999/xlink" x="0px" y="0px"
	 viewBox="0 0 883 576" style="enable-background:new 0 0 883 576;" xml:space="preserve">
<style type="text/css">
	.st0{fill:none;stroke:#006837;stroke-miterlimit:10;}
	.st1{fill:#445262;}
	.st2{clip-path:url(#SVGID_2_);fill:#445262;}
	.st3{clip-path:url(#SVGID_4_);fill:#616E7A;}
	.st4{fill:#FFFFFF;}
	.st5{font-family:'Gotham-Book';}
	.st6{font-size:34.9545px;}
</style>
<g>
	<g>
		<path class="st1" d="M738.3,274c-4.4,5.3-26.1,23.9-26.4,14.2c-0.2-1.3,2.9-5.1,4.6-7.1c4-4.9,10.6-11.1,14.2-17
			c4.9-8.4-0.7-15.7-10.4-19.3c-2.4-0.9-8.4-3.8-10.8-4.9c6.2-6.2,6.9-16.4,2.4-21c-6.4-6.4-16.4-7.3-22.6-1.8
			c-7.3,6.4-5.8,18.4,4.6,27c-2,5.1-12,17.3-25.2,31.9c0,0,9.3,4.2,15.1-2.2c7.5-8.2,16.4-19.9,18.6-24.1c4.2,2.2,10.4,3.5,7.1,8.4
			c-5.1,7.5-27.7,23.2-19.9,39.2c6.2,12.4,27.2,6.6,29.5,5.8c11.7-4.2,23.7-16.6,31.9-27.9l1.3-1.8
			C755.4,268.5,747.4,262.9,738.3,274L738.3,274z M701.6,233.7c-9.5-5.5-3.3-9.7-1.1-9.3C704.5,225.1,704.5,231.5,701.6,233.7z"/>
		<g>
			<path class="st1" d="M709.5,239.9c0.2,0.1,0.5,0.2,0.8,0.4C710,240.1,709.8,240,709.5,239.9z"/>
			<path class="st1" d="M752.3,273.3c0.8-1.2,0.8-2.4,0.4-3.4c-3.5-2.3-8.5,4.7-13,9.4c-6.2,6.6-11.8,13.8-24.9,17.5
				c-13.1,3.7-17.3-5.7-12.8-11.3c4.5-5.6,11.5-12.7,19.1-22.6c7.6-9.9-8-14.6-14.5-18.1c-6.5-3.5-16.3-8.2-15.8-16.8
				c0.5-8.5,9.1-11.3,14.7-7.1c5.6,4.2,3.3,10.5-0.3,15.8c2.3,1.5,0.9,1.1,4.3,3.1c6.2-6.2,6.9-16.4,2.4-21
				c-6.4-6.4-16.4-7.3-22.6-1.8c-7.3,6.4-5.8,18.4,4.6,27c3.3,2.6,5.8,4.3,8.4,5.5c4.2,2.2,10.4,3.5,7.1,8.4
				c-5.1,7.5-27.7,23.2-19.9,39.2c6.2,12.4,27.2,6.6,29.5,5.8c11.7-4.2,23.7-16.6,31.9-27.9L752.3,273.3z"/>
		</g>
	</g>
	<g>
		<path class="st1" d="M547.6,263.4c-7.7,9.5-18,17.5-24.7,16c-5.2-1-2-8,4.5-17c4.7-6.2-12.7-5.5-13.2-5.2
			c-8.7,1.2-12,15-18.7,20.2c-3.7,2.8-8.5,2.3-8.2-4.2c0.5-15,18.5-35.2,27-33c2,0.5,3,5.5,1,8c33,1.5,19.5-20-1.8-20
			c-43.7,0-59.2,46.7-47,63c9.2,12.5,29.5,2.8,36.5-6.2c1.2,7.7,6.5,12,16.2,12c15.7,0.2,32-17.5,42.7-32.2c0.3-0.7,0.7-1.2,1.2-2
			c2.3-3.5-0.7-7.2-6-6C554.3,257.2,551.1,259.4,547.6,263.4z"/>
		<path class="st1" d="M563.5,258.8c-0.8-1.8-3.2-2.9-6.4-2.1c-2.7,0.5-6,2.7-9.5,6.7c-7.7,9.5-18,17.5-24.7,16c-5.2-1-2-8,4.5-17
			c3-4-3-5.1-7.8-5.4c0,0,0,0,0,0c-2.1,3.9-11.9,21.7-4.3,28.2C530.1,298.1,551.7,262.1,563.5,258.8z"/>
		<path class="st1" d="M495.4,277.4c-3.7,2.8-8.5,2.3-8.2-4.2c0.5-15,18.5-35.2,27-33c2,0.5,3,5.5,1,8c13.9-3.7,13-13.9-0.2-14.6
			c-14.1-0.7-32.1,7.7-39.3,34.4C469.3,291.7,489.2,287.8,495.4,277.4z"/>
	</g>
	<g>
		<path class="st1" d="M405,263.2c-7.7,9.3-15.6,14.2-18.4,14c-7.9-0.5,9.3-27.3,17.2-34.7c7.7-7.5-3.7-14.9-16.3-11.2
			c-12.1,3.7-23.5,16.1-31.9,27c1.2-1.6,3-6.5,7.5-15.1c3.3-6.3,8.2-11.9-0.2-12.6c-10-0.9-13.7,0.9-17.5,4.7
			c-4.2,4.4-14.7,28.2-19.6,44.3c-3.5,11.9-2.1,13,0.5,14.2c5.4,2.6,17.7,1.4,20.3-3.3c7.5-14.9,26.3-32.8,26.3-32.8
			s-6.5,10.5-10.5,21.9c-2.6,7.7,0.7,12.3,6.1,14.4c3.3,1.2,8.9,0.9,9.3,0.9c14.2-0.7,30.5-16.8,40.5-30.5l1.4-1.9
			C422.7,257.6,414.5,251.8,405,263.2z"/>
		<path class="st1" d="M350,244.1c4.4-9.8,7.5-12.3,10.4-13.7c-8.2-0.4-11.6,1.4-15,4.8c-4.2,4.4-14.7,28.2-19.6,44.3
			c-3.5,11.9-2.1,13,0.5,14.2c1.6,0.8,3.9,1.2,6.4,1.3c-2.5-1.5-1.2-5.6-0.5-7.8C335.5,276.8,341,263.9,350,244.1z"/>
		<path class="st1" d="M418.2,264.3l1.4-1.9c0.3-0.5,0.5-1,0.6-1.6c-1.7-2.2-6.9,0.8-11.5,6.4c-5.4,6.5-15.1,16.8-26.7,17.4
			c-12.7,0.6-5.3-17.3,0-27.4c5.3-10.1-3.2-4.8-9.1,0.3c0,0-6.5,10.5-10.5,21.9c-2.6,7.7,0.7,12.3,6.1,14.4c3.3,1.2,8.9,0.9,9.3,0.9
			C391.9,294.2,408.2,278.1,418.2,264.3z"/>
		<path class="st1" d="M402.3,244c0.5-0.6,1-1.1,1.5-1.5c7.7-7.5-3.7-14.9-16.3-11.2c-12.1,3.7-23.5,16.1-31.9,27
			c-3.2,6.2-4.5,9.9-6.3,15.2c9-11.5,23.8-28.3,38.6-33.9C399.1,235.4,402.5,239.3,402.3,244z"/>
	</g>
	<g>
		<path class="st1" d="M538.2,302.2c0,0-24.4,21.5-41.3,24.8c-0.9-6.5-4.6-12.5-9.5-16.4c-5.2-4.1-13.6-2.9-17.7,0.2
			c-5.7,4.2-6.4,11.2-6.6,13.8c-0.2,8.9,4,16,13.4,17.5c-1.2,5.9-3.5,17.4-8.9,26.1c-3.8,5.7-9.7,10.2-16.2,6.3
			c-9.4-5.5-4.8-35.3,6.7-53c8.1-13.2-2.7-11-12-8.3c-13.4,4.2-20.5,20.9-22.7,31.2c-6.3,28,11.1,48.1,34.8,45.6
			c5-0.7,11.6-2.5,17.7-6.2c17.5-11.4,22.4-33.2,23.5-43.9c6-2.3,23-7.3,30.3-14C543.8,313.1,538.2,302.2,538.2,302.2L538.2,302.2z
			 M471.4,324.3c-0.7-2.8,1.8-5.4,4.3-3.8c2.2,1.7,3,3.3,2.9,10.2C475.4,330.3,472.1,327.9,471.4,324.3z"/>
		<path class="st1" d="M489,341.4c-5.7,33-23.9,44.5-40.7,39.7c-16.8-4.8-16.3-29.5-8.4-48.2c6.3-14.9,12.5-20.4,18.6-21.5
			c-2.9-0.7-7.9,0.5-12.5,1.8c-13.4,4.2-20.5,20.9-22.7,31.2c-6.3,28,11.1,48.1,34.8,45.6c5-0.7,11.6-2.5,17.7-6.2
			c17.5-11.4,22.4-33.2,23.5-43.9C496.7,340,495,340.4,489,341.4z"/>
		<path class="st1" d="M538.2,302.2c-0.9,11.5-15.5,24.8-39.9,31.1c-18.9,4.9-28.9,0.8-30.6-7.9c-1.6-8.7,8.3-14.7,14.9-8.5
			c4,3.8,5,10,5.3,11.9c2.9-0.3,5.9-1.2,9-1.8c-0.9-6.5-4.6-12.5-9.5-16.4c-5.2-4.1-13.6-2.9-17.7,0.2c-5.7,4.2-6.4,11.2-6.6,13.8
			c-0.2,8.9,4,16,13.4,17.5c7.8,1.3,14.4-0.1,22.8-2.1c6-2.3,23-7.3,30.3-14C543.8,313.1,538.2,302.2,538.2,302.2z"/>
	</g>
	<g>
		<path class="st1" d="M294.5,305c-13.8-15.1-41.3-43.5-46.5-62.8c-4.7-17.6-1.3-31.8,13.3-42.2c9.9-7.7,28-6,34,3.5
			c6.5,9.9-3.9,27.5-22.8,12.5c-16.8,25.8,17.2,55.9,45.2,31.8c31-26.7,11.6-72.7-43.9-77.4c-57.7-5.2-85.6,40-68.8,85.2
			c12.9,35.3,48.6,70.6,54.2,78.7c25.8,39.6,24.1,86.9-15.9,107.1c-48.6,24.5-86.5-30.6-51.2-58.5c8.2-6.5,30.1-7.8,41.7-1.7
			c5.6-5.6,8.6-24.5-6.5-37c-12-9.5-44.3-13.3-71,5.6c-14.2,9.9-28.8,31-27.1,58.1c3,42.6,54.2,77.4,113.6,64.1
			C340.5,450,342.3,358.4,294.5,305z"/>
		<path class="st1" d="M273.8,170.3c-57.7-5.2-85.6,40-68.8,85.2c12.9,35.3,48.6,70.6,54.2,78.7c25.8,39.6,24.1,86.9-15.9,107.1
			c-48.6,24.5-86.5-30.6-51.2-58.5c8.2-6.5,30.1-7.8,41.7-1.7c-17-27.7-63.8-21.7-75.8,4.3c-11.9,26,0,59.2,36.6,71.9
			c36.6,12.8,87.7-3.4,102.2-46.8c14.5-43.4-7.2-77-25.1-98.3c-17.9-21.3-57.9-54.5-47.7-94.1c10.2-39.6,54.5-39.2,74.9-29.4
			s19.2,38.7,7.2,46.8c-11.9,8.1-30.2,2.1-33.6-19.7c-16.8,25.8,17.2,55.9,45.2,31.8C348.7,221.1,329.3,175.1,273.8,170.3z"/>
	</g>
	<g>
		<path class="st1" d="M468.8,263.5c-4.8,5.8-10.1,9.4-15.4,12.1c-8.9,4.6-27,5.8-26.5-6.3c27.7-1,37.8-15.9,39.3-23.6
			c1.7-9.9-3.9-14.2-10.4-15.9c-18.1-4.1-42.9,12.8-50.6,36.9c-1.4,4.1-2.6,14.9,6.3,23.4c8.2,7.7,21.2,7,33.5,4.3
			c11.3-2.4,21.2-11.6,24.6-14.9c4.8-5.1,8.9-9.4,12.8-14.7c0.5-0.7,1-1.2,1.2-1.9C486.8,257.7,478.4,251.9,468.8,263.5L468.8,263.5
			z M454.1,242.3c1.5,2.2-1,6.7-9.6,10.4c-5.1,2.2-12.5,4.3-14.2,2.4C437,240.6,451.2,237.5,454.1,242.3z"/>
		<path class="st1" d="M483.5,262.8c1-1.5,1-3.1,0.1-4.3c-6-3.8-12,12.5-27.3,22.9c-12.6,8.6-37.6,13.9-40.8-6.7
			c-3.3-21.5,16.8-36.7,27.7-39.8c9.1-2.6,22.9,0.2,16.2,12.6c-6.7,12.4-21,13.6-31.2,14.5c0,0-1.4,3.1-1.3,7.1
			c27.7-1,37.8-15.9,39.3-23.6c1.7-9.9-3.9-14.2-10.4-15.9c-18.1-4.1-42.9,12.8-50.6,36.9c-1.4,4.1-2.6,14.9,6.3,23.4
			c8.2,7.7,21.2,7,33.5,4.3c11.3-2.4,21.2-11.6,24.6-14.9c4.8-5.1,8.9-9.4,12.8-14.7C482.7,264,483.2,263.5,483.5,262.8z"/>
	</g>
	<g>
		<path class="st1" d="M423.3,379.7c-6.7,12-14.8,19.7-18,19.9c-9.3,1.1,5-31.5,12.2-41.7c7.5-10-7.1-16-20.8-9.2
			c-12.8,6.7-22.1,17.1-28.5,28c1-1.7,35.1-56,40.2-75.1c6.4-23.6-8.1-39.9-26.5-23c-10.3,9.3-16.7,22.9-19.8,29.6
			c-18.3,40.7-25.8,88.6-27.4,103.7c-1.5,14,2.4,16.7,5.2,17.4c7,1.7,19.9-2.3,22.6-8.1c7.3-16.7,23.3-39.3,23.3-39.3
			s-5.4,11.6-7.4,25.7c-1.4,9.4,3.4,14.1,9.7,15.1c3.1,0.6,7.1,0.3,11.7-1.1c15.8-5,30.4-25.4,38.7-43.4l1.3-2.3
			C442.3,369.4,431.7,364.7,423.3,379.7L423.3,379.7z M387.9,306.4l5.4-15.4c5.2-11,8.7-5.6,6.8,2.5c-4.3,19-20,45.3-24.8,51.9
			L387.9,306.4z"/>
		<path class="st1" d="M438.4,378.1l1.3-2.3c0.5-1.2,0.5-2.4,0.1-3.4c-2.3-1.1-5.4-0.2-8.8,5.8c-6.4,11.3-12.9,25.1-29.8,33.1
			c-16.9,8-12.9-10-2.1-35.6c10.8-25.6-4.9-9-13.5,6.2c0,0-5.4,11.6-7.4,25.7c-1.4,9.4,3.4,14.1,9.7,15.1c3.1,0.6,7.1,0.3,11.7-1.1
			C415.5,416.5,430.2,396,438.4,378.1z"/>
		<path class="st1" d="M348.4,417c0.6-14.1,8.4-60.7,26.5-105.7c18.1-44.9,37.2-38.8,33.5-9.8c6.4-23.6-8.1-39.9-26.5-23
			c-10.3,9.3-16.7,22.9-19.8,29.6c-18.3,40.7-25.8,88.6-27.4,103.7c-1.5,14,2.4,16.7,5.2,17.4c3.6,0.9,8.9,0.2,13.5-1.4
			C350,427.1,348,424.4,348.4,417z"/>
	</g>
	<g>
		<path class="st1" d="M448.9,197.8c-3.4,6.1-7.5,10-9.2,10.1c-4.7,0.5,2.6-16,6.3-21.2c3.8-5.1-3.6-8.2-10.6-4.7
			c-6.5,3.4-11.3,8.7-14.6,14.2c0.5-0.8,17.9-28.4,20.6-38.2c3.3-12-4.1-20.3-13.5-11.7c-5.3,4.7-8.6,11.6-10.1,15
			c-9.4,20.7-13.3,45-14.1,52.7c-0.8,7.1,1.2,8.5,2.6,8.9c3.6,0.9,10.2-1.1,11.5-4.1c3.8-8.5,11.9-20,11.9-20s-2.8,5.9-3.8,13
			c-0.7,4.8,1.7,7.2,4.9,7.7c1.6,0.3,3.6,0.2,6-0.6c8-2.5,15.5-12.9,19.8-22l0.7-1.2C458.6,192.6,453.2,190.2,448.9,197.8
			L448.9,197.8z M431,160.4l2.8-7.8c2.7-5.6,4.4-2.8,3.5,1.3c-2.2,9.7-10.3,23-12.7,26.4L431,160.4z"/>
		<path class="st1" d="M456.6,197l0.7-1.2c0.3-0.6,0.3-1.2,0.1-1.7c-1.2-0.6-2.8-0.1-4.5,2.9c-3.3,5.8-6.6,12.8-15.2,16.8
			c-8.6,4.1-6.5-5.1-1-18.1c5.5-13-2.5-4.6-6.9,3.1c0,0-2.8,5.9-3.8,13c-0.7,4.8,1.7,7.2,4.9,7.7c1.6,0.3,3.6,0.2,6-0.6
			C444.9,216.5,452.4,206.1,456.6,197z"/>
		<path class="st1" d="M410.7,216.6c0.3-7.2,4.4-30.9,13.6-53.7c9.3-22.8,19-19.7,17.1-4.9c3.3-12-4.1-20.3-13.5-11.7
			c-5.3,4.7-8.6,11.6-10.1,15c-9.4,20.7-13.3,45-14.1,52.7c-0.8,7.1,1.2,8.5,2.6,8.9c1.8,0.5,4.5,0.1,6.8-0.7
			C411.5,221.8,410.5,220.4,410.7,216.6z"/>
	</g>
	<g>
		<path class="st1" d="M485,199.2c-2.2,3.6-4.9,6-7.6,7.9c-4.6,3.2-14.5,5.3-15.2-1.4c15.3-2.7,19.8-11.7,20-16.1
			c0.2-5.6-3.2-7.6-7-8c-10.4-0.9-22.8,10.4-25.2,24.4c-0.5,2.4-0.3,8.5,5.3,12.5c5.1,3.6,12.3,2.2,18.9-0.2
			c6.1-2.2,10.9-8.1,12.5-10.2c2.3-3.2,4.2-5.9,6-9.1c0.2-0.4,0.4-0.7,0.5-1.2C494.6,194.6,489.4,192,485,199.2L485,199.2z
			 M475.2,188.6c1,1.1,0,3.8-4.5,6.5c-2.6,1.6-6.6,3.4-7.7,2.4C465.5,188.9,473.2,186.1,475.2,188.6z"/>
		<path class="st1" d="M493.1,197.7c0.4-0.9,0.3-1.8-0.3-2.4c-3.6-1.6-5.7,7.9-13.4,14.8c-6.3,5.7-19.8,10.6-23.1-0.6
			c-3.5-11.6,6.5-21.7,12.3-24.2c4.8-2.1,12.7-1.6,10,5.8c-2.7,7.4-10.6,9.2-16.2,10.5c0,0-0.6,1.8-0.2,4.1
			c15.3-2.7,19.8-11.7,20-16.1c0.2-5.6-3.2-7.6-7-8c-10.4-0.9-22.8,10.4-25.2,24.4c-0.5,2.4-0.3,8.5,5.3,12.5
			c5.1,3.6,12.3,2.2,18.9-0.2c6.1-2.2,10.9-8.1,12.5-10.2c2.3-3.2,4.2-5.9,6-9.1C492.8,198.4,493,198.1,493.1,197.7z"/>
	</g>
	<g>
		<path class="st1" d="M620.7,261.5c-5.2,6.7-10.5,11.2-14.1,13.6c-2.6,1.7-6.9,3.6-11,2.1c-5-1.7-8.3-7.4-10.2-11.4
			c10.5-0.2,22.4-2.9,29.1-11.7c3.8-4.8,4.1-14.5,0.5-19.3c-8.1-11-22.6-6-32.9,0.7c18.6-18.6,24.5-28.8,30.5-43.1
			c8.3-19.3-2.1-35-20-22.9c-9.8,6.9-17.2,17.6-20.5,22.9c-25,39.5-35,81-36.5,85.8c-2.9,12.2,0,14.8,2.4,15.7
			c5.7,2.4,18.3,2.4,20.5-4c3.8-12.2,3.6-15.2,5.5-19.8c2.6,9.5,8.8,24.1,24.1,25c7.6,0.7,11.9-1.7,14.3-2.6
			c11.9-5,23.6-18.3,31.4-30.3l1.4-2.1C638,255.1,629.7,249.6,620.7,261.5L620.7,261.5z M573,256.5c2.6-4.5,11.7-11.4,18.8-13.6
			C608.3,237.7,597.1,262.9,573,256.5L573,256.5z M594.7,194.1l6.4-12.4c5.7-8.8,8.1-3.8,5.5,3.1c-6.2,15.7-17.4,31.2-27.6,41.7
			C581.6,221,589.4,204.3,594.7,194.1z"/>
		<path class="st1" d="M546.9,277.3c5.7-21.9,17.6-53.9,30.8-76.4c16-27.5,37.5-40.1,36.9-14.6c0,0.1,0,0.3,0,0.4
			c4.2-16.5-5.9-28.1-22-17.2c-9.8,6.9-17.2,17.6-20.5,22.9c-25,39.5-35,81-36.5,85.8c-2.9,12.2,0,14.8,2.4,15.7
			c2.3,0.9,5.6,1.5,9,1.4C544.7,293.1,544.1,288,546.9,277.3z"/>
		<path class="st1" d="M605.4,253.7c8.1-6,8.1-16.1-3.2-17.8c-11.3-1.6-24,8.7-29.1,20.7c2.6-4.5,11.7-11.4,18.8-13.6
			c16.4-5.2,5.2,20-18.8,13.6C582.4,260.7,596.2,260.4,605.4,253.7z"/>
		<path class="st1" d="M635.2,260.1c0.7-1.3,0.7-2.6,0.1-3.7c-1.7-0.1-3.7,0.8-6.1,3.8c-6,7.4-18,26.7-36.8,26.7
			c-8.6,0-12.2-8.8-15.6-14.2c-5.4-8.5-11.4-8.9-12.9-2.6c2.6,9.5,8.8,24.1,24.1,25c7.6,0.7,11.9-1.7,14.3-2.6
			c11.9-5,23.6-18.3,31.4-30.3L635.2,260.1z"/>
	</g>
	<g>
		<path class="st1" d="M677.8,263.5c-4.8,5.8-10.1,9.4-15.4,12.1c-8.9,4.6-27,5.8-26.5-6.3c27.7-1,37.8-15.9,39.3-23.6
			c1.7-9.9-3.9-14.2-10.4-15.9c-18.1-4.1-42.9,12.8-50.6,36.9c-1.4,4.1-2.6,14.9,6.3,23.4c8.2,7.7,21.2,7,33.5,4.3
			c11.3-2.4,21.2-11.6,24.6-14.9c4.8-5.1,8.9-9.4,12.8-14.7c0.5-0.7,1-1.2,1.2-1.9C695.9,257.7,687.5,251.9,677.8,263.5L677.8,263.5
			z M663.1,242.3c1.5,2.2-1,6.7-9.6,10.4c-5.1,2.2-12.5,4.3-14.2,2.4C646,240.6,660.3,237.5,663.1,242.3z"/>
		<path class="st1" d="M692.5,262.8c1-1.5,1-3.1,0.1-4.3c-6-3.8-12,12.5-27.3,22.9c-12.6,8.6-37.6,13.9-40.8-6.7
			c-3.3-21.5,16.8-36.7,27.7-39.8c9.1-2.6,22.9,0.2,16.2,12.6c-6.7,12.4-21,13.6-31.2,14.5c0,0-1.4,3.1-1.3,7.1
			c27.7-1,37.8-15.9,39.3-23.6c1.7-9.9-3.9-14.2-10.4-15.9c-18.1-4.1-42.9,12.8-50.6,36.9c-1.4,4.1-2.6,14.9,6.3,23.4
			c8.2,7.7,21.2,7,33.5,4.3c11.3-2.4,21.2-11.6,24.6-14.9c4.8-5.1,8.9-9.4,12.8-14.7C691.8,264,692.3,263.5,692.5,262.8z"/>
	</g>
	<path class="st1" d="M450.4,101c0,0,0.6,24-33,23.8c-20.2,0.1-21.6-0.8-31.8,0.3c-25.9,2.9-38.2,14.1-39.9,26.6
		c-3.3,22.6,26,24.2,30.3,10.1c-1.8,1.6-5.3,2.8-8.1,0.4c-5.8-4.7-2.1-15.4,6.6-20.6c10.9-6.4,38.2-5.3,45.2-4.9
		C478.5,139.8,470.2,101.9,450.4,101L450.4,101z M390.9,153c-0.7,2.7-8.3,38.9-8.4,40.1c-1.7,7.3-4.3,16-12.6,19.2
		c-9.5,3.9-17.8-2-16.8-10.3c1.5-13,15-10.4,15-10.4s-2.1-8.9-12.5-9.3c-9.8-0.7-22.6,7.6-20,21.6c4.8,24.8,35.7,17.5,41.1,15.9
		c17.8-5.4,22.8-25.1,25.8-41c1.8-9.3,5.9-28.7,9.7-37.2C400.9,140.6,393.3,145.6,390.9,153z"/>
	<text transform="matrix(1 0 0 1 725.0527 240.2637)" class="st1 st5 st6">®</text>
	<path class="st1" d="M706.6,354.7h-1c-0.4,0-0.8-0.3-0.8-0.8v-13.2c0-0.4,0.3-0.8,0.8-0.8h1c0.4,0,0.8,0.3,0.8,0.8v13.2
		C707.4,354.3,707.1,354.7,706.6,354.7z"/>
	<path class="st1" d="M582.8,346.7c37.1,27.4,66.7,52.8,102.2,45.8c30.8-5.8,25.6-36.8,20.4-40.2l0,0c-5.2,10.1-17.1,19.8-41.1,17.7
		c-24.9-2.2-42-8.3-73.7-39.1"/>
	<path class="st1" d="M705.4,352.3c-5.2,10.1-17.1,19.8-41.1,17.7c-24.9-2.2-42-8.3-73.7-39.1c0,0-1.4,3.6-3.3,7.4
		c10.6,10.3,35.5,31.6,61.2,40.8C679.2,390,710.1,378.7,705.4,352.3z"/>
	<g>
		<path class="st1" d="M588.1,319.5c-1-2.2-2.9-5.6-5.2-7.1c-6.9-4.3-14.1-4.9-22.7-1.9c-4.8,1.8-9.8,6-15,11.9
			c2-10.3-0.4-19.4-8.1-20.9c-4.5-1-13.5,1.5-15,4c-0.7,1.3,0,3.5,0.2,6.5c1.7,15.3-3.6,36.2-3.8,36.7c-15.6,24-29,61.6-29.7,79.1
			c-0.7,21.2,28.5,26.1,37.6-1c3.9-10.1,10.9-52.3,15.4-85.6c2.8-5,8.2-12.1,11.4-14.4c6.5-5.1,10.1-5.4,12.5-2
			c1.5,2.1,1.9,5.3,1.9,8.8c-12.2,6.8-19.3,12.5-22.7,17.6c-6.9,10-2.9,23.6,10.2,23.1C580.6,373.1,596.6,339.1,588.1,319.5
			L588.1,319.5z M500.2,431.2c-2.5-12.8,11.1-48.6,15.7-60.4C515.6,375,505.3,441.6,500.2,431.2L500.2,431.2z M555.8,356.5
			c1.7-2.6,5.1-5.1,9.7-8.1c-0.7,3.1-1.5,5.5-2,6.8C559.2,367.2,551.2,364.8,555.8,356.5z"/>
		<path class="st1" d="M537.1,301.5c-3.5-0.8-9.7,0.5-12.9,2.3c5.9-0.9,11.1,1.6,10.3,13.5c-1.2,18.4-7.9,65.4-13.6,90.7
			c-5.7,25.2-12.8,35.9-22.2,29.7c-9.5-6.2-0.1-34.7,3.5-45.2c3.7-10.5,11.8-26.1,14.3-31.1c1-6.4,2.1-12.8,2.1-12.7
			c-15.6,24-29,61.6-29.7,79.1c-0.7,21.2,28.5,26.1,37.6-1c3.7-9.5,10.1-47.7,14.6-80c0.2-1.7,0.4-3.5,0.8-5.6
			c1.8-10.3,2.4-13.3,3.4-18.8C547.1,312.1,544.7,302.9,537.1,301.5z"/>
		<path class="st1" d="M582.9,312.3c-6.9-4.3-14.1-4.9-22.7-1.9c-4.8,1.8-9.8,6-15,11.9c-1.2,3.3-1.1,5-1.5,7.8
			c16-19.3,33.7-20.8,36.4-1.4c2.8,19.4-10,33.4-15.4,37.6c-5.4,4.2-16.4,4.2-15.5-6c0.9-10.3,13.7-16.1,17.7-18
			c0.3-2.5,0.5-4.7,0.7-8.8c-12.2,6.8-19.3,12.5-22.7,17.6c-6.9,10-2.9,23.6,10.2,23.1c25.6-1.1,41.6-35.1,33-54.8
			C587.1,317.3,585.2,313.9,582.9,312.3z"/>
	</g>
</g>
</svg>
