<?xml version="1.0" encoding="utf-8"?>
<!-- Generator: Adobe Illustrator 23.0.4, SVG Export Plug-In . SVG Version: 6.00 Build 0)  -->
<svg version="1.1" id="Layer_1" xmlns="http://www.w3.org/2000/svg" xmlns:xlink="http://www.w3.org/1999/xlink" x="0px" y="0px"
	 viewBox="0 0 883 576" style="enable-background:new 0 0 883 576;" xml:space="preserve">
<style type="text/css">
	.st0{fill:none;stroke:#006837;stroke-miterlimit:10;}
	.st1{fill:#445262;}
	.st2{clip-path:url(#SVGID_2_);fill:#445262;}
	.st3{clip-path:url(#SVGID_4_);fill:#616E7A;}
	.st4{fill:#FFFFFF;}
</style>
<g>
	<path class="st1" d="M377.9,375.3c-0.7,4.6-5.1,0-11.6-1.5c-13-3-36.8-5-60.8-4.7c-1,18.3-4,69-3.5,92.4c0.6,21.9,8.9,28.5,0,28.7
		c-26.2,0.7-21.7-84.9-19.5-119.9c-25.8,2.2-47.2,7.9-49,18.8c-0.6,3.2-4.3,4.4-3.6,0.4c3.5-19.9,26.6-29.8,53.4-33.9
		c0-3.6,0.6-5.7,7.5-5.8c3.3,0,6.8,1.7,9.4,3.9c25.5-1.8,51.4,0.6,65.2,3.7C373.3,359.1,378.7,370.9,377.9,375.3z"/>
	<path class="st1" d="M395.2,512.7c0,5-20.9,5.4-20.9-14.7c0-19.9,4.4-48.9,4.4-55.6c0-6.6-5.4-8.9-5.4-8.9s-8.4,38.1-8.4,50.9
		c0,1-0.4,1.7-1.1,2.1c0.1,1.4-1.4,1.8-5.8,1.8c-31.6,0-11.6-97.6-11.6-104.1c0-2.1-1.8-7.5,3.9-7.5c3.9,0,14.8,1.9,14.8,8.3
		c0,6.2-8.6,44.8-8.6,74c0,6.8,1.1,12.2,2.5,16.2c2.6-14.8,10.9-46.9,15.1-46.9c5,0,20.6,3.3,20.6,14.5c0,11.3-2.5,36.5-2.5,49.4
		C392.1,508.5,395.2,510.7,395.2,512.7z"/>
	<path class="st1" d="M451.9,422.9c0,11.5-2.9,22.6-9.8,22.6c-7.1,0-12.2-2.8-12.2-5.8c0-3,2.4-15,2.4-15s-16.1,32-17.2,51.7
		c1.5,10.1,3.6,12.8,3.6,15.1c0,3.7-22.7,10.7-22.7-42.8c0-14.1,1.8-34.8,6.5-34.8c9.3,0,13.6,4.9,13.6,10.7
		c0,5.7-2.8,12.6-2.8,23.2c0,5.1,0.1,9.6,0.4,13.4c3.6-18.2,15.3-49.4,21.6-49.4C442.9,411.8,451.9,411.4,451.9,422.9z"/>
	<path class="st1" d="M494.5,449.1c0,22.7-7.6,48.6-27.1,48.6c-17.5,0-21.7-19.9-21.7-34.9c0-14,2.7-31.2,13.5-33.6
		c3.6-10,12.6-11,19.6-11C487.6,418.1,494.5,426.5,494.5,449.1z M477.9,427.2c-4.8,0-2.8,15.6-8.2,20.4c0.1,18-4,42.2,5.2,42.2
		C484.3,489.8,493.8,427.2,477.9,427.2z"/>
	<path class="st1" d="M567.6,447.4c-0.6,2.8-12.6,45-23.1,48.7c-0.4,0.2-1.1,0.4-2,0.4c-11.5,0-14.3-23.9-15.2-23.9
		c-1,0-5.6,18.6-15.3,18.6c-9.7,0-17.5-6.5-17.5-23.5c0-16.1,8.8-42.3,27-42.3c12.6,0,20.7,7.6,20.7,25.5c0,1.7-4.4,3.2-4.4,0.5
		c0-2.8,0-20.4-4.5-20.4c-12,0-22.7,21.8-22.7,44.4c0,4.5,0.5,11.9,4.2,11.9c3.7,0,11.4-25.6,11.4-32c0-2.5,0-6.9,7.4-6.9
		c7.5,0,10.5,3.4,10.5,6c0,0.7,0,1.3,0,2c0.4,8.3-0.4,31.9,3.7,31.9c2.6,0,16.1-38.7,16.9-41.4C565.4,444.2,568.2,444.3,567.6,447.4
		z"/>
	<path class="st1" d="M629.4,408.4c-9.9,3.1-31.6,6.5-51.6,8.1c-3.1,17.3-6.5,37.6-6.5,49.7c0,32.6,10.7,35.3,3.3,35.3
		c-7.4,0-18.4-14.3-18.4-41.1c0-12.5,2.3-28.6,4.8-43c-5.6,0.1-10.8-0.1-15-0.6c-12.1-1.5-20.8-7.4-27-11.5
		c-2.6-1.7-1.2-3.3,0.5-2.9c12.1,2.5,27.6,3.6,43.4,4l0.7-3.7c1.8-9.7,3.3-17,3.3-19.7c0-11.8,15-4.2,15,5c0,2.5-0.7,7.5-1.7,14.3
		l-0.7,4.2c21.1-0.1,40.6-1,50.2-1C633.2,405.5,632.4,407.4,629.4,408.4z"/>
	<g>
		<path class="st1" d="M371.3,409.6c0,0.4,0,0.8,0,1.2c-0.4-0.1-0.9-0.1-1.4-0.2c0.4-0.6,0.9-1.2,1.4-1.7
			C371.3,409.1,371.3,409.4,371.3,409.6z"/>
	</g>
	<g>
		<path class="st1" d="M371.3,409.6c0,0.4,0,0.8,0,1.2c-0.4-0.1-0.9-0.1-1.4-0.2c0.4-0.6,0.9-1.2,1.4-1.7
			C371.3,409.1,371.3,409.4,371.3,409.6z"/>
	</g>
	<g>
		<path class="st1" d="M379.9,306.9c0-16.6,5.8-31.9,15.6-43.8v87.6C385.7,338.8,379.9,323.6,379.9,306.9z"/>
		<path class="st1" d="M473.5,241.9v130c-7.5,2.8-15.7,4.3-24.2,4.3c-5.1,0-10-0.6-14.7-1.6h1.9V238.8c4.2-0.8,8.4-1.2,12.8-1.2
			c1.6,0,3.2,0.1,4.7,0.2v137.2h1.9v-137C462,238.5,467.9,239.9,473.5,241.9z"/>
		<path class="st1" d="M415,246.7v120.6c-6.6-3.8-12.5-8.6-17.5-14.2v-92.2C402.4,255.2,408.3,250.4,415,246.7z"/>
		<path class="st1" d="M434.5,239.2v135.5c-6.2-1.3-12.1-3.5-17.5-6.4V245.6C422.4,242.7,428.3,240.5,434.5,239.2z"/>
		<path class="st1" d="M492.9,253.1v107.7c-5.3,4.3-11.2,7.8-17.5,10.4V242.7C481.8,245.3,487.7,248.8,492.9,253.1z"/>
		<path class="st1" d="M510.5,274.4v65.1c-4,7.4-9.3,14.1-15.6,19.6V254.8C501.2,260.3,506.5,266.9,510.5,274.4z"/>
		<path class="st1" d="M518.6,306.9c0,10.2-2.2,19.9-6.1,28.6v-57.1C516.4,287.1,518.6,296.8,518.6,306.9z"/>
	</g>
	<g>
		<path class="st1" d="M449.2,389.3c-45.4,0-82.4-36.9-82.4-82.4s36.9-82.4,82.4-82.4s82.4,36.9,82.4,82.4S494.6,389.3,449.2,389.3z
			 M449.2,228.5c-43.3,0-78.5,35.2-78.5,78.5s35.2,78.5,78.5,78.5s78.5-35.2,78.5-78.5S492.5,228.5,449.2,228.5z"/>
	</g>
	<g>
		<path class="st1" d="M409.2,127.8c-4.2,8.5-11.9,15-15.6,23.7c-5.4,12.6-2.2,27.8,5.9,38.9c8.1,11.1,20.3,18.5,33.1,23.3
			c-7.4-7.6-10.4-19.3-7.6-29.5c2.9-10.5,11-18.7,15.3-28.7c5.2-11.9,4.7-25.7,1.1-38.1c-3.5-12.5-9.8-24-16.1-35.3
			c-4.2-7.6-11-20.9-18.1-25.7C407.2,56.3,417.7,110.8,409.2,127.8z"/>
	</g>
	<g>
		<path class="st1" d="M440.9,188.7c-0.6,8.2,2.5,16.6,8.6,22.1c3.8-8.2,13.8-11.3,20-17.9c5.5-6,7.6-14.6,6.7-22.8
			c-0.9-8.1-4.5-15.7-8.9-22.5c-4.5,18.6-7.3,15.2-13.9,20.8C453.3,168.5,441.9,175.6,440.9,188.7z"/>
	</g>
	<g>
		<path class="st1" d="M465.8,217.2c6.1-1.5,9.1,0.3,13.7-0.2c1.5-0.2,3.1-0.4,4.4-1.3c1.4-1,2.3-2.6,3.1-4.2
			c1.7-3.3,3.4-6.7,5.1-10c-3.9,0.8-7.9,1.5-11.8,2.3c-5.5,1.1-9.6,1.7-11.3,7.1L465.8,217.2z"/>
	</g>
	<g>
		<path class="st1" d="M397.7,207.8c-6.8-10.3-19.6-14.2-37.7-11.8c4.5,0,8.8,4.3,11.8,8.9c3,4.6,5.4,9.7,9.1,13.5
			c9.4,9.4,22.3,5.6,32.5,1.2C413.4,219.6,401.5,213.7,397.7,207.8z"/>
	</g>
</g>
</svg>
