<?xml version="1.0" encoding="utf-8"?>
<!-- Generator: Adobe Illustrator 23.0.4, SVG Export Plug-In . SVG Version: 6.00 Build 0)  -->
<svg version="1.1" id="Layer_1" xmlns="http://www.w3.org/2000/svg" xmlns:xlink="http://www.w3.org/1999/xlink" x="0px" y="0px"
	 viewBox="0 0 883 576" style="enable-background:new 0 0 883 576;" xml:space="preserve">
<style type="text/css">
	.st0{fill:none;stroke:#006837;stroke-miterlimit:10;}
	.st1{fill:#445262;}
	.st2{clip-path:url(#SVGID_2_);fill:#445262;}
	.st3{clip-path:url(#SVGID_4_);fill:#616E7A;}
	.st4{fill:#FFFFFF;}
</style>
<g>
	<defs>
		<path id="SVGID_1_" d="M767.7,185.5c4.8,1.2,8.8,4.4,11.3,8.9c2,3.7,2.4,8,1.6,12.1l-2.8,14.5l-4,20.8l-21.2,110.1
			c-1.6,8.4-9.2,15.5-17.6,16.6l-37.2,4.8l-256.7,28.4c-4,0.4-8,0.4-12,0l-193-22.3l-87.4-11c-8.5-1.1-16.1-8.2-17.7-16.5L102.7,206
			c-1-5.3,0.3-10.6,3.8-14.7c2.8-3.4,7-5.5,11.3-6.2L767.7,185.5z"/>
	</defs>
	<use xlink:href="#SVGID_1_"  style="overflow:visible;fill:#445262;"/>
	<clipPath id="SVGID_2_">
		<use xlink:href="#SVGID_1_"  style="overflow:visible;"/>
	</clipPath>
	<rect x="101.8" y="103.6" class="st2" width="679.8" height="378.1"/>
</g>
<g>
	<defs>
		<path id="SVGID_3_" d="M761.4,195.2l3.1,0.5c3.9,0.7,6.5,4.4,5.7,8.2l-3.8,19.8L765,231l-22.9,118.8c-0.7,3.9-4.6,7.4-8.5,8
			l-41.1,5.3l-252.6,25.7c-3.1,0.3-6.2,0.3-9.2,0L256,371.1l-106-13.4c-3.9-0.5-7.7-4.1-8.5-7.9L113.3,204c-0.8-3.9,1.8-7.6,5.7-8.2
			L761.4,195.2z"/>
	</defs>
	<use xlink:href="#SVGID_3_"  style="overflow:visible;fill:#616E7A;"/>
	<clipPath id="SVGID_4_">
		<use xlink:href="#SVGID_3_"  style="overflow:visible;"/>
	</clipPath>
	<rect x="112.5" y="114.3" class="st3" width="658.4" height="346.8"/>
</g>
<g>
	<g>
		<path class="st4" d="M271.3,219.6h25.9V310c0,22.6-14,37.7-40.6,37.7c-23.9,0-38.2-13.1-38.2-38.4v-12.7h23.5V308
			c0,12.5,4.1,18.6,14.7,18.6c11.9,0,14.7-5.4,14.7-19V219.6z"/>
		<path class="st4" d="M370.6,326.5c-0.7-2.2-1.3-5.4-1.5-8.2c-5.8,6.3-15.5,10.6-27.8,10.6c-20.9,0-30.6-10.3-30.6-25.2
			c0-26.5,17.7-29.5,42.1-32.8c12.1-1.7,15.5-4.1,15.5-10.4c0-6-6-9.5-15.5-9.5c-11,0-15.5,5.4-16.6,13.6h-22.6
			c0.4-19,10.8-32.3,40.3-32.3c29.1,0,39.2,13.1,39.2,36.2v58H370.6z M369,281.6c-2.4,2.4-6.7,3.7-15.7,5.4
			c-13.8,2.6-18.3,6.5-18.3,14.4c0,6.9,4.1,10.3,11.7,10.3c12.5,0,21.8-9.1,22-20L369,281.6z"/>
		<path class="st4" d="M468.3,314.4c-3.4,8.2-13.4,13.1-24.8,13.1c-19.2,0-33.6-13.1-33.6-33.2v-59.5h24.2v55.9
			c0,11.4,5.2,17.2,15.5,17.2c11,0,18.6-7.3,18.6-17.2v-55.9h24.2v94.2c0,25.9-18.6,41-42.1,41c-26.8,0-40.5-14.7-40.5-38.4h22.6
			c0,10.8,6.3,17.5,19,17.5c8.8,0,16.8-7.6,16.8-19.8V314.4z"/>
		<path class="st4" d="M612.3,262.6c-1.3-9-6.2-12.1-17.2-12.1c-9.1,0-14.4,2.2-14.4,7.6c0,5.4,5,7.6,14.9,10.4
			c10.4,3,20.3,5,27.4,7.8c9.7,3.9,15.1,10.3,15.1,22.2c0,19-14,30.4-40.1,30.4c-28.2,0-43.8-13.2-44.2-31.9h25
			c0,8.6,7.3,13.6,19,13.6c8.6,0,16.2-2.6,16.2-9.5c0-6.5-6.9-8.6-14.7-10.4c-15.5-3.7-24.1-6.3-30.6-10.4
			c-8.6-5.4-11.6-12.5-11.6-20.7c0-15.5,10.6-27.2,38.6-27.2c26.5,0,38.4,10.4,39.7,30.2H612.3z"/>
	</g>
	<g>
		<path class="st4" d="M668,244.3c-1.2-5.9-6.8-9.9-13-9.2c-6.7,0.7-11.4,6.8-10.3,13.4c0.9,5.6,5.9,9.8,11.7,9.8
			c0.6-0.1,1.3-0.1,1.9-0.2C664.9,257.1,669.4,250.8,668,244.3z M660,255.6c-1.2,0.4-2.4,0.7-3.6,0.7c-3.5-0.1-6.3-1.5-8.3-4.4
			c-2.7-3.9-1.9-9.1,1.8-12.3c4.2-3.6,10.7-3.1,14.3,1.1C668.3,245.7,666.2,253.3,660,255.6z"/>
		<path class="st4" d="M658.8,247c0.4-0.3,0.7-0.5,1-0.7c0.9-0.8,1.1-1.9,0.8-3c-0.3-1.1-1.1-1.5-2.1-1.8c-0.1,0-0.2-0.1-0.4-0.1
			c-1.8,0-3.6-0.1-5.3-0.1c-0.1,0-0.1,0-0.2,0.1v9.7h2.5v-3.5h1.2c0.9,1.2,1.8,2.4,2.6,3.5h3.1C660.9,249.7,659.9,248.4,658.8,247z
			 M657.3,245.6c-0.7,0.3-1.4,0.2-2.2,0.2v-2.6c0.8,0,1.7-0.1,2.4,0.2c0.4,0.2,0.5,0.6,0.5,1C658.1,245,657.9,245.5,657.3,245.6z"/>
	</g>
	<path class="st4" d="M552,210.5c-5.7,4.6-13,6.4-20,8.5c-3.4,1-6.8,2.2-9.9,3.8c-0.7,0.3-1.3,0.7-2,1.1c-1.9,1.2-3.8,2.6-5.4,4.3
		c-1.5,1.6-2.7,3.5-3.6,5.4c-1.5,3.1-2.2,6.5-2.8,9.9c-1,6.3-0.7,12.8,0.6,19c0.5,2.5,1.1,5.2,2.1,7.5c0.2,0.5,0.5,1.2,1,1.5
		c0.7,0.4,1.5-0.3,1.2-1c-2.6-5.2-2.8-11.8-1.5-17.4c1.5-6.5,5.7-11,11.3-14.2c1.5-0.9,3-1.7,4.6-2.5c0,0,0.1,0,0.1,0
		c0.3-0.1,0.6,0.4,0.2,0.6c-1.8,1.2-3.6,2.5-5.2,3.8c-8.2,6.4-10.1,18.1-6.7,17.5c0.3-0.1,0.6-0.2,0.9-0.4
		c4.8-3.1,11.1-4.3,16.6-6.4c2-0.7,3.8-1.6,5.5-2.7c6.8-4.4,10.9-11.4,12.7-19.1c1.3-5.8,1.1-12.3,1.8-18.2c0.1-0.8-0.5-1.3-1.1-1.2
		C552.3,210.3,552.2,210.4,552,210.5z"/>
</g>
</svg>
