<?xml version="1.0" encoding="utf-8"?>
<!-- Generator: Adobe Illustrator 23.0.4, SVG Export Plug-In . SVG Version: 6.00 Build 0)  -->
<svg version="1.1" id="Layer_1" xmlns="http://www.w3.org/2000/svg" xmlns:xlink="http://www.w3.org/1999/xlink" x="0px" y="0px"
	 viewBox="0 0 883 576" style="enable-background:new 0 0 883 576;" xml:space="preserve">
<style type="text/css">
	.st0{fill:none;stroke:#006837;stroke-miterlimit:10;}
	.st1{fill:#445262;}
	.st2{clip-path:url(#SVGID_2_);fill:#445262;}
	.st3{clip-path:url(#SVGID_4_);fill:#616E7A;}
	.st4{fill:#FFFFFF;}
</style>
<g>
	<g>
		<path class="st1" d="M282.2,448.4h-6.1l-1.4-10.4c-0.1-0.7-0.2-1.5-0.3-2.4c-0.1-0.9-0.2-1.9-0.2-2.9c-0.2,1-0.5,2.3-0.9,3.8
			c-0.1,0.3-0.2,0.6-0.2,0.7l-3.3,11.3h-4.4l-3.3-11.3c0-0.2-0.1-0.4-0.2-0.7c-0.5-1.5-0.8-2.8-0.9-3.8c-0.1,0.9-0.1,1.8-0.2,2.7
			c-0.1,0.9-0.2,1.8-0.3,2.7l-1.4,10.4H253l3.7-24h6.5l3.6,12.4c0,0.1,0.1,0.2,0.1,0.4c0.3,1.1,0.6,2.1,0.6,2.8
			c0-0.4,0.1-0.9,0.2-1.4c0.1-0.5,0.3-1.1,0.5-1.9l3.7-12.3h6.5L282.2,448.4z"/>
		<rect x="313.9" y="424.4" class="st1" width="6.6" height="24"/>
		<path class="st1" d="M353.8,448.4v-24h6.3l9.1,12.3c0.2,0.3,0.5,0.8,0.9,1.5c0.4,0.8,0.8,1.7,1.3,2.7c-0.1-1-0.2-1.9-0.3-2.7
			c-0.1-0.8-0.1-1.5-0.1-2.1v-11.9h6.3v24H371l-9.1-12.4c-0.2-0.2-0.5-0.8-0.9-1.5c-0.4-0.8-0.8-1.7-1.3-2.7c0.1,1,0.2,1.9,0.3,2.7
			c0.1,0.8,0.1,1.5,0.1,2.1v11.9H353.8z"/>
		<path class="st1" d="M410.4,448.4v-24h6.8c2.7,0,4.5,0.1,5.6,0.4c1.1,0.2,2,0.7,2.7,1.2c0.9,0.7,1.5,1.5,2,2.5
			c0.5,1,0.7,2.1,0.7,3.4c0,1.9-0.5,3.4-1.4,4.5c-0.9,1.2-2.2,1.9-4,2.3l6.5,9.7H422l-5.5-9.4v9.4H410.4z M416.5,435.7h1.2
			c1.4,0,2.4-0.2,3.1-0.7c0.6-0.5,1-1.2,1-2.3c0-1.2-0.3-2.1-0.9-2.6c-0.6-0.5-1.6-0.8-3.1-0.8h-1.3V435.7z"/>
		<rect x="460.1" y="424.4" class="st1" width="6.6" height="24"/>
		<path class="st1" d="M511.4,439.6v-5h12.9c0,0.2,0,0.3,0,0.5c0,0.2,0,0.5,0,0.9c0,4.1-1.1,7.3-3.3,9.6c-2.2,2.3-5.3,3.4-9.2,3.4
			c-1.9,0-3.7-0.3-5.2-0.9c-1.5-0.6-2.9-1.5-4.1-2.7c-1.1-1.1-2-2.5-2.6-4.1c-0.6-1.6-0.9-3.2-0.9-4.9c0-1.8,0.3-3.4,0.9-4.9
			c0.6-1.5,1.5-2.9,2.7-4.1c1.2-1.2,2.6-2.1,4.1-2.7c1.6-0.6,3.2-0.9,5-0.9c2.4,0,4.4,0.5,6.2,1.4c1.8,0.9,3.3,2.3,4.6,4.2l-5.7,2.7
			c-0.7-0.9-1.4-1.6-2.3-2.1c-0.9-0.5-1.8-0.7-2.8-0.7c-2,0-3.5,0.7-4.6,2c-1.1,1.3-1.7,3.1-1.7,5.4c0,2.3,0.6,4.1,1.7,5.4
			c1.1,1.3,2.7,2,4.6,2c1.7,0,3-0.4,4.2-1.2c1.1-0.8,1.8-1.9,1.9-3.3H511.4z"/>
		<polygon class="st1" points="556.3,448.4 556.3,424.4 562.8,424.4 562.8,433.7 571.5,433.7 571.5,424.4 578.1,424.4 578.1,448.4 
			571.5,448.4 571.5,438.6 562.8,438.6 562.8,448.4 		"/>
		<polygon class="st1" points="614.7,448.4 614.7,430.1 609.3,430.1 609.3,424.4 626.6,424.4 626.6,430.1 621.2,430.1 621.2,448.4 
					"/>
		<rect x="560.5" y="351.8" class="st1" width="71.6" height="49.4"/>
		<path class="st1" d="M539.2,127h-5.8v37.7v17.2v16.7h3.6c13,0,23.6,10.6,23.6,23.6v7.2c0,13-10.6,23.6-23.6,23.6h-3.6v16.7v17.2
			v37.7h5.8c51.3,0,93-41.7,93-93V220C632.1,168.7,590.4,127,539.2,127"/>
		<path class="st1" d="M539.2,253h-5.8v71.6h3.6c13,0,23.6,10.6,23.6,23.6v3.6h16.7h17.2h37.7v-5.8C632.1,294.7,590.4,253,539.2,253
			"/>
		<path class="st1" d="M345.2,127h5.8v71.6h-3.6c-13,0-23.6,10.6-23.6,23.6v3.6h-16.7h-17.2h-37.7V220
			C252.2,168.7,293.9,127,345.2,127"/>
		<rect x="252.2" y="225.8" class="st1" width="71.6" height="175.4"/>
		<rect x="346.3" y="127" class="st1" width="71.6" height="274.2"/>
		<rect x="439.8" y="127" class="st1" width="71.6" height="274.2"/>
		<rect x="347.4" y="127" class="st1" width="92.4" height="71.6"/>
	</g>
</g>
</svg>
