<?xml version="1.0" encoding="UTF-8" standalone="no"?>
<!DOCTYPE svg  PUBLIC '-//W3C//DTD SVG 1.1//EN'  'http://www.w3.org/Graphics/SVG/1.1/DTD/svg11.dtd'>
<svg xmlns="http://www.w3.org/2000/svg" version="1.1">
<defs>
<font id="Bolt-Regular" horiz-adv-x="1150">
<font-face x-height="956" panose-1="0 0 5 0 0 0 0 0 0 0" unicode-range="U+0020-007D" descent="-512" ascent="1536" underline-position="-150" font-weight="400" cap-height="1411" font-family="Bolt" bbox="-17 -511 1815 1628" underline-thickness="50" units-per-em="2048"/>
<missing-glyph/>
<glyph horiz-adv-x="507" unicode=" " glyph-name="space"/>
<glyph horiz-adv-x="540" unicode="!" glyph-name="exclam" d="M135 106q0 35 18 65t49 48q31 17 66 17q36 0 67.5 -17t49.5 -47t18 -66q0 -54 -39 -90t-96 -36q-55 0 -94 36q-39 34 -39 90zM344 379h-145l-21 1032h184z"/>
<glyph horiz-adv-x="727" unicode='&quot;' glyph-name="quotedbl" d="M299 1411v-590h-145v590h145zM573 1411v-590h-145v590h145z"/>
<glyph horiz-adv-x="1343" unicode="#" glyph-name="numbersign" d="M188 0l99 348h-213l47 174h213l96 359h-209l45 174h213l99 356h178l-99 -356h220l98 356h178l-98 -356h215l-47 -174h-217l-99 -359h215l-47 -174h-215l-100 -348h-176l98 348h-219l-101 -348h-174zM827 881h-219l-98 -359h219z"/>
<glyph unicode="$" glyph-name="dollar" d="M287 408q1 -64 41.5 -122t109.5 -93q70 -35 152 -35q80 0 141.5 26.5t98.5 74.5q35 47 44 106q1 5 1 20q0 89 -63.5 147.5t-176.5 83.5l-182 46q-344 87 -344 368q0 104 53.5 190t147.5 140q93 52 206 63v205h127v-207q112 -14 197.5 -68.5t132.5 -141.5q47 -88 47 -197 h-191q0 68 -33.5 120t-94.5 82q-63 29 -138 29q-71 0 -131.5 -27.5t-96.5 -75.5q-36 -49 -36 -110q0 -146 201 -196l184 -45q186 -48 283.5 -146.5t97.5 -241.5q0 -22 -4 -55q-12 -99 -66.5 -179t-144.5 -129q-94 -51 -207 -58v-226h-127v228q-119 15 -215 76t-151 154 q-54 92 -54 194h191z"/>
<glyph horiz-adv-x="1396" unicode="%" glyph-name="percent" d="M114 1242q36 63 99 100q62 36 137 36t138 -36.5t100 -99.5q37 -62 37 -138q0 -75 -36.5 -137.5t-99.5 -98.5q-64 -37 -139 -37t-137.5 36t-98.5 99q-36 62 -36 138q0 75 36 138zM257.5 1011.5q36.5 -36.5 92.5 -36.5q55 0 93 37t38 92q0 35 -17.5 65.5t-47.5 48.5 q-32 17 -66 17q-55 0 -92 -38t-37 -93q0 -56 36.5 -92.5zM1090 1378l-674 -1378h-135l673 1378h136zM810.5 390q36.5 63 99.5 100q62 36 137 36t138 -36.5t100 -99.5q36 -63 36 -138t-36.5 -137.5t-99.5 -98.5t-138 -36t-138 36t-99 99q-36 62 -36 137t36.5 138zM955 159.5 q37 -36.5 92 -36.5t93 37t38 92q0 35 -17.5 65.5t-47.5 48.5q-32 17 -66 17q-55 0 -92 -38t-37 -93q0 -56 37 -92.5z"/>
<glyph horiz-adv-x="1345" unicode="&amp;" glyph-name="ampersand" d="M168.5 644.5q55.5 98.5 153.5 160.5q-48 45 -74.5 111.5t-26.5 142.5q0 96 48 176.5t133 128.5q85 47 186 47q104 0 194.5 -54t145.5 -147l-152 -94q-31 54 -81 85.5t-107 31.5q-54 0 -97 -22.5t-67 -62.5q-25 -40 -25 -89q0 -50 24 -95t66 -72q40 -28 91 -28h276v93h176 v-95l178 30v-149l-178 -30v-281q0 -67 8.5 -112t29.5 -84q42 -82 175 -82v-172q-109 0 -195 40.5t-128 110.5q-53 -71 -146.5 -111t-202.5 -40q-131 0 -236 58.5t-165 162.5q-59 103 -59 229q0 114 55.5 212.5zM326.5 293q35.5 -62 99.5 -97q65 -36 147 -36q78 0 141.5 33.5 t101.5 93.5q37 58 40 133v293h-281q-77 0 -142 -38.5t-104 -103.5q-38 -65 -38 -139q0 -77 35.5 -139z"/>
<glyph horiz-adv-x="452" unicode="&apos;" glyph-name="quotesingle" d="M299 1411v-590h-145v590h145z"/>
<glyph horiz-adv-x="743" unicode="(" glyph-name="parenleft" d="M100 475q0 289 69.5 506t196.5 332q128 114 296 114v-182q-117 0 -204.5 -94t-135.5 -269q-48 -174 -48 -407q0 -232 48 -406t136 -269q87 -95 204 -95v-182q-169 0 -296 114t-196 330q-70 213 -70 508z"/>
<glyph horiz-adv-x="743" unicode=")" glyph-name="parenright" d="M82 -295q117 0 204.5 94t135.5 269q47 176 47 407q0 232 -47.5 406.5t-134.5 269.5q-88 94 -205 94v182q169 0 296 -115.5t196 -330.5q69 -216 69 -506q0 -289 -69 -504.5t-196 -331.5q-128 -116 -296 -116v182z"/>
<glyph horiz-adv-x="956" unicode="*" glyph-name="asterisk" d="M189 1056l30 18l64 35l66 34l-158 95l54 96q113 -67 161 -93v188h119l-2 -188l162 91l55 -95l-165 -95l161 -92l-60 -101l-158 93l-2 -178h-110v178l-157 -88z"/>
<glyph horiz-adv-x="1062" unicode="+" glyph-name="plus" d="M442 113v333h-331v179h331v331h179v-331h331v-179h-331v-333h-179z"/>
<glyph horiz-adv-x="526" unicode="," glyph-name="comma" d="M100 -80q35 66 51 103q14 32 19 62t5 81l-1 70h197q3 -39 3 -71q0 -149 -69 -223q-37 -38 -89 -80z"/>
<glyph horiz-adv-x="995" unicode="-" glyph-name="hyphen" d="M854 567v-178h-713v178h713z"/>
<glyph horiz-adv-x="544" unicode="." glyph-name="period" d="M139 106q0 35 18 65t49 48q31 17 66 17q36 0 67.5 -17t50.5 -47q18 -30 18 -66q0 -54 -39.5 -90t-96.5 -36q-55 0 -94 36q-39 35 -39 90z"/>
<glyph horiz-adv-x="1026" unicode="/" glyph-name="slash" d="M963 1411l-697 -1411h-203l697 1411h203z"/>
<glyph horiz-adv-x="1239" unicode="0" glyph-name="zero" d="M176 1014q41 152 148 246q53 46 128.5 70t168.5 24q109 0 195 -34t143 -97q51 -59 85 -147t47 -191q13 -91 13 -219q0 -126 -13.5 -221t-45.5 -181q-34 -93 -87.5 -152t-137.5 -94q-85 -36 -199 -36q-108 0 -195.5 34.5t-142.5 97.5q-51 57 -85 144.5t-49 191.5 q-14 104 -14 216q0 196 41 348zM327.5 502.5q8.5 -69.5 28.5 -131.5q22 -69 55 -112t86 -69q55 -26 124 -26q68 0 121.5 25t89.5 72q31 41 52 105t30 141q8 80 8 159q0 95 -8 165t-28 132q-21 67 -55 110.5t-86 69.5q-55 26 -124 26t-123 -25t-88 -71q-31 -42 -52.5 -106 t-30.5 -141q-8 -80 -8 -160q0 -94 8.5 -163.5z"/>
<glyph horiz-adv-x="684" unicode="1" glyph-name="one" d="M303 0v1104l-177 -6l-30 146l391 106v-1350h-184z"/>
<glyph horiz-adv-x="1079" unicode="2" glyph-name="two" d="M96 960q17 106 79.5 196.5t155.5 144.5q92 53 195 53q117 0 213 -53t152 -146q55 -92 55 -207q0 -90 -35 -171t-110 -165q-106 -122 -195 -230q-59 -70 -97 -120q-47 -60 -71 -88l510 10v-184h-805l-20 82l543 657q51 61 74.5 110.5t23.5 98.5q0 62 -30.5 112t-85.5 80 q-56 29 -122 29q-63 0 -114.5 -25.5t-84.5 -73.5q-35 -48 -42 -112z"/>
<glyph horiz-adv-x="1095" unicode="3" glyph-name="three" d="M260 340q33 -73 98 -120.5t142 -53.5h-2q75 -4 142.5 25t107.5 83q40 52 40 117q0 62 -35.5 118t-94.5 88q-62 32 -128 28l-151 -10v178l151 10q77 5 125.5 38.5t59.5 94.5q4 20 4 48q0 58 -25 100t-66 63q-49 25 -113 25q-67 0 -124 -30.5t-98 -90.5l-127 88 q57 98 156 158t210 60q109 0 200 -50.5t143 -137.5q47 -82 47 -173q0 -49 -13 -93q-35 -113 -155 -182q60 -23 111.5 -76t81.5 -122q29 -70 29 -139q0 -19 -1 -24q-10 -110 -79 -200.5t-179 -137.5q-90 -40 -194 -40q-73 0 -143 22t-132 65q-54 38 -89 81t-61 102z"/>
<glyph horiz-adv-x="1212" unicode="4" glyph-name="four" d="M750 0v274h-697l742 1063h137v-888h192v-175h-192v-274h-182zM760 439v557l-383 -557h383z"/>
<glyph horiz-adv-x="1155" unicode="5" glyph-name="five" d="M256 371q38 -99 120 -161t177 -62q101 0 172 36t105 101q34 62 34 145q0 79 -35.5 137t-98.5 89q-63 30 -142 30q-87 0 -157 -23.5t-175 -87.5l-115 95l117 665h713l-10 -176l-551 10l-74 -379q42 30 113.5 49t138.5 19q130 0 230.5 -49t162.5 -145q63 -99 63 -234 q0 -134 -62 -236t-176 -158q-115 -56 -263 -56q-93 0 -180 37.5t-156 107.5q-68 69 -109 160z"/>
<glyph horiz-adv-x="1138" unicode="6" glyph-name="six" d="M136 621q0 219 45.5 378.5t139.5 246.5q119 108 286 108q68 0 122 -12.5t108 -41.5q104 -57 171 -204l-164 -70q-36 75 -96 114.5t-132 39.5q-84 0 -150 -50.5t-102 -141.5q-37 -90 -37 -207q0 -33 3 -68q60 151 274 151q116 0 214 -63.5t152 -171.5q48 -96 48 -204 q0 -123 -60 -227t-164 -162q-97 -54 -211 -54q-61 0 -118.5 16t-106.5 46q-93 57 -148.5 158.5t-66.5 237.5q-7 99 -7 181zM378 298q30 -61 84 -95q55 -35 125 -35t132.5 33.5t99.5 92.5q37 58 37 129q0 67 -35 125t-95 94q-64 38 -138 38q-63 0 -116 -29q-56 -32 -89 -89 t-35 -128q0 -75 30 -136z"/>
<glyph horiz-adv-x="1085" unicode="7" glyph-name="seven" d="M1051 1337l-654 -1337h-245l587 1155h-612v182h924z"/>
<glyph unicode="8" glyph-name="eight" d="M172.5 620.5q57.5 95.5 154.5 155.5q-108 105 -108 236q0 94 46.5 172.5t128.5 124.5q81 45 181 45q99 0 182.5 -45.5t131.5 -124.5q47 -80 47 -172q0 -64 -31 -125.5t-84 -110.5q100 -62 157.5 -156.5t57.5 -201.5q0 -119 -60.5 -219.5t-166.5 -158.5t-234 -58 q-127 0 -233 57.5t-166 157.5q-61 100 -61 221q0 107 57.5 202.5zM335 289q36 -58 100 -91q62 -34 140 -34q76 0 140 34t101 92q36 59 36 128t-36.5 128t-100.5 95q-65 35 -140 35h-14q-72 -2 -132 -37t-95 -94t-35 -127q0 -71 36 -129zM401 1022q0 -43 21.5 -79.5 t59.5 -59.5q39 -24 83 -25h17q48 2 86.5 24.5t61.5 59.5q22 37 22 80t-23 79t-64 57q-40 21 -90 21q-73 0 -123 -45q-51 -46 -51 -112z"/>
<glyph horiz-adv-x="1136" unicode="9" glyph-name="nine" d="M179.5 1136q60.5 104 163.5 162q97 54 210 54q61 0 118.5 -16t106.5 -46q93 -57 148.5 -159t66.5 -238q7 -105 7 -187q0 -450 -183 -618q-118 -108 -287 -108q-69 0 -122.5 12.5t-106.5 42.5q-105 55 -172 203l164 69q36 -74 96 -113.5t131 -39.5q84 0 150 50.5 t103 141.5q37 90 37 207q0 34 -3 68q-30 -75 -101 -113.5t-174 -38.5q-116 0 -213.5 64t-151.5 172q-48 96 -48 204q0 123 60.5 227zM317.5 781.5q36.5 -58.5 98.5 -93.5t131 -35q68 0 122.5 31.5t86.5 88.5q32 55 33 126q0 75 -29.5 136.5t-83.5 95.5q-55 34 -126 34 q-70 0 -132 -34t-99 -93q-38 -59 -38 -130q0 -68 36.5 -126.5z"/>
<glyph horiz-adv-x="550" unicode=":" glyph-name="colon" d="M141 106q0 35 18 65t49 48q32 17 68 17t67 -17.5t49 -46.5q18 -30 18 -66q0 -35 -18 -65t-49 -47q-32 -17 -67 -17q-53 0 -95 39q-40 34 -40 90zM141 850q0 54 39 90.5t96 36.5q36 0 67 -17t49 -46t18 -64q0 -36 -18 -67t-49 -49t-67 -18q-52 0 -95 42q-40 37 -40 92z "/>
<glyph horiz-adv-x="581" unicode=";" glyph-name="semicolon" d="M170 850q0 55 38 91t95 36t96 -36.5t39 -90.5q0 -55 -39.5 -92t-95.5 -37q-57 0 -94 37q-39 38 -39 92zM100 -80q48 66 63 104t15 90l-2 53q-2 54 -2 69h197q-8 -115 -24.5 -181.5t-46.5 -107.5q-30 -43 -84 -85z"/>
<glyph horiz-adv-x="1273" unicode="&lt;" glyph-name="less" d="M1135 260v-194l-1039 395v178l1039 397v-198l-781 -287z"/>
<glyph horiz-adv-x="1245" unicode="=" glyph-name="equal" d="M1094 403v-178h-942v178h942zM1094 799v-178h-942v178h942z"/>
<glyph horiz-adv-x="1271" unicode="&gt;" glyph-name="greater" d="M1176 639v-178l-1037 -398v197l779 291l-779 287v198z"/>
<glyph horiz-adv-x="989" unicode="?" glyph-name="question" d="M90 1133q25 74 80.5 139.5t132.5 110.5q39 24 93 36.5t112 12.5q78 0 148.5 -25.5t126.5 -73.5q53 -46 80.5 -114.5t27.5 -153.5q0 -164 -84 -257l-42 -41q-23 -21 -59 -57l-14 -14l-33 -33q-41 -38 -55.5 -57.5t-25.5 -50.5q-20 -45 -20 -120v-82h-180v123 q0 76 21 136.5t59 99.5q56 57 93 87q57 46 87.5 82t45.5 75q16 42 16 94q0 58 -29 107.5t-79 79.5q-46 28 -106 28q-86 0 -150.5 -53.5t-97.5 -149.5zM389 182q34 30 82 30t80.5 -30t32.5 -74q0 -46 -30.5 -76t-80.5 -30q-52 0 -85 30t-33 76q0 44 34 74z"/>
<glyph horiz-adv-x="1986" unicode="@" glyph-name="at" d="M188.5 872q50.5 136 144.5 245q108 125 271.5 206.5t381.5 81.5q216 0 394 -91.5t281 -254.5q102 -160 102 -360q0 -152 -55.5 -284t-149.5 -208q-95 -77 -202 -77q-58 0 -104.5 41t-73.5 113q-80 -81 -147 -120t-134 -39q-111 0 -200 55t-141 154q-51 98 -51 221 q0 131 56.5 237t156 167t222.5 61q172 0 278 -133l-6 113h113l-3 -537q0 -31 -4 -60l-3 -48q0 -77 64 -77q57 0 112 58t88 153t33 198q0 249 -176 413q-88 81 -200 122t-235 41q-95 0 -186.5 -23.5t-166.5 -66.5q-156 -90 -244 -244.5t-88 -339.5q0 -155 69 -310 q85 -171 242.5 -264t381.5 -93q235 0 502 122l15 8l53 -147l-12 -7q-267 -129 -557 -129q-283 0 -483 116t-301 327q-88 182 -88 375q0 149 50.5 285zM740 420q24 -55 68 -87q43 -31 99 -31q71 0 133 41t100 113q38 71 38 149q0 62 -29.5 113t-82.5 80t-114 29 q-67 0 -120.5 -36t-84.5 -101q-31 -62 -31 -144q0 -71 24 -126z"/>
<glyph horiz-adv-x="1320" unicode="A" glyph-name="A" d="M361 348l-126 -348h-212l536 1411h215l524 -1411h-210l-127 348h-600zM895 530l-233 627l-234 -627h467z"/>
<glyph horiz-adv-x="1286" unicode="B" glyph-name="B" d="M183 0l10 1411h512q118 0 209.5 -44.5t142.5 -126.5t51 -193q0 -109 -41.5 -185.5t-126.5 -109.5q71 -15 127 -67t87 -127q30 -73 30 -150q0 -114 -49.5 -205.5t-142.5 -145.5q-96 -57 -222 -57h-587zM385 178h377q65 0 116.5 31t80.5 86q28 52 28 115t-30 119.5 t-83 92.5q-53 35 -118 35h-371v-479zM385 825h340q57 0 100 28t66 77q22 48 22 110q0 59 -29.5 103.5t-82.5 68.5q-54 23 -116 23h-300v-410z"/>
<glyph horiz-adv-x="1398" unicode="C" glyph-name="C" d="M143 951.5q43 119.5 123 217.5q92 112 230 185t319 73q144 0 262 -65t229 -194l-184 -89q-65 69 -102 99.5t-83 47.5q-51 17 -122 17q-144 0 -264.5 -71.5t-190.5 -197.5q-69 -124 -69 -272q0 -147 69 -271t190 -195q120 -72 265 -72q120 0 210 38.5t161 121.5l164 -101 q-96 -115 -236 -179t-299 -64q-143 0 -276 56t-231 155t-153 233.5t-55 277.5q0 130 43 249.5z"/>
<glyph horiz-adv-x="1482" unicode="D" glyph-name="D" d="M193 0v1411h496q98 0 198.5 -25t184.5 -71q88 -48 153 -129t106 -205q43 -129 43 -279q0 -149 -43 -276.5t-124 -223.5q-172 -202 -448 -202h-566zM383 178h376q102 0 178.5 37.5t134.5 113.5q54 73 83 168t29 205q0 155 -50.5 272t-149.5 188q-47 32 -131 51.5 t-164 19.5h-306v-1055z"/>
<glyph horiz-adv-x="1157" unicode="E" glyph-name="E" d="M1049 178v-178h-856v1411h835v-178h-645v-451h543v-178h-543v-426h666z"/>
<glyph horiz-adv-x="1077" unicode="F" glyph-name="F" d="M383 624v-624h-190v1411h823v-178h-633v-431h492v-178h-492z"/>
<glyph horiz-adv-x="1548" unicode="G" glyph-name="G" d="M142.5 952q42.5 120 121.5 217q91 111 229 184.5t320 73.5q135 0 258 -48t219 -138l-137 -127q-149 131 -340 131q-143 0 -263.5 -72t-189.5 -198q-69 -124 -69 -273q0 -147 68.5 -271.5t188.5 -196.5t265 -72q129 0 231 45t163 129q61 83 67 197l-412 -50v206h619 q0 -351 -172.5 -530t-495.5 -179q-144 0 -277 56t-230 155t-151.5 233t-54.5 278q0 130 42.5 250z"/>
<glyph horiz-adv-x="1449" unicode="H" glyph-name="H" d="M383 634v-634h-190v1411h190v-593h682v593h192v-1411h-192v634h-682z"/>
<glyph horiz-adv-x="575" unicode="I" glyph-name="I" d="M393 1411l-10 -1411h-180l-10 1411h200z"/>
<glyph horiz-adv-x="575" unicode="J" glyph-name="J" d="M13 -337h1q43 0 81.5 15t57.5 37q17 20 28 53t13 66q2 40 2 49v18l-10 1509h188l10 -1511q1 -202 -89.5 -306t-264.5 -104h-7z"/>
<glyph horiz-adv-x="1183" unicode="K" glyph-name="K" d="M383 542v-542h-190v1411h190v-670l487 670h215l-542 -764l635 -647h-256z"/>
<glyph horiz-adv-x="1013" unicode="L" glyph-name="L" d="M968 178v-178h-765l-10 1411h190l10 -1233h575z"/>
<glyph horiz-adv-x="1912" unicode="M" glyph-name="M" d="M430 1061l-129 -1061h-188l172 1411h174l497 -916l498 916h174l172 -1411h-188l-129 1061l-441 -785h-168z"/>
<glyph horiz-adv-x="1400" unicode="N" glyph-name="N" d="M393 1063l-10 -1063h-190l10 1411h188l637 -1055l-10 1055h190l10 -1411h-182z"/>
<glyph horiz-adv-x="1630" unicode="O" glyph-name="O" d="M200 1068.5q90 165.5 252 261.5q163 97 361 97q130 0 249 -43.5t216 -124.5q91 -77 146.5 -171t76.5 -190q19 -89 19 -196q0 -149 -51 -282.5t-146 -228.5q-98 -99 -231.5 -155t-278.5 -56q-144 0 -277 56t-230 155q-94 96 -145 229.5t-51 281.5q0 201 90 366.5zM315 838 q-14 -82 -14 -176q0 -143 61.5 -248t185.5 -178q120 -72 265 -72t266 71t190 196q34 63 46 110t12 121q0 101 -29 200.5t-84 180.5q-61 89 -162.5 144.5t-238.5 55.5q-143 0 -263.5 -71.5t-189.5 -197.5q-31 -54 -45 -136z"/>
<glyph horiz-adv-x="1241" unicode="P" glyph-name="P" d="M203 0l-10 1411h523q112 0 214 -38t149 -100q97 -128 97 -304t-97 -303q-48 -63 -145 -100.5t-208 -37.5h-341l10 -528h-192zM385 707h328q53 0 104.5 18t90.5 49q77 62 77 195q0 151 -99 224q-24 18 -74.5 29t-97.5 11h-329v-526z"/>
<glyph horiz-adv-x="1630" unicode="Q" glyph-name="Q" d="M142.5 952q42.5 120 121.5 217q91 111 229 184.5t320 73.5q130 0 249 -43.5t216 -124.5q109 -93 180.5 -233.5t71.5 -323.5q0 -189 -89.5 -352t-246.5 -262l167 -243l-187 -51l-138 220q-101 -34 -223 -34q-144 0 -277 56t-230 155t-151.5 233t-54.5 278q0 130 42.5 250z M354 443q63 -119 174 -191q112 -73 248 -80l50 -2q62 0 106 10l-174 284l176 42l160 -258q114 72 178.5 191.5t64.5 262.5q0 147 -68.5 271.5t-188.5 197.5q-121 72 -267 72q-143 0 -263.5 -71.5t-189.5 -197.5q-69 -124 -69 -272q0 -140 63 -259z"/>
<glyph horiz-adv-x="1267" unicode="R" glyph-name="R" d="M193 0v1411h542q104 0 188 -36.5t133 -101.5q97 -128 97 -304q0 -165 -85 -286q-40 -58 -131 -98.5t-193 -49.5l417 -535h-231l-405 528h-140v-528h-192zM385 707h336q132 0 183 72q26 36 39 85.5t13 104.5q0 152 -96 224q-52 40 -131 40h-344v-526z"/>
<glyph horiz-adv-x="1173" unicode="S" glyph-name="S" d="M277 448q2 -66 48 -136t119 -117q74 -47 156 -47q79 0 141 29t99 79q36 50 45 109q1 5 1 20q0 46 -17.5 85.5t-51.5 66.5q-68 55 -172 79l-182 46q-344 87 -344 368q0 112 62.5 204.5t169.5 143.5q101 49 224 49q131 0 232 -49t157 -140q56 -92 56 -214l-180 -30 q0 69 -34.5 129t-95.5 96q-62 36 -137 36q-71 0 -131.5 -29.5t-96.5 -80.5q-36 -52 -36 -113q0 -146 201 -196l184 -45q191 -50 286 -149.5t95 -236.5q0 -34 -4 -57q-14 -107 -75.5 -190t-162.5 -130q-102 -48 -233 -48q-102 0 -196 35t-160 96q-65 60 -101.5 138t-36.5 159 z"/>
<glyph horiz-adv-x="1163" unicode="T" glyph-name="T" d="M485 0l-10 1231h-408l-10 180h1039l10 -180h-438l10 -1231h-193z"/>
<glyph horiz-adv-x="1388" unicode="U" glyph-name="U" d="M178 1411h193v-876q0 -94 43.5 -179.5t118.5 -138.5q74 -53 161 -53q86 0 161.5 52.5t119.5 139.5q43 85 43 179v876h192v-926q0 -110 -40 -206t-113 -162q-71 -65 -166 -101t-197 -36t-196 35.5t-166 101.5q-73 67 -113.5 163t-40.5 205v926z"/>
<glyph unicode="V" glyph-name="V" d="M668 0h-183l-428 1411h199l319 -1039l320 1039h197z"/>
<glyph horiz-adv-x="1845" unicode="W" glyph-name="W" d="M674 0h-166l-477 1411h205l354 -1104l260 854h145l260 -854l355 1104h205l-478 -1411h-166l-249 821z"/>
<glyph horiz-adv-x="1259" unicode="X" glyph-name="X" d="M629 630l-379 -630h-227l491 778l-438 633h229l324 -478l325 478h230l-441 -633l494 -778h-229z"/>
<glyph horiz-adv-x="1286" unicode="Y" glyph-name="Y" d="M545 0l10 679l-545 732l228 -4l415 -537l400 537l229 4l-531 -732l-10 -679h-196z"/>
<glyph horiz-adv-x="1173" unicode="Z" glyph-name="Z" d="M1073 180v-180h-987v166l735 1055h-716v180h958v-176l-719 -1045h729z"/>
<glyph horiz-adv-x="669" unicode="[" glyph-name="bracketleft" d="M594 -295l-10 -170h-412v1876h412l10 -170h-228v-1536h228z"/>
<glyph horiz-adv-x="1026" unicode="\" glyph-name="backslash" d="M973 0h-203l-707 1411h203z"/>
<glyph horiz-adv-x="669" unicode="]" glyph-name="bracketright" d="M498 -465h-412l-10 170h227v1536h-227l10 170h412v-1876z"/>
<glyph horiz-adv-x="1431" unicode="_" glyph-name="underscore" d="M1290 -223h-1149l10 166h1149z"/>
<glyph horiz-adv-x="1048" unicode="`" glyph-name="grave" d="M676 1135h-178l-234 315h223z"/>
<glyph horiz-adv-x="1253" unicode="a" glyph-name="a" d="M157.5 739.5q65.5 116.5 178.5 177.5q110 60 242 60q109 0 200 -44t135 -120v153h185v-966h-155l-30 147q-45 -77 -136.5 -122t-198.5 -45q-134 0 -245 63.5t-176 177.5q-65 115 -65 258q0 144 65.5 260.5zM326 319q43 -73 118 -115q74 -42 160 -42q88 0 158 39.5 t110 111.5q39 72 39 168q0 93 -45.5 168t-120.5 112q-36 18 -69 26t-72 8q-88 0 -161.5 -40t-116.5 -111t-43 -163q0 -89 43 -162z"/>
<glyph horiz-adv-x="1253" unicode="b" glyph-name="b" d="M156 0v1477h186v-654q42 73 129 108.5t207 35.5q138 0 246 -57.5t171 -167.5q66 -115 66 -263q0 -144 -65.5 -260.5t-178.5 -177.5q-49 -28 -107 -39.5t-134 -11.5q-111 0 -200.5 41.5t-133.5 115.5v-147h-186zM388 314.5q44 -72.5 120 -112.5q74 -40 164 -40 q87 0 157.5 41t111.5 114q40 73 40 164t-40 163t-111 112q-70 39 -158 39q-62 0 -122 -20.5t-104 -58.5q-48 -40 -75 -102t-27 -133q0 -94 44 -166.5z"/>
<glyph horiz-adv-x="1048" unicode="c" glyph-name="c" d="M92 481q0 143 68.5 259t186.5 177q114 60 251 60q109 0 205 -40t164 -114l-132 -128q-45 45 -116.5 72.5t-140.5 27.5q-89 0 -157.5 -39t-106.5 -111q-38 -73 -38 -164q0 -93 38.5 -166t107.5 -114q70 -41 156 -41q70 0 141 28.5t116 75.5l134 -129 q-68 -74 -164.5 -114.5t-206.5 -40.5q-139 0 -253 62t-183 176q-70 115 -70 263z"/>
<glyph horiz-adv-x="1253" unicode="d" glyph-name="d" d="M156.5 739.5q64.5 116.5 176.5 177.5q108 60 240 60q113 0 203 -43.5t135 -120.5v664h187v-1477h-167l-20 147q-45 -76 -137 -121.5t-199 -45.5q-133 0 -242 61.5t-174 175.5q-67 115 -67 262q0 144 64.5 260.5zM315.5 319q42.5 -73 116.5 -115t160 -42q88 0 158 39.5 t110 111.5q39 72 39 168t-41.5 170t-114.5 110q-68 34 -151 34q-88 0 -161 -40t-115 -111q-43 -71 -43 -163q0 -89 42.5 -162z"/>
<glyph horiz-adv-x="1138" unicode="e" glyph-name="e" d="M155.5 737.5q63.5 113.5 176.5 177.5q112 62 250 62q137 0 245 -61.5t169 -174.5q61 -112 61 -260q0 -23 -6 -35q-6 -13 -6 -18l-766 -20q11 -78 53.5 -137.5t108.5 -91.5q67 -32 147 -32q67 0 110 8.5t75 31.5q32 21 59 68q24 -9 114 -9h33q37 0 43 -3 q-60 -121 -173 -187t-257 -66q-138 0 -252.5 62t-180.5 173q-67 110 -67 256q0 143 63.5 256.5zM872 553q-11 78 -52 136t-106 89q-63 31 -142 31q-119 0 -192.5 -67t-90.5 -189h583z"/>
<glyph horiz-adv-x="702" unicode="f" glyph-name="f" d="M55 769v157h185v127q0 128 36.5 223.5t107.5 148.5q72 54 177 54q25 0 45 -2l95 -10l-20 -179l-75 10l-23 2q-42 0 -74.5 -21.5t-50.5 -57.5q-17 -34 -23.5 -70t-6.5 -85v-13v-127h221l-10 -157h-211l-10 -769h-188l10 769h-185z"/>
<glyph horiz-adv-x="1251" unicode="g" glyph-name="g" d="M157.5 736.5q65.5 116.5 178.5 179.5q109 61 242 61q107 0 198.5 -46t136.5 -124l10 149h185l-10 -811q-4 -313 -133.5 -467.5t-389.5 -154.5q-136 0 -250 68t-182 190q2 1 25 17q22 15 56 25q53 17 75 30q39 -73 113.5 -113.5t162.5 -40.5q350 0 350 424q0 9 -1 12 t-1 11q-38 -76 -135 -121t-210 -45q-135 0 -244 60.5t-175 173.5q-67 112 -67 261q0 145 65.5 261.5zM315.5 313.5q42.5 -71.5 116.5 -111.5q73 -40 162 -40q59 0 115 21t102 60q44 38 67 98.5t23 135.5q0 96 -39 168.5t-109 111.5q-71 38 -159 38q-87 0 -160 -41.5 t-117 -113.5q-44 -74 -44 -163q0 -92 42.5 -163.5z"/>
<glyph horiz-adv-x="1187" unicode="h" glyph-name="h" d="M156 0v1477l186 -10v-654q24 49 75 87t116 58q61 19 124 19q121 0 210.5 -50.5t135.5 -146.5q46 -94 41 -227l-20 -553h-186l20 541q3 77 -23 137t-76 94q-49 33 -116 33q-49 0 -102 -19.5t-102 -52.5q-45 -31 -70.5 -88.5t-26.5 -128.5l-10 -516h-176z"/>
<glyph horiz-adv-x="495" unicode="i" glyph-name="i" d="M119 1239q0 51 37.5 86t91.5 35t91.5 -35t37.5 -86t-37.5 -86t-91.5 -35q-53 0 -91 35t-38 86zM330 956h-174v-956h184z"/>
<glyph horiz-adv-x="499" unicode="j" glyph-name="j" d="M-17 -295h1q43 0 81.5 15t57.5 37q17 20 28 53t13 66q2 40 2 49v18l-10 1013h188l10 -1015q2 -202 -88.5 -306t-265.5 -104h-7zM121 1239q0 51 37.5 86t91.5 35t91.5 -35t37.5 -86t-37.5 -86t-91.5 -35q-53 0 -91 35t-38 86z"/>
<glyph horiz-adv-x="1028" unicode="k" glyph-name="k" d="M340 437v-437h-184v1447l184 -10v-844l330 363h254l-410 -443l508 -513h-246z"/>
<glyph horiz-adv-x="497" unicode="l" glyph-name="l" d="M342 1466v-1466h-186v1477z"/>
<glyph horiz-adv-x="1804" unicode="m" glyph-name="m" d="M156 0v956h176l10 -143q32 66 107.5 110t156.5 50q6 1 28 1q45 0 77 -7q181 -27 250 -187q102 197 331 197q119 0 202.5 -49.5t126.5 -145.5q42 -93 40 -229l-10 -553h-186l10 541q1 78 -25 135t-76.5 88t-118.5 31h-3q-74 0 -130 -34.5t-88 -98.5q-32 -65 -33 -146 l-10 -516h-186l10 543q1 77 -24 134t-72 88q-48 30 -111 30q-116 0 -184.5 -72.5t-71.5 -206.5l-10 -516h-186z"/>
<glyph horiz-adv-x="1153" unicode="n" glyph-name="n" d="M156 0v956h176l10 -143q65 134 299 134q111 0 196.5 -55.5t131.5 -148.5q44 -92 41 -190l-16 -555l-181 2l10 541q2 119 -49.5 181.5t-151.5 62.5q-64 0 -112.5 -12t-82.5 -41q-44 -36 -70 -93t-25 -123l10 -516h-186z"/>
<glyph horiz-adv-x="1185" unicode="o" glyph-name="o" d="M115.5 334.5q-13.5 63.5 -13.5 146.5q0 147 63.5 261.5t176.5 174.5q112 60 250 60q139 0 252 -60.5t181 -173.5q32 -53 45.5 -116.5t13.5 -145.5q0 -147 -64 -263t-178 -177q-112 -61 -250 -61t-251.5 62t-179.5 176q-32 53 -45.5 116.5zM317.5 305q41.5 -73 114.5 -114 t160 -41q88 0 160 41t114 114q41 74 41 166q0 91 -41 163t-114 112q-72 39 -160 39t-160.5 -39.5t-113.5 -110.5q-42 -72 -42 -164q0 -93 41.5 -166z"/>
<glyph horiz-adv-x="1247" unicode="p" glyph-name="p" d="M156 -465v1421h176l10 -149q45 77 137 123.5t197 46.5q133 0 242.5 -64t173.5 -178q63 -115 63 -260q0 -144 -64 -259.5t-175 -175.5q-108 -60 -240 -60q-109 0 -194.5 42.5t-129.5 120.5l-1 -608h-195zM386 300q42 -71 115 -110q73 -38 156 -38q88 0 161 39.5t116 110.5 q43 70 43 161t-43 167t-117 121q-74 44 -160 44q-87 0 -158.5 -42.5t-112.5 -117.5q-42 -76 -42 -172q0 -92 42 -163z"/>
<glyph horiz-adv-x="1247" unicode="q" glyph-name="q" d="M154.5 727q62.5 110 173.5 171q110 59 243 59q114 0 203.5 -38.5t130.5 -111.5l10 149h177v-1421h-187v608q-42 -76 -133 -119.5t-201 -43.5q-134 0 -241 60.5t-172 173.5q-66 114 -66 261q0 142 62.5 252zM322.5 311.5q39.5 -70.5 110.5 -110.5q69 -39 157 -39 q84 0 152.5 35.5t115.5 105.5q57 89 57 170q0 94 -43.5 168t-118.5 114q-73 40 -163 40q-87 0 -157 -41t-110 -115q-40 -73 -40 -166q0 -91 39.5 -161.5z"/>
<glyph horiz-adv-x="808" unicode="r" glyph-name="r" d="M156 0v956h176l10 -215q33 115 99 169t167 54q129 0 166 -24l-29 -164q-28 14 -58.5 18.5t-82.5 4.5q-87 0 -152.5 -59.5t-92.5 -161.5q-11 -41 -14 -86.5t-3 -143.5v-348h-186z"/>
<glyph horiz-adv-x="899" unicode="s" glyph-name="s" d="M256 287q5 -33 26 -62.5t52 -46.5q30 -18 56.5 -26t61.5 -8q28 0 33 1q69 5 107.5 36t38.5 82q0 47 -34.5 81t-92.5 47l-131 31q-133 35 -195.5 102t-62.5 171l2 38q6 67 52.5 123t121.5 89q75 32 158 32q131 0 220 -61q44 -29 69.5 -85.5t31.5 -133.5l-168 10 q-7 51 -44 79.5t-95 28.5q-55 0 -99.5 -24.5t-54.5 -61.5q-6 -21 -6 -49q0 -16 8 -27q22 -47 113 -73l141 -35q248 -62 248 -279q0 -83 -48.5 -148.5t-134.5 -101.5q-85 -36 -188 -36q-92 0 -170 36t-129 105q-23 31 -34 74t-13 102z"/>
<glyph horiz-adv-x="671" unicode="t" glyph-name="t" d="M217 0v809h-162v147h162v361h187v-361h212v-147h-212v-809h-187z"/>
<glyph unicode="u" glyph-name="u" d="M143 956h187v-540q0 -80 25.5 -139.5t72.5 -92t111 -32.5q97 0 185 72q40 33 62.5 88.5t22.5 127.5v516h186v-956h-176l-10 143q-37 -75 -119.5 -119t-177.5 -44q-177 0 -273 108.5t-96 306.5v8v553z"/>
<glyph horiz-adv-x="1044" unicode="v" glyph-name="v" d="M612 0h-180l-397 956h196l291 -688l289 688h199l-400 -956h2z"/>
<glyph horiz-adv-x="1617" unicode="w" glyph-name="w" d="M555 0h-152l-364 956l199 -10l239 -659l240 669h180l240 -669l239 659l199 10l-354 -956h-154l-260 672z"/>
<glyph horiz-adv-x="1024" unicode="x" glyph-name="x" d="M512 371l-268 -361l-219 -10l378 524l-311 432l223 -10l197 -270l199 270l223 10l-313 -432l378 -524l-221 10z"/>
<glyph horiz-adv-x="1042" unicode="y" glyph-name="y" d="M219 -465l221 534l-403 887l199 -10l296 -682l277 682l199 10l-594 -1421h-195z"/>
<glyph horiz-adv-x="1028" unicode="z" glyph-name="z" d="M918 178l10 -178h-842v154l579 624h-536l-10 178h809v-153l-590 -625h580z"/>
<glyph horiz-adv-x="819" unicode="{" glyph-name="braceleft" d="M80 543q31 0 60 19t48 50q17 29 17 56v360q0 116 52 207t145 142q92 50 206 50h131v-151l-137 -10q-221 -17 -221 -188v-410q0 -60 -27.5 -112.5t-72.5 -76.5q42 -24 71 -78t29 -108v-406q0 -90 58.5 -136.5t162.5 -53.5l137 -10v-152h-131q-113 0 -205 50.5t-145 142.5 t-53 209v356q0 27 -17.5 56.5t-46.5 48.5q-28 19 -61 19v126z"/>
<glyph horiz-adv-x="471" unicode="|" glyph-name="bar" d="M299 1628v-1862l-127 -10v1862z"/>
<glyph horiz-adv-x="819" unicode="}" glyph-name="braceright" d="M80 -313l137 10q102 7 161.5 58t59.5 142v396q0 54 29.5 108t71.5 78q-45 24 -73 76.5t-28 112.5v400q0 90 -59.5 140.5t-161.5 57.5l-137 10v151h131q114 0 206.5 -50t144.5 -141t52 -208v-360q0 -27 17.5 -56.5t46.5 -48.5q29 -20 61 -20v-126q-31 0 -60 -19t-47 -49 q-18 -28 -18 -56v-356q0 -117 -52.5 -208.5t-145.5 -142.5q-92 -51 -205 -51h-131v152z"/>
</font>
</defs>
</svg>
