<?xml version="1.0" encoding="utf-8"?>
<!-- Generator: Adobe Illustrator 23.0.4, SVG Export Plug-In . SVG Version: 6.00 Build 0)  -->
<svg version="1.1" id="Layer_1" xmlns="http://www.w3.org/2000/svg" xmlns:xlink="http://www.w3.org/1999/xlink" x="0px" y="0px"
	 viewBox="0 0 338 307.9" style="enable-background:new 0 0 338 307.9;" xml:space="preserve">
<style type="text/css">
	.st0{fill:#FFFFFF;stroke:#FFFFFF;stroke-miterlimit:10;}
</style>
<g>
	<path class="st0" d="M169.6,71.5c13.4,0,24.3-10.9,24.3-24.3S183,22.9,169.6,22.9s-24.4,10.8-24.4,24.3S156.1,71.5,169.6,71.5z"/>
	<circle class="st0" cx="169.6" cy="47.2" r="12.2"/>
	<path class="st0" d="M178.4,75.4c-0.1,0-0.2,0-0.3,0h-17c-18.3-0.5-33.6,13.9-34.1,32.2c0,0.1,0,0.2,0,0.3v4.9
		c0,3.3,3.3,5.2,6.7,5.2h71.8c3.3,0,6.7-1.8,6.7-5.2v-4.9C211.8,89.7,196.7,75.1,178.4,75.4z"/>
	<path class="st0" d="M139.8,105.9c0.6-9.1,10-18.3,21.3-18.3h17c11.3,0,20.7,9.1,21.3,18.3C199.4,105.9,139.8,105.9,139.8,105.9z"
		/>
	<path class="st0" d="M70.7,177.3c3.4,0,6.1-2.7,6.1-6.1c0-28.1,12.7-54.8,34.7-72.4c2.4-2.3,2.5-6.2,0.1-8.6
		c-2-2.1-5.3-2.4-7.7-0.8c-24.8,19.9-39.3,50-39.2,81.8C64.6,174.6,67.4,177.3,70.7,177.3z"/>
	<path class="st0" d="M199.2,259.1c0,0-0.1,0-0.1,0.1c-19.1,6.4-39.7,6.4-58.7,0c-3.2-1-6.6,0.8-7.6,4c-1.2,3,0.3,6.3,3.3,7.5
		c0.1,0,0.2,0.1,0.4,0.1c21.6,7.3,45,7.3,66.6,0c3.2-1.2,5-4.6,4-7.9C205.9,259.8,202.4,258,199.2,259.1z"/>
	<path class="st0" d="M223.1,95.5c24.6,17.3,39.3,45.6,39.2,75.7c0,3.4,2.7,6.1,6.1,6.1s6.1-2.7,6.1-6.1
		c-0.1-34.1-16.6-66-44.4-85.8c-2.8-1.9-6.6-1.3-8.5,1.5C219.7,89.8,220.3,93.6,223.1,95.5z"/>
	<circle class="st0" cx="78.3" cy="214.5" r="24.3"/>
	<circle class="st0" cx="78.3" cy="214.5" r="12.2"/>
	<path class="st0" d="M87.2,242.7c-0.1,0-0.2,0-0.3,0h-17c-18.4-0.5-33.7,14-34.2,32.3c0,0.1,0,0.2,0,0.3v4.9c0,3.3,3.3,5.2,6.7,5.2
		h71.8c3.3,0,6.7-1.8,6.7-5.2v-4.9C120.6,257,105.5,242.4,87.2,242.7z"/>
	<path class="st0" d="M48.5,273.2c0.6-9.1,10-18.3,21.3-18.3h17c11.3,0,20.7,9.1,21.3,18.3H48.5L48.5,273.2z"/>
	<path class="st0" d="M236.5,214.5c0,13.4,10.9,24.3,24.3,24.3c13.4,0,24.3-10.9,24.3-24.3s-10.9-24.3-24.3-24.3
		C247.4,190.1,236.5,201,236.5,214.5z"/>
	<circle class="st0" cx="260.8" cy="214.5" r="12.2"/>
	<path class="st0" d="M269.7,242.7c-0.1,0-0.2,0-0.3,0h-17c-18.3-0.5-33.6,13.9-34.1,32.2c0,0.1,0,0.2,0,0.3v4.9
		c0,3.3,3.3,5.2,6.7,5.2h71.7c3.3,0,6.7-1.8,6.7-5.2v-4.9C303.1,257,288,242.4,269.7,242.7z"/>
	<path class="st0" d="M231,273.2c0.6-9.1,10-18.3,21.3-18.3h17c11.3,0,20.7,9.1,21.3,18.3H231L231,273.2z"/>
</g>
</svg>
