<?xml version="1.0" encoding="utf-8"?>
<!-- Generator: Adobe Illustrator 23.0.4, SVG Export Plug-In . SVG Version: 6.00 Build 0)  -->
<svg version="1.1" id="Layer_1" xmlns="http://www.w3.org/2000/svg" xmlns:xlink="http://www.w3.org/1999/xlink" x="0px" y="0px"
	 viewBox="0 0 338 307.9" style="enable-background:new 0 0 338 307.9;" xml:space="preserve">
<style type="text/css">
	.st0{fill:#FFFFFF;}
</style>
<path class="st0" d="M232.1,170.1c-0.9-0.1-1.5-0.4-2.2-0.4c-4.3,0-8.7,0-13.6,0c0,5.5,0,10.8,0,16.1c-0.1,11.4-9.6,18.6-20.7,15.5
	c-6.9-1.9-11-7.3-11.3-15.3c-0.1-5.2,0-10.5,0-16.2c-6.1,0-12.1-0.1-18,0.1c-0.8,0-1.6,1.9-2.2,3.1c-8.3,18.2-25.7,29.1-45.5,28.7
	c-23.6-0.6-43.9-20.4-45.7-44.4S88.7,110.9,112,107c22.2-3.6,42.9,7.4,52,28c1.2,2.6,2.5,3.3,5.3,3.3c25.3-0.2,50.5-0.2,75.8-0.4
	c12.6,0,18.9,6.1,18.9,18.7c0,9.4,0,18.9,0,28.3c0,10-6.3,16.4-15.7,16.6c-9.5,0-16-6.3-16.1-16.2
	C232.1,180,232.1,175.1,232.1,170.1z M135.9,153.9c0-9.6-6-15.9-15.2-15.9c-9,0-15.7,6.7-15.7,15.7c0,9,6.6,15.9,15.6,15.9
	C129.6,169.7,135.9,163.4,135.9,153.9z"/>
</svg>
