<?xml version="1.0" encoding="utf-8"?>
<!-- Generator: Adobe Illustrator 23.0.4, SVG Export Plug-In . SVG Version: 6.00 Build 0)  -->
<svg version="1.1" id="Layer_1" xmlns="http://www.w3.org/2000/svg" xmlns:xlink="http://www.w3.org/1999/xlink" x="0px" y="0px"
	 viewBox="0 0 338 307.9" style="enable-background:new 0 0 338 307.9;" xml:space="preserve">
<style type="text/css">
	.st0{fill:#FFFFFF;}
</style>
<g>
	<g>
		<g>
			<path class="st0" d="M255.5,184.2c-4.7,0-8.6,3.9-8.6,8.6s3.9,8.6,8.6,8.6s8.6-3.9,8.6-8.6S260.3,184.2,255.5,184.2z"/>
		</g>
	</g>
	<g>
		<g>
			<path class="st0" d="M307.1,63.8H109v25.8c0,4.8-3.8,8.6-8.6,8.6c-4.8,0-8.6-3.8-8.6-8.6V63.8H30.9c-4.8,0-8.6,3.8-8.6,8.6V124
				c0,4.8,3.8,8.6,8.6,8.6c14.2,0,25.8,11.6,25.8,25.8s-11.6,25.8-25.8,25.8c-4.8,0-8.6,3.8-8.6,8.6v51.6c0,4.8,3.8,8.6,8.6,8.6
				h60.2v-25.8c0-4.8,3.8-8.6,8.6-8.6c4.8,0,8.6,3.8,8.6,8.6V253h198.8c4.8,0,8.6-3.8,8.6-8.6v-172
				C315.7,67.7,311.9,63.8,307.1,63.8z M108.3,192.8c0,4.8-3.8,8.6-8.6,8.6c-4.8,0-8.6-3.8-8.6-8.6v-17.2c0-4.8,3.8-8.6,8.6-8.6
				c4.8,0,8.6,3.8,8.6,8.6V192.8z M108.3,141.2c0,4.8-3.8,8.6-8.6,8.6c-4.8,0-8.6-3.8-8.6-8.6V124c0-4.8,3.8-8.6,8.6-8.6
				c4.8,0,8.6,3.8,8.6,8.6V141.2z M161,124c0-14.2,11.6-25.8,25.8-25.8s25.8,11.6,25.8,25.8s-11.6,25.8-25.8,25.8
				C172.5,149.8,161,138.2,161,124z M182,217.1c-4-2.6-5-8-2.4-11.9L248.4,102c2.6-4,8-5,11.9-2.4c4,2.6,5,8,2.4,11.9l-68.8,103.1
				C191.3,218.6,186,219.8,182,217.1z M255.5,218.5c-14.2,0-25.8-11.6-25.8-25.8s11.6-25.8,25.8-25.8c14.2,0,25.8,11.6,25.8,25.8
				C281.3,207,269.7,218.5,255.5,218.5z"/>
		</g>
	</g>
	<g>
		<g>
			<path class="st0" d="M186.8,115.4c-4.7,0-8.6,3.9-8.6,8.6s3.9,8.6,8.6,8.6c4.7,0,8.6-3.9,8.6-8.6
				C195.4,119.3,191.5,115.4,186.8,115.4z"/>
		</g>
	</g>
</g>
</svg>
