<?xml version="1.0" encoding="utf-8"?>
<!-- Generator: Adobe Illustrator 23.0.4, SVG Export Plug-In . SVG Version: 6.00 Build 0)  -->
<svg version="1.1" id="Layer_1" xmlns="http://www.w3.org/2000/svg" xmlns:xlink="http://www.w3.org/1999/xlink" x="0px" y="0px"
	 viewBox="0 0 338 307.9" style="enable-background:new 0 0 338 307.9;" xml:space="preserve">
<style type="text/css">
	.st0{fill:#FFFFFF;}
</style>
<g>
	<g>
		<path class="st0" d="M282.2,92.9h-43.6V40.6c0-4.8-3.9-8.7-8.7-8.7H55.6c-4.8,0-8.7,3.9-8.7,8.7v200.5c0,19.3,15.6,34.9,34.9,34.9
			h174.3c19.3,0,34.9-15.6,34.9-34.9V101.6C291,96.8,287.1,92.9,282.2,92.9z M116.6,75.5h52.3c4.8,0,8.7,3.9,8.7,8.7
			s-3.9,8.7-8.7,8.7h-52.3c-4.8,0-8.7-3.9-8.7-8.7S111.8,75.5,116.6,75.5z M195.1,241.1H90.5c-4.8,0-8.7-3.9-8.7-8.7
			s3.9-8.7,8.7-8.7h104.6c4.8,0,8.7,3.9,8.7,8.7S199.9,241.1,195.1,241.1z M195.1,206.2H90.5c-4.8,0-8.7-3.9-8.7-8.7
			s3.9-8.7,8.7-8.7h104.6c4.8,0,8.7,3.9,8.7,8.7C203.8,202.3,199.9,206.2,195.1,206.2z M195.1,171.4H90.5c-4.8,0-8.7-3.9-8.7-8.7
			s3.9-8.7,8.7-8.7h104.6c4.8,0,8.7,3.9,8.7,8.7C203.8,167.5,199.9,171.4,195.1,171.4z M195.1,136.5H90.5c-4.8,0-8.7-3.9-8.7-8.7
			c0-4.8,3.9-8.7,8.7-8.7h104.6c4.8,0,8.7,3.9,8.7,8.7C203.8,132.6,199.9,136.5,195.1,136.5z M273.5,241.1c0,9.6-7.8,17.4-17.4,17.4
			c-9.6,0-17.4-7.8-17.4-17.4V110.4h34.9L273.5,241.1L273.5,241.1z"/>
	</g>
</g>
</svg>
