<?xml version="1.0" encoding="utf-8"?>
<!-- Generator: Adobe Illustrator 23.0.4, SVG Export Plug-In . SVG Version: 6.00 Build 0)  -->
<svg version="1.1" id="Layer_1" xmlns="http://www.w3.org/2000/svg" xmlns:xlink="http://www.w3.org/1999/xlink" x="0px" y="0px"
	 viewBox="0 0 338 307.9" style="enable-background:new 0 0 338 307.9;" xml:space="preserve">
<style type="text/css">
	.st0{fill:#FFFFFF;}
</style>
<path class="st0" d="M243.6,96.5l20.1-20.2c3-3,3-8,0-11s-8-3-11,0l-20.9,20.9c-16.6-12.5-36.8-20.5-58.8-22V46.7h9.4
	c7.1,0,12.9-5.8,12.9-12.9s-5.8-12.9-12.9-12.9H148c-7.1,0-12.9,5.8-12.9,12.9s5.8,12.9,12.9,12.9h9.4v17.6
	c-22,1.5-42.2,9.5-58.8,22l-20.8-21c-3-3-8-3-11,0s-3,8,0,11l20.1,20.2c-20.2,20.2-32.7,48-32.7,78.7c0,61.3,49.8,111.2,111,111.2
	s111-49.9,111-111.2C276.2,144.5,263.7,116.7,243.6,96.5L243.6,96.5z M165.2,259c-46.1,0-83.6-37.6-83.6-83.8s37.5-83.8,83.6-83.8
	s83.6,37.6,83.6,83.8C248.8,221.4,211.3,259,165.2,259L165.2,259z"/>
<path class="st0" d="M165.2,107c-37.5,0-68.1,30.6-68.1,68.2s30.5,68.2,68.1,68.2s68.1-30.6,68.1-68.2
	C233.3,137.6,202.8,107,165.2,107z M191.1,183h-25.9c-4.3,0-7.8-3.5-7.8-7.8v-37c0-4.3,3.5-7.8,7.8-7.8s7.8,3.5,7.8,7.8v29.3h18.1
	c4.3,0,7.8,3.5,7.8,7.8C198.9,179.5,195.4,183,191.1,183L191.1,183z"/>
</svg>
