<?xml version="1.0" encoding="utf-8"?>
<!-- Generator: Adobe Illustrator 23.0.4, SVG Export Plug-In . SVG Version: 6.00 Build 0)  -->
<svg version="1.1" id="Layer_1" xmlns="http://www.w3.org/2000/svg" xmlns:xlink="http://www.w3.org/1999/xlink" x="0px" y="0px"
	 viewBox="0 0 338 307.9" style="enable-background:new 0 0 338 307.9;" xml:space="preserve">
<style type="text/css">
	.st0{fill:#ED390B;}
</style>
<g>
	<path class="st0" d="M78.4,161.1c1.9,0,3.9-0.7,5.3-2.2l55.1-55.1l24.9,24.9c3,3,7.7,3,10.7,0l77.8-77.8v12c0,4.2,3.4,7.6,7.6,7.6
		c4.2,0,7.6-3.4,7.6-7.6V32.6c0-0.2,0-0.5,0-0.7c0-0.1,0-0.2-0.1-0.4c0-0.1,0-0.2-0.1-0.4c0-0.1-0.1-0.3-0.1-0.4
		c0-0.1,0-0.2-0.1-0.3c0-0.2-0.1-0.3-0.2-0.4c0-0.1-0.1-0.2-0.1-0.2c-0.1-0.2-0.1-0.3-0.2-0.4c0-0.1-0.1-0.1-0.1-0.2
		c-0.1-0.2-0.2-0.3-0.3-0.5c0-0.1-0.1-0.1-0.1-0.2c-0.1-0.2-0.3-0.4-0.4-0.6c0,0,0,0,0,0c-0.3-0.4-0.7-0.8-1.1-1.1c0,0,0,0,0,0
		c-0.2-0.2-0.4-0.3-0.6-0.4c-0.1,0-0.1-0.1-0.2-0.1c-0.2-0.1-0.3-0.2-0.5-0.3c-0.1,0-0.1-0.1-0.2-0.1c-0.1-0.1-0.3-0.1-0.4-0.2
		c-0.1,0-0.2-0.1-0.2-0.1c-0.1-0.1-0.3-0.1-0.4-0.2c-0.1,0-0.2,0-0.3-0.1c-0.1,0-0.3-0.1-0.4-0.1c-0.1,0-0.2,0-0.4-0.1
		c-0.1,0-0.2,0-0.4-0.1c-0.2,0-0.5,0-0.7,0h-30.2c-4.2,0-7.6,3.4-7.6,7.6s3.4,7.6,7.6,7.6h12L169,112.6l-24.9-24.9
		c-3-3-7.7-3-10.7,0L73,148.2c-3,3-3,7.7,0,10.7C74.5,160.3,76.4,161.1,78.4,161.1z"/>
	<path class="st0" d="M40.1,275.4c0,4.2,3.4,7.6,7.6,7.6h60.4c4.2,0,7.6-3.4,7.6-7.6v-10.6H40.1V275.4z"/>
	<path class="st0" d="M108.1,231.6H47.6c-4.2,0-7.6,3.4-7.6,7.6v10.6h75.5v-10.6C115.6,234.9,112.2,231.6,108.1,231.6z"/>
	<path class="st0" d="M131.2,275.4c0,4.2,3.4,7.6,7.6,7.6h60.4c4.2,0,7.6-3.4,7.6-7.6v-10.6h-75.5V275.4z"/>
	<path class="st0" d="M222.4,231.6h75.5v18.1h-75.5V231.6z"/>
	<path class="st0" d="M290.4,131.8h-60.4c-4.2,0-7.6,3.4-7.6,7.6V150h75.5v-10.6C297.9,135.2,294.5,131.8,290.4,131.8z"/>
	<path class="st0" d="M222.4,165.1h75.5v18.1h-75.5V165.1z"/>
	<path class="st0" d="M222.4,198.3h75.5v18.1h-75.5V198.3z"/>
	<path class="st0" d="M222.4,275.4c0,4.2,3.4,7.6,7.6,7.6h60.4c4.2,0,7.6-3.4,7.6-7.6v-10.6h-75.5V275.4z"/>
	<path class="st0" d="M131.2,231.6h75.5v18.1h-75.5V231.6z"/>
	<path class="st0" d="M199.2,198.3h-60.4c-4.2,0-7.6,3.4-7.6,7.6v10.6h75.5v-10.6C206.8,201.7,203.4,198.3,199.2,198.3z"/>
</g>
</svg>
