<?xml version="1.0" encoding="utf-8"?>
<!-- Generator: Adobe Illustrator 23.0.4, SVG Export Plug-In . SVG Version: 6.00 Build 0)  -->
<svg version="1.1" id="Layer_1" xmlns="http://www.w3.org/2000/svg" xmlns:xlink="http://www.w3.org/1999/xlink" x="0px" y="0px"
	 viewBox="0 0 338 307.9" style="enable-background:new 0 0 338 307.9;" xml:space="preserve">
<style type="text/css">
	.st0{fill:#ED390B;}
	.st1{fill:#FFFFFF;}
</style>
<path class="st1" d="M206.5,129v-6.2c0-20.7-16.8-37.5-37.5-37.5h-37.5v137.3h25v-56.2h2.9l20.4,56.2h26.6l-21.7-59.7
	C197.5,156.9,206.5,144,206.5,129z M156.5,141.5v-31.2H169v0c6.9,0,12.5,5.6,12.5,12.5v6.2c0,6.9-5.6,12.5-12.5,12.5L156.5,141.5
	L156.5,141.5z"/>
<g>
	<path class="st0" d="M208.4,34.8c-3.2,4.9-5.8,10.1-6.3,16.1c-0.2,1.7-0.2,3.3-0.2,5c0,14.7,0,29.5,0,44.5c-35,0-69.9,0-105,0
		c0,4.5,0,8.8,0,13.2c17.4,0,34.7,0,52.2,0c0,4.4,0,8.7,0,13.2c-17.3,0-34.7,0-52.4,0c0,22.1,0,44.1,0,66.1c-8.8,0-17.4,0-26.3,0
		c0-0.8,0-1.6,0-2.3c0-42.8,0-85.7,0-128.5c0-14,8.6-24.2,22.4-26.8c0.3-0.1,0.5-0.2,0.8-0.3C131.9,34.8,170.2,34.8,208.4,34.8z
		 M96.9,48c0,4.5,0,8.7,0,12.9c30.7,0,61.2,0,91.7,0c0-4.4,0-8.6,0-12.9C157.9,48,127.4,48,96.9,48z M188.7,74.3
		c-30.7,0-61.3,0-91.8,0c0,4.4,0,8.7,0,12.8c30.7,0,61.2,0,91.8,0C188.7,82.8,188.7,78.6,188.7,74.3z"/>
	<path class="st0" d="M281.1,178.4c-8.5,1.6-17,3.3-25.5,4.9c-15.7,3.1-31.3,6.2-47,9.4c-0.4,0.1-0.9,0.1-1.3,0.1
		c-0.4,0-0.9,0-1.3,0c-15.2,0.7-30.1-0.9-44.9-4.3c-16.9-3.9-34-6.9-51.1-10.3c0-12.7,0-25.4,0-38.3c17.3,0,34.7,0,52.4,0
		c0-8.9,0-17.5,0-26.3c22,0,43.8,0,65.7,0c0,8.7,0,17.3,0,26.2c17.8,0,35.4,0,53,0C281.1,152.7,281.1,165.6,281.1,178.4z
		 M175.7,126.8c0,4.4,0,8.7,0,12.9c13.2,0,26.2,0,39.1,0c0-4.4,0-8.6,0-12.9C201.8,126.8,188.8,126.8,175.7,126.8z"/>
	<path class="st0" d="M109.9,259c0-22.3,0-44.7,0-67.3c21.9,4.4,43.7,8.7,65.6,13.1c0,9.1,0,18.1,0,27.3c13.2,0,26.2,0,39.5,0
		c0-9,0-18.1,0-27.3c9.9-2,19.6-3.9,29.3-5.8c11.9-2.4,23.9-4.7,35.8-7.1c0.4-0.1,0.7-0.2,1-0.4c0,22.5,0,45,0,67.4
		C224,259,167,259,109.9,259z"/>
	<path class="st0" d="M237.3,34.8c0.7,0.2,1.4,0.4,2.1,0.6c8.3,2,14.8,9.6,14.9,18.1c0.2,11,0.1,22,0.1,33c0,0.2-0.1,0.4-0.2,0.7
		c-13,0-25.9,0-39.2,0c0-0.7,0-1.5,0-2.3c0-9.7,0-19.4,0-29.1c0-11.1,5.7-18.2,16.5-20.8c0.2,0,0.4-0.2,0.6-0.3
		C233.8,34.8,235.6,34.8,237.3,34.8z"/>
	<path class="st0" d="M56.9,206c13.2,0,26.4,0,39.7,0c0,8.8,0,17.4,0,26.1c-7.6,0-15.1,0.5-22.6-0.1c-8.8-0.8-14.8-6.9-16.8-15.5
		c-0.1-0.4-0.3-0.8-0.4-1.2C56.9,212.1,56.9,209.1,56.9,206z"/>
	<path class="st0" d="M188.9,206.1c4.4,0,8.6,0,12.9,0c0,4.3,0,8.5,0,12.9c-4.2,0-8.5,0-12.9,0C188.9,214.8,188.9,210.5,188.9,206.1
		z"/>
</g>
</svg>
