<?xml version="1.0" encoding="utf-8"?>
<!-- Generator: Adobe Illustrator 23.0.4, SVG Export Plug-In . SVG Version: 6.00 Build 0)  -->
<svg version="1.1" id="Layer_1" xmlns="http://www.w3.org/2000/svg" xmlns:xlink="http://www.w3.org/1999/xlink" x="0px" y="0px"
	 viewBox="0 0 338 307.9" style="enable-background:new 0 0 338 307.9;" xml:space="preserve">
<style type="text/css">
	.st0{fill:#ED390B;}
	.st1{fill:#FFFFFF;}
</style>
<g>
	<path class="st0" d="M200.3,37.6h-58.7c-3.8,0-5.5,4.1-5.5,7.8v9.6h69.7v-9.6C205.8,41.7,204.1,37.6,200.3,37.6z"/>
	<path class="st0" d="M203.5,63.5l-64.8-0.6c-1.2,0-2.6,0.3-2.6-0.3v50c0,3.8,1.7,6.4,5.5,6.4h12.2V91.4h34.6V119h11.9
		c3.8,0,5.5-2.6,5.5-6.4v-50C205.8,63.2,204.4,63.5,203.5,63.5z"/>
	<path class="st0" d="M78,176.2c-3.2,0-5.8-2.6-5.8-5.8c-0.3-30.5,13.7-59.3,37.5-78.2c2.6-1.7,6.4-1.2,8.1,1.7
		c1.5,2.3,1.2,5.5-0.9,7.3c-20.9,16.9-33.1,42.1-33.1,69.2C83.8,173.6,81.2,176.2,78,176.2z"/>
	<path class="st0" d="M172.4,270.4c-10.8,0-21.5-1.7-31.7-4.9c-2.9-1.2-4.4-4.4-3.5-7.3c0.9-2.9,3.8-4.6,6.7-4.1
		c0.3,0,0.3,0,0.6,0.3c18.3,6.1,38.1,5.8,56.4-0.3c2.9-0.9,6.1,0.9,7.3,3.8c0.9,2.9-0.9,6.4-3.8,7.3
		C194.2,268.6,183.1,270.4,172.4,270.4z"/>
	<path class="st0" d="M266.8,176.2c-3.2,0-5.8-2.6-5.8-5.8c0-28.8-13.9-55.8-37.5-72.4c-2.6-1.7-3.2-5.5-1.5-8.1
		c1.7-2.6,5.5-3.2,8.1-1.5c26.4,18.9,42.4,49.4,42.4,81.9C272.6,173.6,270,176.2,266.8,176.2z"/>
	<path class="st0" d="M110.2,183.5H51.5c-3.8,0-5.5,4.1-5.5,7.8v9.6h69.7v-9.6C115.7,187.5,114,183.5,110.2,183.5z"/>
	<path class="st0" d="M287.5,183.5h-58.7c-3.8,0-5.5,4.1-5.5,7.8v9.6H293v-9.6C293,187.5,291.2,183.5,287.5,183.5z"/>
	<path class="st0" d="M113.4,209.3l-64.8-0.6c-1.2,0-2.6,0.3-2.6-0.3v50c0,3.8,1.7,6.4,5.5,6.4h12.1v-24.9h34.6v24.9h12.1
		c3.8,0,5.5-2.6,5.5-6.4v-50C115.7,209,114.3,209.3,113.4,209.3z"/>
	<path class="st0" d="M290.7,209.3l-64.8-0.6c-1.2,0-2.6,0.3-2.6-0.3v50c0,3.8,1.7,6.4,5.5,6.4h12.1v-24.9h34.6v24.9h12.1
		c3.8,0,5.5-2.6,5.5-6.4v-50C293,209,291.5,209.3,290.7,209.3z"/>
</g>
</svg>
