<?xml version="1.0" encoding="utf-8"?>
<!-- Generator: Adobe Illustrator 23.0.4, SVG Export Plug-In . SVG Version: 6.00 Build 0)  -->
<svg version="1.1" id="Layer_1" xmlns="http://www.w3.org/2000/svg" xmlns:xlink="http://www.w3.org/1999/xlink" x="0px" y="0px"
	 viewBox="0 0 338 307.9" style="enable-background:new 0 0 338 307.9;" xml:space="preserve">
<style type="text/css">
	.st0{fill:#ED390B;}
	.st1{fill:#FFFFFF;}
</style>
<g id="_x33__1_">
	<path class="st0" d="M278.4,83h-52.3V65.1c0-15.7-12.8-28.5-28.5-28.5h-56.2c-15.7,0-28.5,12.8-28.5,28.5V83H60.6
		c-16.4,0-29.8,13.4-29.8,29.8V130L144,157.4v-1.1c0-6.6,5.4-12,12-12h26.9c6.6,0,12,5.4,12,12v1.1l113.2-27.4v-17.2
		C308.1,96.4,294.8,83,278.4,83z M199.1,82.4h-59.1V68.2c0-3.3,2.7-5.9,5.9-5.9h47.2c3.3,0,5.9,2.7,5.9,5.9V82.4z"/>
	<path class="st0" d="M182.9,181H156c-6.5,0-11.7-5.1-12-11.5L30.8,142v91.2c0,16.4,13.4,29.8,29.8,29.8h217.7
		c16.4,0,29.8-13.4,29.8-29.8V142l-113.2,27.4C194.7,175.8,189.4,181,182.9,181z"/>
</g>
</svg>
