<?xml version="1.0" encoding="utf-8"?>
<!-- Generator: Adobe Illustrator 23.0.4, SVG Export Plug-In . SVG Version: 6.00 Build 0)  -->
<svg version="1.1" id="Layer_1" xmlns="http://www.w3.org/2000/svg" xmlns:xlink="http://www.w3.org/1999/xlink" x="0px" y="0px"
	 viewBox="0 0 338 307.9" style="enable-background:new 0 0 338 307.9;" xml:space="preserve">
<style type="text/css">
	.st0{fill:#ED390B;}
	.st1{fill:#FFFFFF;}
</style>
<g>
	<path class="st0" d="M172.5,152.8c14.5,0,26.3-11.8,26.3-26.3s-11.8-26.3-26.3-26.3s-26.3,11.8-26.3,26.3
		C146.3,141,158.1,152.8,172.5,152.8z"/>
	<path class="st0" d="M123.9,202.3v42c0,1.4,1.2,2.6,2.6,2.6h43.1V214l-15.7-51.1C136.2,167.8,123.9,183.9,123.9,202.3z"/>
	<path class="st0" d="M131.6,165.1c-4.4-12.5-14.5-22.2-27.1-26L88.8,196v27h26.1v-20.6C114.9,188.1,121,174.5,131.6,165.1z
		 M112.5,178.4h-8.3c-2.5,0-4.5-2-4.5-4.5c0-2.5,2-4.5,4.5-4.5h8.3c2.5,0,4.5,2,4.5,4.5C117,176.4,115,178.4,112.5,178.4z"/>
	<path class="st0" d="M279.5,139l-7.4,31.9c-1,4.4-4.2,8.1-8.5,9.7v42.4h42.9c1.4,0,2.6-1.2,2.6-2.6v-42
		C309.1,160,297,144,279.5,139z M291.2,180.3h-10.9c-2.5,0-4.5-2-4.5-4.5c0-2.5,2-4.5,4.5-4.5h10.9c2.5,0,4.5,2,4.5,4.5
		C295.7,178.3,293.7,180.3,291.2,180.3z"/>
	<path class="st0" d="M193.9,163.7L178.5,214v32.9h40.2c1.4,0,2.6-1.2,2.6-2.6v-42C221.3,185,210.3,169.5,193.9,163.7z M206,205.9
		h-10.9c-2.5,0-4.5-2-4.5-4.5c0-2.5,2-4.5,4.5-4.5H206c2.5,0,4.5,2,4.5,4.5C210.5,203.9,208.5,205.9,206,205.9z"/>
	<path class="st0" d="M36.3,178.3v42.1c0,1.4,1.2,2.6,2.6,2.6h41v-27l-15.6-56.5C47.6,145.1,36.3,160.7,36.3,178.3z"/>
	<path class="st0" d="M92.8,137.4H77.3c-1.4,0-2.8,0.1-4.1,0.2l11.3,40.9l11.3-41C94.7,137.4,93.8,137.4,92.8,137.4z"/>
	<path class="st0" d="M180.4,161.4h-15.6c-0.7,0-1.3,0-2,0.1L174,198l11.1-36.4C183.6,161.5,182,161.4,180.4,161.4z"/>
	<path class="st0" d="M246.2,170.8l-7.2-31.1c-11.8,4.2-21.2,13.6-25.4,25.4c10.6,9.4,16.6,22.9,16.6,37.1v20.6h24.5v-42.4
		C250.5,178.9,247.3,175.2,246.2,170.8z"/>
	<path class="st0" d="M268.2,137.4h-15.6c-1.7,0-3.3,0.1-4.9,0.3l7.2,31.1c0.5,2,2.1,3.5,4.2,3.5h0.3c1.9-0.2,3.5-1.6,3.8-3.5
		l7.3-31.3C269.9,137.4,269,137.4,268.2,137.4z"/>
	<path class="st0" d="M85,129.2c14.5,0,26-11.6,26.3-26.4c0-14.5-11.8-26.3-26.4-26.3c-14.5,0-26.3,11.8-26.3,26.4
		C58.7,117.4,70.5,129.2,85,129.2z"/>
	<path class="st0" d="M260.1,129.2c14.5,0,26.3-11.8,26.3-26.3s-11.8-26.3-26.3-26.3c-14.5,0-26.3,11.8-26.3,26.3
		C233.8,117.4,245.6,129.2,260.1,129.2z"/>
</g>
</svg>
