<?xml version="1.0" encoding="utf-8"?>
<!-- Generator: Adobe Illustrator 23.0.4, SVG Export Plug-In . SVG Version: 6.00 Build 0)  -->
<svg version="1.1" id="Layer_1" xmlns="http://www.w3.org/2000/svg" xmlns:xlink="http://www.w3.org/1999/xlink" x="0px" y="0px"
	 viewBox="0 0 338 307.9" style="enable-background:new 0 0 338 307.9;" xml:space="preserve">
<style type="text/css">
	.st0{fill:#ED390B;}
	.st1{fill:#FFFFFF;}
</style>
<g>
	<path class="st0" d="M283.8,58.4h-42.3v-6c0-3.3-2.7-6-6-6h-24.2c-3.3,0-6,2.7-6,6v6h-72.5v-6c0-3.3-2.7-6-6-6h-24.2
		c-3.3,0-6,2.7-6,6v6H54.2c-3.3,0-6,2.7-6,6v133c0,3.3,2.7,6,6,6h90.7v54.4c0,3.3,2.7,6,6,6h36.3c3.3,0,6-2.7,6-6v-54.4h90.7
		c3.3,0,6-2.7,6-6v-133C289.9,61.1,287.2,58.4,283.8,58.4z M156.9,161.2c0,3.3-2.7,6-6,6h-18.1V143c0-3.3-2.7-6-6-6h-12.1
		c-3.3,0-6,2.7-6,6v24.2H90.4c-3.3,0-6-2.7-6-6v-42.3c0-2.1,1.1-4.1,2.9-5.2l30.2-18.1c1.9-1.2,4.3-1.2,6.2,0l30.2,18.1
		c1.8,1.1,2.9,3.1,2.9,5.2V161.2z M247.6,161.2h-48.4c-3.3,0-6-2.7-6-6s2.7-6,6-6h48.4c3.3,0,6,2.7,6,6S250.9,161.2,247.6,161.2z
		 M247.6,137h-48.4c-3.3,0-6-2.7-6-6s2.7-6,6-6h48.4c3.3,0,6,2.7,6,6S250.9,137,247.6,137z M247.6,112.8h-48.4c-3.3,0-6-2.7-6-6
		s2.7-6,6-6h48.4c3.3,0,6,2.7,6,6S250.9,112.8,247.6,112.8z"/>
</g>
</svg>
