<?xml version="1.0" encoding="utf-8"?>
<!-- Generator: Adobe Illustrator 23.0.4, SVG Export Plug-In . SVG Version: 6.00 Build 0)  -->
<svg version="1.1" id="Layer_1" xmlns="http://www.w3.org/2000/svg" xmlns:xlink="http://www.w3.org/1999/xlink" x="0px" y="0px"
	 viewBox="0 0 338 307.9" style="enable-background:new 0 0 338 307.9;" xml:space="preserve">
<style type="text/css">
	.st0{fill:#ED390B;}
	.st1{fill:#FFFFFF;}
</style>
<g id="_x31_1_1_">
	<path class="st0" d="M259.1,35H80.8c-2.9,0-5.3,2.4-5.3,5.3v237.9c0,2.9,2.4,5.3,5.3,5.3h178.2c2.9,0,5.3-2.4,5.3-5.3V40.3
		C264.4,37.4,262,35,259.1,35z M108.5,79.3h123c2.9,0,5.3,2.4,5.3,5.3c0,2.9-2.4,5.3-5.3,5.3h-123c-2.9,0-5.3-2.4-5.3-5.3
		C103.1,81.7,105.5,79.3,108.5,79.3z M108.5,104.5h123c2.9,0,5.3,2.4,5.3,5.3c0,2.9-2.4,5.3-5.3,5.3h-123c-2.9,0-5.3-2.4-5.3-5.3
		C103.1,106.9,105.5,104.5,108.5,104.5z M108.5,129.2h67c2.9,0,5.3,2.4,5.3,5.3c0,2.9-2.4,5.3-5.3,5.3h-67c-2.9,0-5.3-2.4-5.3-5.3
		C103.1,131.6,105.5,129.2,108.5,129.2z M139.7,221.1h-32.5c-2.9,0-5.3-2.4-5.3-5.3s2.4-5.3,5.3-5.3h32.5c2.9,0,5.3,2.4,5.3,5.3
		S142.7,221.1,139.7,221.1z M155.5,196.7h-48.3c-2.9,0-5.3-2.4-5.3-5.3s2.4-5.3,5.3-5.3h48.3c2.9,0,5.3,2.4,5.3,5.3
		S158.5,196.7,155.5,196.7z M199.6,229.3l-4.5,22.7c-0.2,0.9-0.8,1.7-1.7,2c-0.3,0.1-0.6,0.1-0.9,0.1c-0.6,0-1.2-0.2-1.7-0.6
		l-6.6-5.6l-10.9,1.6c-1,0.1-2-0.3-2.6-1.1c-0.6-0.8-0.7-1.9-0.2-2.8l11.6-22.5c0.6-1.2,2-1.7,3.2-1.3l12.6,4.3
		C199.1,226.7,199.8,228,199.6,229.3z M195.4,218.7c-2.7-0.9-3.3-5.9-5.5-7.6c-2.3-1.7-7.3-0.7-8.9-2.9c-1.6-2.2,0.8-6.7,0-9.4
		c-0.8-2.6-5.5-4.7-5.5-7.6c0-2.9,4.6-5,5.5-7.6c0.9-2.7-1.6-7.1,0-9.4c1.7-2.3,6.6-1.3,8.9-2.9c2.2-1.6,2.8-6.7,5.5-7.6
		c2.6-0.8,6,2.9,8.9,2.9c2.9,0,6.3-3.7,8.9-2.9c2.7,0.9,3.3,5.9,5.5,7.6c2.3,1.7,7.3,0.7,8.9,2.9c1.6,2.2-0.8,6.7,0,9.4
		c0.8,2.6,5.5,4.7,5.5,7.6c0,2.9-4.6,5-5.5,7.6c-0.9,2.7,1.6,7.1,0,9.4c-1.7,2.3-6.6,1.3-8.9,2.9c-2.2,1.6-2.8,6.7-5.5,7.6
		c-2.6,0.8-6-2.9-8.9-2.9C201.5,215.8,198,219.6,195.4,218.7z M235.4,249.6c-0.1,0-0.3,0-0.4,0l-10.9-1.6l-6.6,5.6
		c-0.5,0.4-1.1,0.6-1.7,0.6c-0.3,0-0.6,0-0.9-0.1c-0.9-0.3-1.5-1.1-1.7-2l-4.5-22.7c-0.3-1.3,0.5-2.6,1.7-3l12.6-4.3
		c1.2-0.4,2.6,0.1,3.2,1.3l11.5,22.3c0.3,0.4,0.4,0.9,0.4,1.4C238.1,248.4,236.9,249.6,235.4,249.6z"/>
	<circle class="st0" cx="204.4" cy="191.2" r="11.4"/>
</g>
</svg>
