<?xml version="1.0" encoding="utf-8"?>
<!-- Generator: Adobe Illustrator 23.0.4, SVG Export Plug-In . SVG Version: 6.00 Build 0)  -->
<svg version="1.1" id="Layer_1" xmlns="http://www.w3.org/2000/svg" xmlns:xlink="http://www.w3.org/1999/xlink" x="0px" y="0px"
	 viewBox="0 0 338 307.9" style="enable-background:new 0 0 338 307.9;" xml:space="preserve">
<style type="text/css">
	.st0{fill:#ED390B;}
	.st1{fill:#FFFFFF;}
</style>
<g>
	<path class="st0" d="M179.9,224.1v-14.4H64v14.5c0,13.1,10.6,24,23.7,24h103.8c-1-0.9-2-1.7-2.9-2.6
		C183,239.9,179.8,232.2,179.9,224.1z"/>
	<path class="st0" d="M146,136.6l16.8,11.5l16.9-11.5c4.6-3.1,8.3-10.3,8.3-15.8V96.9l-25.1-12.4l-25.1,12.4v23.9
		C137.8,126.3,141.4,133.4,146,136.6z M149.8,114c1.2-1.2,3.3-1.2,4.5,0l5.1,5.1l12.2-12.2c1.2-1.2,3.2-1.2,4.5,0
		c1.2,1.2,1.2,3.2,0,4.5l-14.4,14.4c-0.6,0.6-1.4,0.9-2.2,0.9h0c-0.8,0-1.7-0.3-2.2-1l-7.3-7.4C148.6,117.3,148.6,115.3,149.8,114z"
		/>
	<path class="st0" d="M257.2,59.8h-0.1c-9.3,0-17.1,7.8-17.1,17.1V106h34V76.9C274.1,67.5,266.6,59.9,257.2,59.8z"/>
	<path class="st0" d="M112.6,59.8c-8.8,0-16,7.1-16,15.7l-0.9,127.8H183c1.8,0.1,3.2,1.5,3.2,3.3v17.5c0,13.2,10.6,23.9,23.8,24h0.1
		c13.2-0.1,23.7-10.8,23.6-24V76.9c0-6.7,3-12.6,7.5-17.1H112.6z M131.4,94.9c0-1.2,0.6-2.3,1.7-2.8l28.4-13.9
		c0.9-0.4,1.9-0.4,2.8,0l28.4,14c1.1,0.5,1.7,1.7,1.7,2.8v25.8c0,7.7-4.7,16.8-11,21.1l-18.6,12.8c-0.5,0.4-1.1,0.6-1.8,0.6
		c-0.6,0-1.2-0.2-1.8-0.6l-18.7-12.8c-6.4-4.3-11.1-13.4-11.1-21.1V94.9z M207.9,188.9H121c-1.8,0-3.2-1.4-3.2-3.2s1.4-3.2,3.2-3.2
		h86.9c1.8,0,3.2,1.4,3.2,3.2S209.7,188.9,207.9,188.9z M207.9,172.1H121c-1.8,0-3.2-1.4-3.2-3.2s1.4-3.2,3.2-3.2h86.9
		c1.8,0,3.2,1.4,3.2,3.2S209.7,172.1,207.9,172.1z"/>
</g>
</svg>
