<?xml version="1.0" encoding="utf-8"?>
<!-- Generator: Adobe Illustrator 23.0.4, SVG Export Plug-In . SVG Version: 6.00 Build 0)  -->
<svg version="1.1" id="Layer_1" xmlns="http://www.w3.org/2000/svg" xmlns:xlink="http://www.w3.org/1999/xlink" x="0px" y="0px"
	 viewBox="0 0 338 307.9" style="enable-background:new 0 0 338 307.9;" xml:space="preserve">
<style type="text/css">
	.st0{fill:#ED390B;}
	.st1{fill:#FFFFFF;}
</style>
<path class="st0" d="M41.8,153.9c0,70.3,56.9,127.2,127.2,127.2c70.3,0,127.2-56.9,127.2-127.2c0-70.2-56.9-127.2-127.2-127.2
	C98.8,26.8,41.8,83.7,41.8,153.9z"/>
<path class="st0" d="M63,153.9c0,58.4,47.5,106,106,106s106-47.5,106-106c0-58.4-47.5-106-106-106S63,95.5,63,153.9z"/>
<path class="st1" d="M206.5,129v-6.2c0-20.7-16.8-37.5-37.5-37.5h-37.5v137.3h25v-56.2h2.9l20.4,56.2h26.6l-21.7-59.7
	C197.5,156.9,206.5,144,206.5,129z M156.5,141.5v-31.2H169v0c6.9,0,12.5,5.6,12.5,12.5v6.2c0,6.9-5.6,12.5-12.5,12.5L156.5,141.5
	L156.5,141.5z"/>
</svg>
