<?xml version="1.0" encoding="utf-8"?>
<!-- Generator: Adobe Illustrator 23.0.4, SVG Export Plug-In . SVG Version: 6.00 Build 0)  -->
<svg version="1.1" id="Layer_1" xmlns="http://www.w3.org/2000/svg" xmlns:xlink="http://www.w3.org/1999/xlink" x="0px" y="0px"
	 viewBox="0 0 338 307.9" style="enable-background:new 0 0 338 307.9;" xml:space="preserve">
<style type="text/css">
	.st0{fill:#ED390B;}
	.st1{fill:#FFFFFF;}
</style>
<g id="_x39__1_">
	<path class="st0" d="M250.1,70.4c-16.6-3.3-28.6-6.3-33.8-8.5c-5.5-2.2-18-9.2-35.1-19.5c-3.7-2.2-7.8-3.4-12.1-3.4
		c-4.3,0-8.5,1.2-12.2,3.4c-16.8,10.2-29,17-34.3,19.2c-7.2,3-24.8,6.8-34.7,8.8C81.5,71.6,77,77.5,77.3,84l5,92.7
		c1.2,23.9,13.1,45.7,32.6,59.6l39,27.9c4.4,3.2,9.6,4.8,15.1,4.8s10.6-1.7,15.1-4.8l39-27.9c19.5-13.9,31.4-35.7,32.6-59.6l5-92.6
		C261,77.5,256.5,71.6,250.1,70.4z M169,214.4c-33.4,0-60.5-27.1-60.5-60.5s27.1-60.5,60.5-60.5c33.4,0,60.5,27.1,60.5,60.5
		S202.4,214.4,169,214.4z"/>
	<path class="st0" d="M169,103c-28.1,0-51,22.9-51,51s22.9,51,51,51s51-22.9,51-51S197.1,103,169,103z M196.2,149.4l-13.7,10
		c-0.3,0.2-0.4,0.6-0.3,1l5.2,16.1c0.3,0.8,0.1,1.7-0.4,2.4c-0.5,0.7-1.4,1.2-2.2,1.2c-0.6,0-1.1-0.2-1.6-0.5l-13.7-10
		c-0.3-0.2-0.7-0.2-1,0l-13.7,10c-0.5,0.3-1,0.5-1.6,0.5c-0.9,0-1.7-0.4-2.2-1.2c-0.5-0.7-0.7-1.6-0.4-2.4l5.2-16.1
		c0.1-0.3,0-0.7-0.3-0.9l-13.7-10c-1-0.7-1.4-1.9-1-3.1c0.4-1.2,1.4-1.9,2.6-1.9h17c0.1,0,0.6,0,0.8-0.5l5.2-16.1
		c0.4-1.1,1.4-1.9,2.6-1.9c1.2,0,2.2,0.7,2.6,1.9l5.2,16.1c0.1,0.4,0.5,0.5,0.8,0.5h17c1.2,0,2.2,0.8,2.6,1.9
		C197.6,147.5,197.2,148.7,196.2,149.4z"/>
</g>
</svg>
