<?xml version="1.0" encoding="utf-8"?>
<!-- Generator: Adobe Illustrator 23.0.4, SVG Export Plug-In . SVG Version: 6.00 Build 0)  -->
<svg version="1.1" id="Layer_1" xmlns="http://www.w3.org/2000/svg" xmlns:xlink="http://www.w3.org/1999/xlink" x="0px" y="0px"
	 viewBox="0 0 338 307.9" style="enable-background:new 0 0 338 307.9;" xml:space="preserve">
<style type="text/css">
	.st0{fill:#ED390B;}
	.st1{fill:#FFFFFF;}
</style>
<g>
	<g>
		<g>
			<g>
				<path class="st0" d="M153.1,163.9c-4.9-23.2-21.9-41.9-44.5-49c-6.3-1.9-12.8-2.9-19.3-2.9c-16.2,0-31.8,6.1-43.8,17
					c-26.6,24.2-28.5,65.3-4.3,91.9s65.3,28.5,91.9,4.4c13.6-12.3,21.3-29.8,21.3-48.2C154.4,172.7,154,168.2,153.1,163.9z"/>
				<path class="st0" d="M118.1,220.4c-17.2,6.6-36.6,2.4-49.5-10.6c-4.4-4.3-7.8-9.5-10.1-15.2h-10c-3.6,0-6.5-2.9-6.5-6.5
					c0-3.6,2.9-6.5,6.5-6.5h6.7c-0.3-2.4-0.3-4.8-0.1-7.2h-6.5c-3.6,0-6.5-2.9-6.5-6.5c0-3.6,2.9-6.5,6.5-6.5h9.3
					c2.3-6.4,5.9-12.1,10.8-16.9c13-13,32.4-17,49.5-10.5c3.3,1.3,5,5,3.7,8.4c-1.3,3.3-5,5-8.4,3.7c-12.3-4.8-26.2-1.8-35.5,7.5
					c-2.2,2.4-4.1,4.9-5.7,7.7h38.1c3.6,0,6.5,2.9,6.5,6.5c0,3.6-2.9,6.5-6.5,6.5H68.3c-0.3,2.4-0.2,4.8,0.2,7.2h38.3
					c3.6,0,6.5,2.9,6.5,6.5c0,3.6-2.9,6.5-6.5,6.5H73.3c1.2,2.2,2.7,4.2,4.6,5.9c9.3,9.3,23.2,12.3,35.5,7.6c0,0,0,0,0,0.1
					c3.4-1.2,7.1,0.4,8.4,3.8C123.1,215.4,121.5,219.1,118.1,220.4z"/>
			</g>
		</g>
		<g>
			<g>
				<path class="st0" d="M232.8,58.8c-13.3-4-31.6-6.3-50.3-6.3c-18.8,0-36.4,2.3-49.6,6.3c-13.8,4.2-16.8,8.7-16.8,9.6
					c0.1,0.1,0.1,0.1,0.1,0.2c0.3,1.4,4.2,5.9,18.3,10c13,3.8,30.1,5.9,48.1,5.9c18.7,0,36.9-2.4,50.2-6.3
					c14.2-4.2,17.3-8.7,17.3-9.7C250,67.6,246.9,63.1,232.8,58.8z"/>
			</g>
		</g>
		<g>
			<g>
				<path class="st0" d="M179.6,207.2V206c-6-0.1-11.9-0.4-17.4-0.8c-3,7.8-7.2,15-12.5,21.5c10.1,1.6,20.2,2.5,30.3,2.7
					L179.6,207.2z"/>
			</g>
		</g>
		<g>
			<g>
				<path class="st0" d="M236.4,90.6c-14.6,4.4-33.8,6.9-54,6.9c-19.3,0-37.6-2.2-51.8-6.3c-4.9-1.3-9.6-3.1-14.1-5.4l0.5,18.4
					c7.4,2.8,14.2,6.7,20.4,11.6c0.2,0.1,0.3,0.1,0.5,0.1c12.5,3.2,28.3,4.9,44.5,4.9c18.7,0,37-2.4,50.3-6.3
					c14.2-4.3,17.3-8.8,17.3-9.7c-0.1-1.1,0.3-2.2,0.8-3.1V84.9C246.3,87.3,241.4,89.2,236.4,90.6z"/>
			</g>
		</g>
		<g>
			<g>
				<path class="st0" d="M236.5,126.9c-14.7,4.4-33.9,6.9-54.1,6.9c-9.9,0-19.8-0.7-29.6-1.9c5.3,7.3,9.2,15.5,11.7,24.3
					c5.6,0.4,11.7,0.7,18,0.7c0.2,0,0.4,0,0.6,0c10.7-11.8,39.7-17.7,67.8-18.5V121C246.3,123.5,241.5,125.3,236.5,126.9z"/>
			</g>
		</g>
		<g>
			<g>
				<path class="st0" d="M165.9,192.3c4.4,0.3,8.9,0.5,13.5,0.6l-0.4-22.6c0-0.1-0.1-0.3-0.1-0.5c-4-0.1-8-0.2-11.9-0.5
					c0.3,2.6,0.4,5.2,0.3,7.7C167.4,182.2,166.8,187.3,165.9,192.3z"/>
			</g>
		</g>
		<g>
			<g>
				<path class="st0" d="M325.9,200.6v-16.7c-4.6,2.4-9.4,4.3-14.4,5.7c-14.6,4.3-33.5,6.7-53.3,6.7c-18.8,0-36.9-2.2-50.9-6.1
					c-5.2-1.4-10.1-3.3-14.9-5.7l0.3,14.9l0.1,5.6c5.4,6.3,29.6,14.3,65.5,14.3c18.9,0,36.7-2.2,50.1-6.3
					c14.1-4.3,17.1-8.7,17.1-9.7C325.3,202.4,325.9,201.4,325.9,200.6L325.9,200.6z"/>
			</g>
		</g>
		<g>
			<g>
				<path class="st0" d="M312,225.5c-14.6,4.5-33.7,6.9-53.9,6.9c-23.8,0-49.7-3.6-65.2-11.5l0.3,18.9c0,0.1,0,0.1,0,0.1
					c0,1,2.8,5.4,16.6,9.6c13.1,4,30.7,6.2,49.5,6.2c18.8,0,36.4-2.3,49.7-6.4c13.8-4.3,16.8-8.8,16.8-9.7v-19.8
					C321.5,222.1,316.8,224.1,312,225.5z"/>
			</g>
		</g>
		<g>
			<g>
				<path class="st0" d="M308.5,157.7c-13.3-4.1-31.6-6.2-50.3-6.2h-0.8c-17.4,0-34,2-46.7,5.5c-13.4,3.8-18.1,8-18.8,9.9
					c0.1,0.3,0.2,0.7,0.3,1.1c1.2,2,6.3,6,18.7,9.5c12.9,3.6,29.8,5.6,47.4,5.6c18.7,0,36.3-2.2,49.7-6.1
					c14.5-4.3,17.8-8.8,17.8-9.8C325.5,166.1,322.3,161.9,308.5,157.7z"/>
			</g>
		</g>
	</g>
	<g>
		<g>
			<path class="st1" d="M93.7,201.8L93.7,201.8l0-37.1l11.7,11.7c0.6,0.6,1.3,0.9,2.2,0.9c0.8,0,1.6-0.3,2.2-0.9l1.8-1.8
				c0.6-0.6,0.9-1.3,0.9-2.1c0-0.8-0.3-1.6-0.9-2.1l-20-20c-0.6-0.6-1.3-0.9-2.2-0.9c-0.8,0-1.6,0.3-2.2,0.9l-20,20
				c-0.6,0.6-0.9,1.3-0.9,2.1c0,0.8,0.3,1.6,0.9,2.1l1.8,1.8c0.6,0.6,1.3,0.9,2.1,0.9c0.8,0,1.5-0.3,2.1-0.9L85,164.6v37.2
				c0,1.7,1.4,3.1,3.1,3.1h2.6C92.4,204.9,93.7,203.4,93.7,201.8z"/>
		</g>
	</g>
</g>
</svg>
