<?xml version="1.0" encoding="utf-8"?>
<!-- Generator: Adobe Illustrator 23.0.4, SVG Export Plug-In . SVG Version: 6.00 Build 0)  -->
<svg version="1.1" id="Layer_1" xmlns="http://www.w3.org/2000/svg" xmlns:xlink="http://www.w3.org/1999/xlink" x="0px" y="0px"
	 viewBox="0 0 338 307.9" style="enable-background:new 0 0 338 307.9;" xml:space="preserve">
<style type="text/css">
	.st0{fill:#ED390B;}
	.st1{fill:#FFFFFF;}
</style>
<g>
	<path class="st0" d="M217.7,172.7c0-1.6-0.7-3.3-1.8-4.4l-2.6-2.6L162,217l2.6,2.6c2.3,2.3,6.5,2.3,8.9,0l42.4-42.4
		C217,176,217.7,174.4,217.7,172.7z"/>
	<path class="st0" d="M122.1,159.4l33.6-33.6l42.4,42.4l-33.6,33.6L122.1,159.4z"/>
	<path class="st0" d="M155.7,108.2c-1.2-1.2-2.8-1.8-4.4-1.8c-1.6,0-3.3,0.7-4.4,1.8l-42.4,42.4c-1.2,1.2-1.8,2.8-1.8,4.4
		s0.7,3.3,1.8,4.4l2.6,2.6l51.3-51.3L155.7,108.2z"/>
	<path class="st0" d="M142.4,243.5v4.4h106.2v-4.4c0-7.3-6-13.3-13.3-13.3h-79.7C148.4,230.2,142.4,236.2,142.4,243.5z"/>
	<path class="st0" d="M133.6,243.5c0-11.6,9.1-21.1,20.5-22l-4.6-4.6l8.9-8.9l-11.4-11.4l-70,73.3h38.9c0-10.7,7.6-19.6,17.7-21.7
		V243.5z"/>
	<path class="st0" d="M253.1,256.8H138c-7.3,0-13.3,6-13.3,13.3v13.3h141.6v-8.9v-4.4C266.4,262.8,260.4,256.8,253.1,256.8z"/>
	<rect x="213.3" y="265.7" class="st0" width="8.9" height="8.9"/>
	<rect x="231" y="265.7" class="st0" width="8.9" height="8.9"/>
	<rect x="248.7" y="265.7" class="st0" width="8.9" height="8.9"/>
	<path class="st0" d="M163,59.3l-91.4,54.5v116.4l55.6-53.1l-11.4-11.4l-8.9,8.9l-8.9-8.9c-2.9-2.9-4.4-6.6-4.4-10.7
		s1.6-7.8,4.4-10.7l42.4-42.4c5.7-5.7,15.7-5.7,21.4,0l8.9,8.9l-8.9,8.9l42.4,42.4l8.9-8.9l8.9,8.9c2.9,2.9,4.4,6.6,4.4,10.7
		c0,4-1.6,7.8-4.4,10.7l-38,38h51.3c12.2,0,22.1,9.9,22.1,22.1v4.9c3.3,0.7,6.3,2.1,8.9,4.1V113.8L175,59.3
		C171.4,57.1,166.6,57.1,163,59.3L163,59.3z"/>
	
		<rect x="79.8" y="116.9" transform="matrix(0.8592 -0.5116 0.5116 0.8592 -50.1016 60.5213)" class="st0" width="10.3" height="8.8"/>
	
		<rect x="89.8" y="97.1" transform="matrix(0.8592 -0.5116 0.5116 0.8592 -35.3115 74.7195)" class="st0" width="56.7" height="8.8"/>
	<rect x="248.7" y="172.7" class="st0" width="8.9" height="8.9"/>
	<rect x="248.7" y="190.4" class="st0" width="8.9" height="8.9"/>
	<rect x="248.7" y="208.1" class="st0" width="8.9" height="8.9"/>
	<rect x="227.2" y="104.1" transform="matrix(0.512 -0.859 0.859 0.512 19.8302 251.8853)" class="st0" width="8.8" height="8.9"/>
	<rect x="212" y="95" transform="matrix(0.512 -0.859 0.859 0.512 20.1911 234.4019)" class="st0" width="8.8" height="8.9"/>
	<rect x="196.8" y="85.9" transform="matrix(0.512 -0.859 0.859 0.512 20.5537 216.9125)" class="st0" width="8.8" height="8.9"/>
	<path class="st0" d="M297.1,104.1c-0.6-2.3-2-4.2-4.1-5.4L175,28.3c-3.6-2.1-8.3-2.1-11.9,0L45,98.7c-2,1.2-3.5,3.1-4.1,5.4
		c-0.6,2.3-0.2,4.7,1,6.7c2.4,4,8.1,5.5,12.1,3.1l104.5-62.3c3.2-1.9,6.8-2.9,10.5-2.9c3.7,0,7.3,1,10.5,2.9L284,114
		c4,2.4,9.7,0.9,12.1-3.1C297.3,108.8,297.7,106.4,297.1,104.1L297.1,104.1z"/>
	<path class="st0" d="M133.5,183.3l-90.4,86.3c-1.6,1.5-2.5,3.6-2.5,5.8c0,4.4,3.6,8,8,8c2.2,0,4.3-0.9,5.8-2.5l86.3-90.4
		L133.5,183.3z"/>
	<path class="st0" d="M270.8,39.9h-17.7v24.7l17.7,10.6V39.9z"/>
</g>
</svg>
