<?xml version="1.0" encoding="utf-8"?>
<!-- Generator: Adobe Illustrator 23.0.4, SVG Export Plug-In . SVG Version: 6.00 Build 0)  -->
<svg version="1.1" id="Layer_1" xmlns="http://www.w3.org/2000/svg" xmlns:xlink="http://www.w3.org/1999/xlink" x="0px" y="0px"
	 viewBox="0 0 338 307.9" style="enable-background:new 0 0 338 307.9;" xml:space="preserve">
<style type="text/css">
	.st0{fill:#ED390B;}
	.st1{fill:#FFFFFF;}
</style>
<g>
	<g>
		<g>
			<path class="st0" d="M103.8,176.5H84.3c5.5,10.9,15.3,19.1,27.2,22.7C108.6,193.5,105.7,185.9,103.8,176.5z"/>
		</g>
	</g>
	<g>
		<g>
			<path class="st0" d="M113,176.5c2.5,11.5,6.8,19.7,10,24.6c0.4,0,0.9,0.1,1.3,0.1c0.4,0,0.9-0.1,1.3-0.1c3.2-5,7.4-13.2,10-24.6
				H113z"/>
		</g>
	</g>
	<g>
		<g>
			<path class="st0" d="M167.8,145h-21.6c0.4,3.6,0.6,7.3,0.6,11.3c0,4-0.3,7.7-0.6,11.3h21.6c0.9-3.6,1.6-7.3,1.6-11.3
				S168.7,148.6,167.8,145z"/>
		</g>
	</g>
	<g>
		<g>
			<path class="st0" d="M137.1,113.3c3,5.8,5.9,13.4,7.7,22.7h19.5C158.8,125.1,149,116.8,137.1,113.3z"/>
		</g>
	</g>
	<g>
		<g>
			<path class="st0" d="M125.7,111.4c-0.5,0-0.9-0.1-1.3-0.1c-0.4,0-0.9,0.1-1.3,0.1c-3.4,5.2-7.5,13.4-10,24.6h22.6
				C133.1,124.7,129,116.5,125.7,111.4z"/>
		</g>
	</g>
	<g>
		<g>
			<path class="st0" d="M137.1,145h-25.6c-0.4,3.5-0.7,7.2-0.7,11.3c0,4,0.3,7.7,0.7,11.3h25.6c0.4-3.5,0.7-7.2,0.7-11.3
				C137.8,152.2,137.5,148.5,137.1,145z"/>
		</g>
	</g>
	<g>
		<g>
			<path class="st0" d="M84.3,136h19.5c1.9-9.3,4.8-16.9,7.7-22.7C99.7,116.8,89.9,125.1,84.3,136z"/>
		</g>
	</g>
	<g>
		<g>
			<path class="st0" d="M101.8,156.3c0-4,0.3-7.7,0.6-11.3H80.9c-0.9,3.6-1.6,7.3-1.6,11.3s0.7,7.6,1.6,11.3h21.6
				C102.1,163.9,101.8,160.2,101.8,156.3z"/>
		</g>
	</g>
	<g>
		<g>
			<path class="st0" d="M144.8,176.5c-1.9,9.4-4.8,17-7.7,22.7c11.9-3.6,21.7-11.8,27.2-22.7H144.8z"/>
		</g>
	</g>
	<g>
		<g>
			<path class="st0" d="M282.1,55.3l-104.4-28c-9.6-2.6-19.5,3.1-22.1,12.7l-9.4,35.1h41.2c5.6,0,10.5,2.6,13.8,6.5
				c3.4,0.9,9.8,2.6,15.7,4.2l29.6-27.6l8.3,2.2l-18.6,30.6c5.5,1.5,11,3,14.7,3.9l11.3-6.6l5.5,1.5l-8.7,13.2l0.9,15.8l-5.5-1.5
				l-6.4-11.4c-3.6-1-9.2-2.5-14.7-3.9l0.8,35.8l-8.3-2.2L213.9,97c-2.9-0.8-5.8-1.6-8.5-2.3v108.3l9.3-35.3l8.7,2.3l-18,68.4v16.8
				c0,9.9-8.1,18-18,18h-31.1l62.9,16.8c9.6,2.6,19.5-3.1,22.1-12.7l29.2-108.8l-8.7-2.3l2.3-8.7l8.7,2.3l22.1-82.6
				C297.4,67.7,291.7,57.9,282.1,55.3z M218.2,154.7l-8.7-2.3l2.3-8.7l8.7,2.3L218.2,154.7z M229.2,148.3l8.7,2.3l-2.3,8.7l-8.7-2.3
				L229.2,148.3z M223.8,272.8l-8.7-2.3l25.6-95.7l8.7,2.3L223.8,272.8z M253,164l-8.7-2.3l2.3-8.7l8.7,2.3L253,164z"/>
		</g>
	</g>
	<g>
		<g>
			<path class="st0" d="M187.4,84.2H52.3v180.1h135.1c5,0,9-4,9-9V93.2C196.4,88.2,192.3,84.2,187.4,84.2z M169.4,246.3H79.3v-9
				h90.1V246.3z M124.3,210.3c-29.8,0-54-24.2-54-54s24.2-54,54-54s54,24.2,54,54S154.2,210.3,124.3,210.3z"/>
		</g>
	</g>
</g>
</svg>
