<?xml version="1.0" encoding="utf-8"?>
<!-- Generator: Adobe Illustrator 23.0.4, SVG Export Plug-In . SVG Version: 6.00 Build 0)  -->
<svg version="1.1" id="Layer_1" xmlns="http://www.w3.org/2000/svg" xmlns:xlink="http://www.w3.org/1999/xlink" x="0px" y="0px"
	 viewBox="0 0 338 307.9" style="enable-background:new 0 0 338 307.9;" xml:space="preserve">
<style type="text/css">
	.st0{fill:#ED390B;}
	.st1{fill:#ED390B;stroke:#FFFFFF;stroke-width:3;stroke-miterlimit:10;}
</style>
<g>
	<path class="st0" d="M68.8,160.4c1.7,0,3.5-0.6,4.8-2l50-50l22.6,22.6c2.7,2.7,7,2.7,9.7,0l70.6-70.6v10.9c0,3.8,3.1,6.9,6.9,6.9
		c3.8,0,6.9-3.1,6.9-6.9V43.9c0-0.2,0-0.5,0-0.6c0-0.1,0-0.2-0.1-0.4c0-0.1,0-0.2-0.1-0.4c0-0.1-0.1-0.3-0.1-0.4s0-0.2-0.1-0.3
		c0-0.2-0.1-0.3-0.2-0.4c0-0.1-0.1-0.2-0.1-0.2c-0.1-0.2-0.1-0.3-0.2-0.4c0-0.1-0.1-0.1-0.1-0.2c-0.1-0.2-0.2-0.3-0.3-0.5
		c0-0.1-0.1-0.1-0.1-0.2c-0.1-0.2-0.3-0.4-0.4-0.5l0,0c-0.3-0.4-0.6-0.7-1-1l0,0c-0.2-0.2-0.4-0.3-0.5-0.4c-0.1,0-0.1-0.1-0.2-0.1
		c-0.2-0.1-0.3-0.2-0.5-0.3c-0.1,0-0.1-0.1-0.2-0.1c-0.1-0.1-0.3-0.1-0.4-0.2c-0.1,0-0.2-0.1-0.2-0.1c-0.1-0.1-0.3-0.1-0.4-0.2
		c-0.1,0-0.2,0-0.3-0.1c-0.1,0-0.3-0.1-0.4-0.1c-0.1,0-0.2,0-0.4-0.1c-0.1,0-0.2,0-0.4-0.1c-0.2,0-0.5,0-0.6,0H206
		c-3.8,0-6.9,3.1-6.9,6.9s3.1,6.9,6.9,6.9h10.9L151,116.5l-22.6-22.6c-2.7-2.7-7-2.7-9.7,0l-54.8,54.9c-2.7,2.7-2.7,7,0,9.7
		C65.3,159.7,67,160.4,68.8,160.4z"/>
	<path class="st0" d="M34.1,264.1c0,3.8,3.1,6.9,6.9,6.9h54.8c3.8,0,6.9-3.1,6.9-6.9v-9.6H34.1V264.1z"/>
	<path class="st0" d="M95.8,224.4H40.9c-3.8,0-6.9,3.1-6.9,6.9v9.6h68.5v-9.6C102.6,227.4,99.5,224.4,95.8,224.4z"/>
	<path class="st0" d="M116.7,264.1c0,3.8,3.1,6.9,6.9,6.9h54.8c3.8,0,6.9-3.1,6.9-6.9v-9.6h-68.5L116.7,264.1L116.7,264.1z"/>
	<path class="st0" d="M199.4,224.4h42.8l0.4,16.4h-43.2V224.4z"/>
	<path class="st0" d="M261.1,133.9h-54.8c-3.8,0-6.9,3.1-6.9,6.9v9.6h68.5v-9.6C267.9,136.9,264.8,133.9,261.1,133.9z"/>
	<path class="st0" d="M199.4,164.1h68.5v16.4h-68.5V164.1z"/>
	<path class="st0" d="M199.4,194.2h68.5l-22.6,16.4h-45.8V194.2z"/>
	<path class="st0" d="M199.4,264.1c0,3.8,3.1,6.9,6.9,6.9h54.8c3.8,0,6.9-3.1,6.9-6.9l-13.2-9.6h-55.3L199.4,264.1L199.4,264.1z"/>
	<path class="st0" d="M116.7,224.4h68.5v16.4h-68.5V224.4z"/>
	<path class="st0" d="M178.4,194.2h-54.8c-3.8,0-6.9,3.1-6.9,6.9v9.6h68.5v-9.6C185.3,197.3,182.2,194.2,178.4,194.2z"/>
</g>
<path class="st0" d="M274.5,210c-11.5,0-20.8,9.3-20.8,20.8c0,11.5,9.3,20.8,20.8,20.8c11.5,0,20.8-9.3,20.8-20.8
	C295.3,219.3,286,210,274.5,210z M286.9,226.8L272,241.7c-0.6,0.6-1.4,0.9-2.3,0.9c-0.8,0-1.6-0.3-2.3-0.9l-5.7-5.7
	c-1.3-1.3-1.3-3.3,0-4.5c1.3-1.3,3.3-1.3,4.5,0l3.4,3.4l12.6-12.6c1.3-1.3,3.3-1.3,4.5,0C288.1,223.6,288.1,225.6,286.9,226.8z"/>
<path class="st1" d="M320.9,205.8L320.9,205.8c-0.1-1.1-0.1-2.2-0.1-3.5c-0.1-6-4.9-11-10.9-11.3c-12.6-0.7-22.3-4.8-30.6-12.9
	l-0.1-0.1c-2.7-2.5-6.8-2.5-9.5,0l-0.1,0.1c-8.3,8.1-18,12.2-30.6,12.9c-6,0.3-10.8,5.3-10.9,11.3c0,1.2-0.1,2.3-0.1,3.4l0,0.2
	c-0.2,12.8-0.5,28.7,4.8,43.2c2.9,8,7.4,14.9,13.2,20.5c6.6,6.5,15.3,11.6,25.8,15.3c0.3,0.1,0.7,0.2,1.1,0.3c0.5,0.1,1,0.2,1.5,0.2
	s1-0.1,1.5-0.2c0.4-0.1,0.7-0.2,1.1-0.3c10.5-3.7,19.2-8.8,25.8-15.3c5.8-5.7,10.3-12.6,13.2-20.5
	C321.4,234.6,321.1,218.6,320.9,205.8z M274.5,258c-15,0-27.2-12.2-27.2-27.2c0-15,12.2-27.2,27.2-27.2c15,0,27.2,12.2,27.2,27.2
	C301.7,245.8,289.5,258,274.5,258z"/>
</svg>
